<?xml version="1.0" encoding="UTF-8" standalone="no"?>
<!-- Created with Inkscape (http://www.inkscape.org/) -->

<svg
   width="147.2872mm"
   height="151.93092mm"
   viewBox="0 0 147.2872 151.93092"
   version="1.1"
   id="svg1"
   inkscape:export-filename="unit-square-diagram.svg"
   inkscape:export-xdpi="96"
   inkscape:export-ydpi="96"
   xmlns:inkscape="http://www.inkscape.org/namespaces/inkscape"
   xmlns:sodipodi="http://sodipodi.sourceforge.net/DTD/sodipodi-0.dtd"
   xmlns="http://www.w3.org/2000/svg"
   xmlns:svg="http://www.w3.org/2000/svg">
  <sodipodi:namedview
     id="namedview1"
     pagecolor="#ffffff"
     bordercolor="#000000"
     borderopacity="0.25"
     inkscape:showpageshadow="2"
     inkscape:pageopacity="0.0"
     inkscape:pagecheckerboard="0"
     inkscape:deskcolor="#d1d1d1"
     inkscape:document-units="mm"
     inkscape:zoom="0.92894243"
     inkscape:cx="327.25387"
     inkscape:cy="294.42083"
     inkscape:window-width="2560"
     inkscape:window-height="1511"
     inkscape:window-x="-9"
     inkscape:window-y="-9"
     inkscape:window-maximized="1"
     inkscape:current-layer="layer1" />
  <defs
     id="defs1" />
  <g
     inkscape:label="Layer 1"
     inkscape:groupmode="layer"
     id="layer1"
     transform="translate(-29.3803,-37.222)">
    <rect
       style="fill:none;stroke:#000000;stroke-width:1;stroke-dasharray:none;stroke-opacity:1"
       id="rect1"
       width="139.38232"
       height="139.38232"
       x="36.211227"
       y="-179.61667"
       transform="scale(1,-1)" />
    <path
       style="fill:none;stroke:#000000;stroke-width:0.993198;stroke-dasharray:none;stroke-opacity:1"
       d="M 36.445412,179.61912 174.88606,41.178479"
       id="path1" />
    <g
       inkscape:label=""
       transform="translate(137.40149,91.12219)"
       id="g1">
      <g
         fill="#000000"
         fill-opacity="1"
         id="g4"
         transform="matrix(0.352778,0,0,0.352778,-0.940109,-0.614936)">
        <g
           id="use3"
           transform="translate(1.993,12.665)">
          <path
             d="M 6.515625,2.78125 C 5.84375,3.71875 4.875,4.5625 3.671875,4.5625 3.375,4.5625 2.1875,4.515625 1.8125,3.375 1.890625,3.390625 2,3.390625 2.0625,3.390625 2.796875,3.390625 3.296875,2.75 3.296875,2.1875 3.296875,1.609375 2.828125,1.40625 2.453125,1.40625 2.0625,1.40625 1.1875,1.703125 1.1875,2.921875 1.1875,4.1875 2.25,5.0625 3.671875,5.0625 c 2.46875,0 4.984375,-2.28125 5.671875,-5.03125 l 2.421875,-9.671875 c 0.03125,-0.125 0.07813,-0.265625 0.07813,-0.421875 0,-0.375 -0.296875,-0.625 -0.671875,-0.625 -0.21875,0 -0.734375,0.109375 -0.9375,0.84375 l -1.82813,7.296875 c -0.125,0.4375 -0.125,0.484375 -0.328125,0.765625 -0.5,0.6875 -1.3125,1.53125 -2.5,1.53125 C 4.1875,-0.25 4.0625,-1.609375 4.0625,-2.28125 c 0,-1.40625 0.671875,-3.3125 1.34375,-5.109375 0.265625,-0.71875 0.421875,-1.0625 0.421875,-1.5625 0,-1.03125 -0.75,-1.96875 -1.96875,-1.96875 -2.265625,0 -3.1875,3.59375 -3.1875,3.78125 0,0.109375 0.09375,0.234375 0.265625,0.234375 0.234375,0 0.25,-0.109375 0.34375,-0.453125 0.609375,-2.078125 1.546875,-3.078125 2.515625,-3.078125 0.21875,0 0.640625,0 0.640625,0.828125 0,0.640625 -0.28125,1.359375 -0.640625,2.296875 -1.21875,3.25 -1.21875,4.0625 -1.21875,4.65625 0,2.359375 1.6875,2.90625 2.921875,2.90625 0.71875,0 1.609375,-0.21875 2.484375,-1.140625 L 8,-0.875 C 7.625,0.59375 7.390625,1.5625 6.515625,2.78125 Z m 0,0"
             id="path6" />
        </g>
      </g>
      <g
         fill="#000000"
         fill-opacity="1"
         id="g5"
         transform="matrix(0.352778,0,0,0.352778,-0.940109,-0.614936)">
        <g
           id="use4"
           transform="translate(21.601,12.665)">
          <path
             d="m 15.9375,-7.953125 c 0.375,0 0.734375,0 0.734375,-0.421875 0,-0.453125 -0.421875,-0.453125 -0.84375,-0.453125 H 1.984375 c -0.421875,0 -0.84375,0 -0.84375,0.453125 0,0.421875 0.375,0.421875 0.75,0.421875 z m -0.109375,4.40625 c 0.421875,0 0.84375,0 0.84375,-0.4375 0,-0.421875 -0.359375,-0.421875 -0.734375,-0.421875 H 1.890625 c -0.375,0 -0.75,0 -0.75,0.421875 0,0.4375 0.421875,0.4375 0.84375,0.4375 z m 0,0"
             id="path7" />
        </g>
      </g>
      <g
         fill="#000000"
         fill-opacity="1"
         id="g6"
         transform="matrix(0.352778,0,0,0.352778,-0.940109,-0.614936)">
        <g
           id="use5"
           transform="translate(46.328999,12.665)">
          <path
             d="m 11.75,-10.109375 c -0.796875,0.140625 -1.09375,0.734375 -1.09375,1.21875 0,0.59375 0.46875,0.78125 0.8125,0.78125 0.75,0 1.265625,-0.640625 1.265625,-1.3125 0,-1.03125 -1.1875,-1.5 -2.234375,-1.5 -1.5,0 -2.34375,1.484375 -2.5625,1.953125 -0.578125,-1.859375 -2.109375,-1.953125 -2.5625,-1.953125 -2.53125,0 -3.859375,3.234375 -3.859375,3.78125 0,0.109375 0.09375,0.234375 0.265625,0.234375 0.203125,0 0.25,-0.15625 0.296875,-0.25 0.84375,-2.75 2.5,-3.28125 3.21875,-3.28125 1.125,0 1.34375,1.046875 1.34375,1.640625 C 6.640625,-8.25 6.5,-7.6875 6.1875,-6.5 l -0.828125,3.40625 c -0.375,1.484375 -1.09375,2.84375 -2.40625,2.84375 -0.125,0 -0.75,0 -1.265625,-0.3125 0.890625,-0.1875 1.09375,-0.921875 1.09375,-1.21875 0,-0.5 -0.375,-0.796875 -0.84375,-0.796875 -0.59375,0 -1.25,0.515625 -1.25,1.3125 0,1.046875 1.171875,1.515625 2.234375,1.515625 1.1875,0 2.03125,-0.9375 2.5625,-1.953125 C 5.875,-0.25 7.109375,0.25 8.03125,0.25 c 2.53125,0 3.859375,-3.25 3.859375,-3.796875 0,-0.125 -0.09375,-0.21875 -0.25,-0.21875 -0.21875,0 -0.234375,0.125 -0.3125,0.328125 -0.671875,2.171875 -2.109375,3.1875 -3.21875,3.1875 -0.875,0 -1.34375,-0.640625 -1.34375,-1.65625 0,-0.546875 0.09375,-0.9375 0.5,-2.578125 L 8.125,-7.859375 C 8.5,-9.34375 9.34375,-10.4375 10.484375,-10.4375 c 0.04687,0 0.734375,0 1.265625,0.328125 z m 0,0"
             id="path8" />
        </g>
      </g>
    </g>
    <g
       inkscape:label=""
       transform="translate(29.380293,37.222045)"
       id="g3">
      <g
         fill="#000000"
         fill-opacity="1"
         id="g2"
         transform="matrix(0.352778,0,0,0.352778,-1.46376,-0.56268)">
        <g
           id="use1"
           transform="translate(1.993,17.969999)">
          <path
             d="m 6.59375,-15.828125 c 0,-0.53125 -0.03125,-0.546875 -0.375,-0.546875 -0.96875,1.15625 -2.421875,1.53125 -3.8125,1.578125 -0.078125,0 -0.203125,0 -0.21875,0.04687 -0.03125,0.0625 -0.03125,0.109375 -0.03125,0.625 0.765625,0 2.0625,-0.15625 3.046875,-0.75 v 13.0625 c 0,0.875 -0.046875,1.171875 -2.1875,1.171875 H 2.28125 V 0 c 1.1875,-0.03125 2.421875,-0.046875 3.609375,-0.046875 1.203125,0 2.4375,0.015625 3.625,0.046875 v -0.640625 h -0.75 c -2.125,0 -2.171875,-0.28125 -2.171875,-1.171875 z m 0,0"
             id="path2" />
        </g>
      </g>
    </g>
    <g
       inkscape:label=""
       transform="translate(174.07126,183.01752)"
       id="g9">
      <g
         fill="#000000"
         fill-opacity="1"
         id="g8"
         transform="matrix(0.352778,0,0,0.352778,-1.46376,-0.56268)">
        <g
           id="g7"
           transform="translate(1.993,17.969999)">
          <path
             d="m 6.59375,-15.828125 c 0,-0.53125 -0.03125,-0.546875 -0.375,-0.546875 -0.96875,1.15625 -2.421875,1.53125 -3.8125,1.578125 -0.078125,0 -0.203125,0 -0.21875,0.04687 -0.03125,0.0625 -0.03125,0.109375 -0.03125,0.625 0.765625,0 2.0625,-0.15625 3.046875,-0.75 v 13.0625 c 0,0.875 -0.046875,1.171875 -2.1875,1.171875 H 2.28125 V 0 c 1.1875,-0.03125 2.421875,-0.046875 3.609375,-0.046875 1.203125,0 2.4375,0.015625 3.625,0.046875 v -0.640625 h -0.75 c -2.125,0 -2.171875,-0.28125 -2.171875,-1.171875 z m 0,0"
             id="path3" />
        </g>
      </g>
    </g>
    <g
       inkscape:label=""
       transform="translate(29.380293,176.16956)"
       id="g12">
      <g
         fill="#000000"
         fill-opacity="1"
         id="g11"
         transform="matrix(0.352778,0,0,0.352778,-1.03382,-0.56268)">
        <g
           id="g10"
           transform="translate(1.993,17.969999)">
          <path
             d="m 10.40625,-7.953125 c 0,-1.515625 -0.01563,-4.09375 -1.0625,-6.078125 -0.921875,-1.734375 -2.375,-2.34375 -3.671875,-2.34375 -1.1875,0 -2.703125,0.546875 -3.640625,2.328125 -0.984375,1.859375 -1.09375,4.15625 -1.09375,6.09375 0,1.40625 0.03125,3.5625 0.796875,5.453125 1.0625,2.546875 2.96875,2.890625 3.9375,2.890625 1.140625,0 2.875,-0.46875 3.890625,-2.8125 0.75,-1.71875 0.84375,-3.71875 0.84375,-5.53125 z M 5.671875,0 C 4.09375,0 3.140625,-1.359375 2.796875,-3.25 2.53125,-4.703125 2.53125,-6.84375 2.53125,-8.234375 c 0,-1.90625 0,-3.484375 0.3125,-5 0.484375,-2.109375 1.859375,-2.75 2.828125,-2.75 1.015625,0 2.328125,0.671875 2.796875,2.703125 0.328125,1.40625 0.359375,3.078125 0.359375,5.046875 0,1.625 0,3.59375 -0.296875,5.0625 C 8,-0.46875 6.546875,0 5.671875,0 Z m 0,0"
             id="path9" />
        </g>
      </g>
    </g>
    <g
       inkscape:label=""
       transform="translate(34.461045,183.23842)"
       id="g15">
      <g
         fill="#000000"
         fill-opacity="1"
         id="g14"
         transform="matrix(0.352778,0,0,0.352778,-1.03382,-0.56268)">
        <g
           id="g13"
           transform="translate(1.993,17.969999)">
          <path
             d="m 10.40625,-7.953125 c 0,-1.515625 -0.01563,-4.09375 -1.0625,-6.078125 -0.921875,-1.734375 -2.375,-2.34375 -3.671875,-2.34375 -1.1875,0 -2.703125,0.546875 -3.640625,2.328125 -0.984375,1.859375 -1.09375,4.15625 -1.09375,6.09375 0,1.40625 0.03125,3.5625 0.796875,5.453125 1.0625,2.546875 2.96875,2.890625 3.9375,2.890625 1.140625,0 2.875,-0.46875 3.890625,-2.8125 0.75,-1.71875 0.84375,-3.71875 0.84375,-5.53125 z M 5.671875,0 C 4.09375,0 3.140625,-1.359375 2.796875,-3.25 2.53125,-4.703125 2.53125,-6.84375 2.53125,-8.234375 c 0,-1.90625 0,-3.484375 0.3125,-5 0.484375,-2.109375 1.859375,-2.75 2.828125,-2.75 1.015625,0 2.328125,0.671875 2.796875,2.703125 0.328125,1.40625 0.359375,3.078125 0.359375,5.046875 0,1.625 0,3.59375 -0.296875,5.0625 C 8,-0.46875 6.546875,0 5.671875,0 Z m 0,0"
             id="path12" />
        </g>
      </g>
    </g>
    <g
       inkscape:label=""
       transform="translate(79.966913,90.017678)"
       id="g18">
      <g
         fill="#000000"
         fill-opacity="1"
         id="g17"
         transform="matrix(0.352778,0,0,0.352778,-1.14957,-0.614583)">
        <g
           id="g16"
           transform="translate(1.993,12.664)">
          <path
             d="m 5.65625,-4.953125 c 0.421875,0.078125 1.078125,0.21875 1.234375,0.25 0.328125,0.09375 1.4375,0.484375 1.4375,1.6875 C 8.328125,-2.25 7.625,-0.25 4.765625,-0.25 4.234375,-0.25 2.375,-0.328125 1.890625,-1.6875 2.875,-1.5625 3.375,-2.328125 3.375,-2.875 c 0,-0.515625 -0.359375,-0.796875 -0.84375,-0.796875 -0.546875,0 -1.265625,0.421875 -1.265625,1.546875 0,1.453125 1.484375,2.375 3.46875,2.375 3.765625,0 4.875,-2.78125 4.875,-4.0625 0,-0.375 0,-1.0625 -0.78125,-1.859375 -0.625,-0.59375 -1.21875,-0.71875 -2.5625,-1 C 5.59375,-6.8125 4.53125,-7.03125 4.53125,-8.15625 c 0,-0.5 0.453125,-2.28125 2.796875,-2.28125 1.046875,0 2.0625,0.40625 2.3125,1.296875 -1.09375,0 -1.140625,0.9375 -1.140625,0.96875 0,0.515625 0.46875,0.65625 0.6875,0.65625 0.359375,0 1.046875,-0.265625 1.046875,-1.3125 0,-1.03125 -0.9375,-2.09375 -2.875,-2.09375 -3.25,0 -4.109375,2.546875 -4.109375,3.5625 0,1.875 1.828125,2.28125 2.40625,2.40625 z m 0,0"
             id="path15" />
        </g>
      </g>
    </g>
    <circle
       style="fill:#000000;fill-opacity:1;stroke:none;stroke-width:1;stroke-dasharray:none;stroke-opacity:1"
       id="path18"
       cx="58.759991"
       cy="84.826462"
       r="1.5463157" />
    <path
       style="fill:none;fill-opacity:1;stroke:#000000;stroke-width:1;stroke-dasharray:none;stroke-opacity:1"
       d="M 58.759994,85.047359 94.877508,121.16487"
       id="path19" />
    <g
       inkscape:label=""
       transform="translate(45.330119,70.973574)"
       id="g25">
      <g
         fill="#000000"
         fill-opacity="1"
         id="g19"
         transform="matrix(0.352778,0,0,0.352778,-0.432991,-0.704673)">
        <g
           id="use7"
           transform="translate(1.993,20.559999)">
          <path
             d="m 1.0625,3.140625 c -0.171875,0.75 -0.265625,0.953125 -1.28125,0.953125 -0.296875,0 -0.546875,0 -0.546875,0.46875 0,0.046875 0.015625,0.25 0.296875,0.25 0.3125,0 0.671875,-0.046875 0.984375,-0.046875 H 1.59375 c 0.515625,0 1.78125,0.046875 2.296875,0.046875 0.15625,0 0.453125,0 0.453125,-0.453125 0,-0.265625 -0.1875,-0.265625 -0.609375,-0.265625 -1.125,0 -1.203125,-0.171875 -1.203125,-0.375 0,-0.296875 1.109375,-4.5625 1.265625,-5.125 0.265625,0.6875 0.9375,1.65625 2.21875,1.65625 2.8125,0 5.828125,-3.640625 5.828125,-7.28125 0,-2.28125 -1.28125,-3.890625 -3.140625,-3.890625 -1.59375,0 -2.921875,1.53125 -3.203125,1.875 -0.203125,-1.234375 -1.15625,-1.875 -2.15625,-1.875 -0.71875,0 -1.28125,0.34375 -1.75,1.28125 -0.453125,0.890625 -0.796875,2.40625 -0.796875,2.5 0,0.109375 0.09375,0.234375 0.265625,0.234375 0.203125,0 0.21875,-0.03125 0.375,-0.609375 0.375,-1.453125 0.84375,-2.921875 1.828125,-2.921875 0.578125,0 0.78125,0.40625 0.78125,1.140625 0,0.59375 -0.078125,0.84375 -0.1875,1.296875 z m 4.296875,-10.875 c 0.171875,-0.6875 0.859375,-1.40625 1.25,-1.75 0.28125,-0.25 1.09375,-0.953125 2.046875,-0.953125 1.078125,0 1.578125,1.09375 1.578125,2.390625 0,1.1875 -0.6875,3.984375 -1.3125,5.265625 C 8.296875,-1.4375 7.15625,-0.25 6.015625,-0.25 4.34375,-0.25 4.0625,-2.375 4.0625,-2.484375 4.0625,-2.546875 4.109375,-2.75 4.140625,-2.875 Z m 0,0"
             id="path13" />
        </g>
      </g>
      <g
         fill="#000000"
         fill-opacity="1"
         id="g20"
         transform="matrix(0.352778,0,0,0.352778,-0.432991,-0.704673)">
        <g
           id="use8"
           transform="translate(21.059,20.559999)">
          <path
             d="m 15.9375,-7.953125 c 0.375,0 0.734375,0 0.734375,-0.421875 0,-0.453125 -0.421875,-0.453125 -0.84375,-0.453125 H 1.984375 c -0.421875,0 -0.84375,0 -0.84375,0.453125 0,0.421875 0.375,0.421875 0.75,0.421875 z m -0.109375,4.40625 c 0.421875,0 0.84375,0 0.84375,-0.4375 0,-0.421875 -0.359375,-0.421875 -0.734375,-0.421875 H 1.890625 c -0.375,0 -0.75,0 -0.75,0.421875 0,0.4375 0.421875,0.4375 0.84375,0.4375 z m 0,0"
             id="path14" />
        </g>
      </g>
      <g
         fill="#000000"
         fill-opacity="1"
         id="g21"
         transform="matrix(0.352778,0,0,0.352778,-0.432991,-0.704673)">
        <g
           id="use9"
           transform="translate(45.791569,20.559999)">
          <path
             d="m 7.578125,6.046875 c 0,-0.03125 0,-0.078125 -0.0625,-0.15625 -1.140625,-1.15625 -4.1875,-4.328125 -4.1875,-12.0625 0,-7.734375 2.984375,-10.875 4.203125,-12.109375 0,-0.03125 0.046875,-0.07813 0.046875,-0.15625 0,-0.07813 -0.0625,-0.125 -0.171875,-0.125 -0.265625,0 -2.375,1.828125 -3.59375,4.5625 -1.234375,2.75 -1.578125,5.421875 -1.578125,7.8125 0,1.78125 0.171875,4.796875 1.65625,8 1.1875,2.578125 3.21875,4.375 3.515625,4.375 0.125,0 0.171875,-0.046875 0.171875,-0.140625 z m 0,0"
             id="path20" />
        </g>
      </g>
      <g
         fill="#000000"
         fill-opacity="1"
         id="g22"
         transform="matrix(0.352778,0,0,0.352778,-0.432991,-0.704673)">
        <g
           id="use10"
           transform="translate(54.564999,20.559999)">
          <path
             d="m 11.75,-10.109375 c -0.796875,0.140625 -1.09375,0.734375 -1.09375,1.21875 0,0.59375 0.46875,0.78125 0.8125,0.78125 0.75,0 1.265625,-0.640625 1.265625,-1.3125 0,-1.03125 -1.1875,-1.5 -2.234375,-1.5 -1.5,0 -2.34375,1.484375 -2.5625,1.953125 -0.578125,-1.859375 -2.109375,-1.953125 -2.5625,-1.953125 -2.53125,0 -3.859375,3.234375 -3.859375,3.78125 0,0.109375 0.09375,0.234375 0.265625,0.234375 0.203125,0 0.25,-0.15625 0.296875,-0.25 0.84375,-2.75 2.5,-3.28125 3.21875,-3.28125 1.125,0 1.34375,1.046875 1.34375,1.640625 C 6.640625,-8.25 6.5,-7.6875 6.1875,-6.5 l -0.828125,3.40625 c -0.375,1.484375 -1.09375,2.84375 -2.40625,2.84375 -0.125,0 -0.75,0 -1.265625,-0.3125 0.890625,-0.1875 1.09375,-0.921875 1.09375,-1.21875 0,-0.5 -0.375,-0.796875 -0.84375,-0.796875 -0.59375,0 -1.25,0.515625 -1.25,1.3125 0,1.046875 1.171875,1.515625 2.234375,1.515625 1.1875,0 2.03125,-0.9375 2.5625,-1.953125 C 5.875,-0.25 7.109375,0.25 8.03125,0.25 c 2.53125,0 3.859375,-3.25 3.859375,-3.796875 0,-0.125 -0.09375,-0.21875 -0.25,-0.21875 -0.21875,0 -0.234375,0.125 -0.3125,0.328125 -0.671875,2.171875 -2.109375,3.1875 -3.21875,3.1875 -0.875,0 -1.34375,-0.640625 -1.34375,-1.65625 0,-0.546875 0.09375,-0.9375 0.5,-2.578125 L 8.125,-7.859375 C 8.5,-9.34375 9.34375,-10.4375 10.484375,-10.4375 c 0.04687,0 0.734375,0 1.265625,0.328125 z m 0,0"
             id="path16" />
        </g>
        <g
           id="use11"
           transform="translate(68.356544,20.559999)">
          <path
             d="m 4.828125,0.09375 c 0,-1.4375 -0.46875,-2.5 -1.484375,-2.5 -0.796875,0 -1.1875,0.640625 -1.1875,1.1875 C 2.15625,-0.671875 2.53125,0 3.375,0 3.6875,0 3.96875,-0.09375 4.1875,-0.328125 4.234375,-0.375 4.265625,-0.375 4.28125,-0.375 c 0.0625,0 0.0625,0.34375 0.0625,0.46875 0,0.828125 -0.15625,2.4375 -1.59375,4.046875 C 2.484375,4.4375 2.484375,4.484375 2.484375,4.53125 c 0,0.125 0.125,0.25 0.234375,0.25 0.203125,0 2.109375,-1.828125 2.109375,-4.6875 z m 0,0"
             id="path17" />
        </g>
      </g>
      <g
         fill="#000000"
         fill-opacity="1"
         id="g23"
         transform="matrix(0.352778,0,0,0.352778,-0.432991,-0.704673)">
        <g
           id="use12"
           transform="translate(79.238075,20.559999)">
          <path
             d="M 6.515625,2.78125 C 5.84375,3.71875 4.875,4.5625 3.671875,4.5625 3.375,4.5625 2.1875,4.515625 1.8125,3.375 1.890625,3.390625 2,3.390625 2.0625,3.390625 2.796875,3.390625 3.296875,2.75 3.296875,2.1875 3.296875,1.609375 2.828125,1.40625 2.453125,1.40625 2.0625,1.40625 1.1875,1.703125 1.1875,2.921875 1.1875,4.1875 2.25,5.0625 3.671875,5.0625 c 2.46875,0 4.984375,-2.28125 5.671875,-5.03125 l 2.421875,-9.671875 c 0.03125,-0.125 0.07813,-0.265625 0.07813,-0.421875 0,-0.375 -0.296875,-0.625 -0.671875,-0.625 -0.21875,0 -0.734375,0.109375 -0.9375,0.84375 l -1.82813,7.296875 c -0.125,0.4375 -0.125,0.484375 -0.328125,0.765625 -0.5,0.6875 -1.3125,1.53125 -2.5,1.53125 C 4.1875,-0.25 4.0625,-1.609375 4.0625,-2.28125 c 0,-1.40625 0.671875,-3.3125 1.34375,-5.109375 0.265625,-0.71875 0.421875,-1.0625 0.421875,-1.5625 0,-1.03125 -0.75,-1.96875 -1.96875,-1.96875 -2.265625,0 -3.1875,3.59375 -3.1875,3.78125 0,0.109375 0.09375,0.234375 0.265625,0.234375 0.234375,0 0.25,-0.109375 0.34375,-0.453125 0.609375,-2.078125 1.546875,-3.078125 2.515625,-3.078125 0.21875,0 0.640625,0 0.640625,0.828125 0,0.640625 -0.28125,1.359375 -0.640625,2.296875 -1.21875,3.25 -1.21875,4.0625 -1.21875,4.65625 0,2.359375 1.6875,2.90625 2.921875,2.90625 0.71875,0 1.609375,-0.21875 2.484375,-1.140625 L 8,-0.875 C 7.625,0.59375 7.390625,1.5625 6.515625,2.78125 Z m 0,0"
             id="path22" />
        </g>
      </g>
      <g
         fill="#000000"
         fill-opacity="1"
         id="g24"
         transform="matrix(0.352778,0,0,0.352778,-0.432991,-0.704673)">
        <g
           id="use13"
           transform="translate(91.953003,20.559999)">
          <path
             d="m 6.515625,-6.171875 c 0,-1.78125 -0.171875,-4.8125 -1.65625,-8 C 3.671875,-16.75 1.640625,-18.5625 1.34375,-18.5625 c -0.078125,0 -0.171875,0.03125 -0.171875,0.15625 0,0.04687 0.015625,0.0625 0.046875,0.125 1.1875,1.234375 4.203125,4.375 4.203125,12.09375 0,7.71875 -3,10.875 -4.203125,12.109375 C 1.1875,5.96875 1.171875,6 1.171875,6.046875 c 0,0.125 0.09375,0.140625 0.171875,0.140625 0.265625,0 2.375,-1.828125 3.59375,-4.546875 1.234375,-2.75 1.578125,-5.4375 1.578125,-7.8125 z m 0,0"
             id="path23" />
        </g>
      </g>
    </g>
  </g>
</svg>
