<?xml version="1.0" encoding="UTF-8"?>
<svg xmlns="http://www.w3.org/2000/svg" viewBox="0 0 163.53 108.61">
  <defs>
    <style>
      .cls-1 {
        isolation: isolate;
      }

      .cls-2 {
        stroke: #000;
      }

      .cls-2, .cls-3, .cls-4, .cls-5, .cls-6, .cls-7 {
        fill: none;
        stroke-linecap: round;
        stroke-linejoin: round;
      }

      .cls-2, .cls-5, .cls-6, .cls-7 {
        stroke-width: .99px;
      }

      .cls-3 {
        mix-blend-mode: multiply;
        opacity: .5;
        stroke: #9fecec;
        stroke-width: 2.83px;
      }

      .cls-4 {
        stroke-width: .94px;
      }

      .cls-4, .cls-5 {
        stroke: #4dc1db;
      }

      .cls-6 {
        stroke: #f59a23;
      }

      .cls-7 {
        stroke: #7ec636;
      }
    </style>
  </defs>
  <g class="cls-1">
    <g id="Layer_2" data-name="Layer 2">
      <g id="Layer_1-2" data-name="Layer 1">
        <g>
          <path class="cls-6" d="M53.6,63.33c.17.05.27.04.31-.03.02-.05-.04-.08-.2-.09-.16-.01-.28-.01-.36,0-.08.01-.2.07-.38.16-.17.09-.3.17-.39.23-.09.06-.16.12-.23.19-.07.07-.12.14-.17.22-.05.08-.09.16-.12.25-.03.09-.05.18-.05.26,0,.08,0,.16.03.24.02.08.07.15.14.23.07.08.26.21.59.41.32.2.54.32.63.38.1.06.18.13.25.21.07.08.12.15.16.22.04.07.06.16.05.27,0,.11-.03.19-.08.23-.05.04-.16.08-.33.11-.17.03-.35.04-.55.04-.2,0-.38-.04-.53-.1-.15-.06-.26-.11-.31-.15-.08-.06-.11-.11-.09-.17"/>
          <path class="cls-6" d="M55.51,63.7c-.12-.06-.19-.11-.21-.14-.02-.02-.03-.04-.03-.04,0,0,0,.03,0,.12,0,.08,0,.25,0,.5,0,.25.01.57.04.96.03.39.08.74.14,1.05.06.31.11.52.15.61.04.1.08.17.14.22.06.05.11.02.15-.09.04-.11.08-.29.11-.56.03-.26.06-.46.08-.59.02-.13.05-.26.09-.39.04-.13.08-.25.13-.38.05-.12.11-.24.17-.34.06-.1.13-.19.19-.27s.14-.15.21-.22c.07-.07.16-.11.26-.14s.16,0,.16.08c0,.08-.04.18-.13.29-.09.12-.24.29-.46.5-.22.22-.37.37-.45.47-.08.1-.14.2-.17.29-.04.1-.05.16-.05.21,0,.04.05.11.16.2.11.09.38.22.8.39.43.17.69.26.78.29.1.03.18.04.25.05.11.01.18,0,.2-.03"/>
          <path class="cls-6" d="M58.51,65.26c-.06,0-.1-.01-.1-.01,0,0,0,0,.03,0s.22,0,.6,0c.38,0,.61,0,.69,0s.19-.03.32-.08c.13-.05.21-.11.24-.17.04-.07.04-.14.01-.22-.03-.08-.07-.14-.14-.18-.06-.04-.14-.07-.23-.1-.09-.03-.23-.04-.42-.04-.19,0-.34.02-.45.06-.11.04-.2.1-.29.17-.09.07-.17.15-.26.24-.08.09-.15.19-.21.3-.06.11-.11.22-.13.34-.03.12-.04.24-.05.36,0,.12.02.24.07.35.05.12.12.22.22.31.1.09.22.16.36.22.14.06.29.1.46.12.17.03.34.04.51.04.25,0,.52-.03.81-.11"/>
          <path class="cls-6" d="M61.59,64.89c-.06.15-.09.49-.1,1.01,0,.32,0,.52,0,.61.01.09.04.16.08.22.04.06.12.1.25.14.12.03.22.05.29.05.07,0,.18-.06.32-.17.14-.11.27-.26.38-.45.11-.19.19-.34.24-.45.05-.11.1-.27.16-.47.06-.2.09-.36.11-.48.01-.12.02-.17.01-.14,0,.03-.03.1-.06.21-.03.11-.05.32-.05.61,0,.3,0,.49.03.59.02.1.05.19.09.28.04.09.09.17.14.25.06.08.12.15.19.21.07.06.15.11.24.14.09.03.18.05.27.06s.19,0,.28-.03c.09-.03.18-.09.26-.17.08-.09.15-.19.22-.31.06-.12.12-.25.16-.39.04-.14.07-.28.08-.41.02-.14.02-.27.03-.39,0-.12,0-.23-.02-.34-.01-.1-.07-.2-.16-.29-.09-.09-.18-.14-.26-.15-.09-.01-.14,0-.18.06"/>
          <path class="cls-6" d="M66.64,65.55c-.06.1-.09.18-.09.25,0,.05.04.09.12.13.08.03.26.05.53.05.27,0,.45-.02.53-.06s.16-.09.24-.15c.08-.06.14-.13.18-.2.04-.07.08-.19.1-.34.03-.16.03-.27.03-.34,0-.07-.04-.14-.09-.21-.05-.07-.12-.13-.19-.18-.08-.06-.16-.1-.24-.12-.09-.02-.18-.04-.27-.04-.09,0-.19.02-.29.06-.1.04-.19.1-.29.19-.09.09-.18.19-.25.31-.08.12-.15.25-.22.39-.07.15-.12.3-.15.45-.03.16-.05.32-.05.48,0,.16.01.33.05.49.04.17.11.32.21.44.1.13.22.23.36.32.14.09.29.17.45.23.17.07.33.11.49.12.24.02.5,0,.77-.05"/>
          <path class="cls-6" d="M71.8,65.27c.13.04.21,0,.25-.14.03-.1,0-.18-.06-.24-.07-.06-.17-.11-.33-.14-.15-.03-.32-.05-.51-.04-.19,0-.33.02-.42.07-.09.04-.18.1-.26.16-.08.07-.16.14-.22.22-.06.08-.11.17-.15.27-.04.1-.06.2-.08.31-.01.11-.02.21-.01.32,0,.11.04.21.11.31.07.1.15.19.25.26.1.07.2.13.32.16.12.03.24.05.37.05.13,0,.26-.01.4-.05.14-.04.26-.1.38-.2.12-.09.23-.2.32-.33.1-.13.19-.27.27-.42.08-.15.15-.31.19-.47.05-.16.09-.33.11-.51.03-.18.05-.37.06-.58.01-.21.02-.43.02-.66,0-.23,0-.44-.03-.65-.02-.21-.04-.39-.07-.54-.03-.15-.06-.25-.09-.31-.03-.05-.07-.08-.1-.09-.04,0-.08.02-.12.07-.04.05-.09.14-.13.27-.04.12-.08.27-.12.44-.04.17-.07.35-.09.53-.02.19-.03.49-.04.91,0,.42,0,.74.02.95.02.21.06.42.13.62.07.2.16.4.27.58.11.18.24.33.39.43.15.11.3.18.47.21.26.05.46.06.59.02"/>
          <path class="cls-6" d="M78.04,65.63c-.09.19-.14.43-.15.73v.37s-.02-.02-.02-.02c0-.07,0-.24-.01-.5,0-.27,0-.48,0-.62,0-.15.03-.29.06-.44.03-.15.09-.35.19-.61.1-.26.17-.43.23-.51.06-.08.12-.15.18-.19.06-.05.12-.08.18-.09.06-.01.11-.01.17.01.05.02.16.18.31.47.15.29.29.53.43.73.14.2.25.34.33.43.08.08.17.17.28.25.1.08.21.15.32.2.11.05.23.08.35.11.12.02.25.04.38.04.13,0,.25,0,.36-.04.11-.03.21-.09.29-.17.09-.08.16-.17.23-.26.07-.1.11-.2.14-.3.03-.1.04-.21.05-.31,0-.1,0-.21,0-.31-.01-.1-.04-.2-.1-.28-.05-.08-.12-.15-.19-.22-.08-.06-.16-.11-.24-.15-.09-.04-.17-.06-.26-.06-.09,0-.17,0-.26.02-.09.02-.18.06-.27.11-.09.06-.17.13-.25.21s-.15.17-.22.27c-.07.1-.13.21-.19.33-.06.12-.11.25-.15.4-.04.14-.06.39-.08.74-.01.35.01.6.08.77.07.16.16.31.28.45.12.14.27.25.45.35.18.1.36.16.55.19.28.04.6.02.96-.08"/>
          <path class="cls-6" d="M85.33,64.93c.05-.12,0-.19-.15-.19-.15,0-.26,0-.33.02-.08.01-.2.08-.37.19-.17.11-.3.21-.39.3-.09.09-.16.19-.23.3s-.11.23-.15.35c-.03.12-.05.25-.06.38,0,.13.01.25.06.36.05.11.13.2.25.28.12.08.27.13.44.17.17.04.35.06.55.06.19,0,.39,0,.6-.04.31-.04.62-.14.95-.29"/>
          <path class="cls-6" d="M87.64,63.12c-.21-.13-.31-.05-.32.26,0,.23.03.53.11.9.07.37.13.68.17.93.04.25.09.57.15.97.06.4.11.67.14.8.04.13.07.23.1.28.03.05.07.1.11.14"/>
          <path class="cls-6" d="M86.59,64.46c-.15-.02-.24-.03-.26-.03h-.01s.01,0,.01,0c.02,0,.07.01.15.03.09.02.46.03,1.11.03.65,0,1.24.02,1.76.05"/>
          <path class="cls-6" d="M92.25,64.8c.15-.08.17-.15.06-.2-.08-.04-.23-.06-.46-.07-.22,0-.38,0-.48.03-.09.03-.19.07-.3.12-.1.05-.21.12-.31.2-.11.08-.21.17-.29.27-.09.1-.17.2-.23.32-.06.11-.12.23-.16.35-.04.12-.07.23-.08.34,0,.11,0,.2.02.28.02.08.07.15.14.21.07.06.15.1.25.13.1.02.26.04.48.04.22,0,.38-.01.49-.05.1-.04.25-.12.44-.26.19-.13.33-.24.4-.32.08-.08.17-.21.28-.39.11-.18.18-.35.22-.52.04-.17.06-.29.06-.37,0-.08,0-.14-.02-.19s-.07-.08-.15-.09c-.09-.02-.15-.01-.19.02-.04.03-.09.13-.14.29-.05.16-.07.35-.08.56,0,.21.01.37.04.49.03.11.07.23.12.34.05.11.11.22.19.32.08.11.16.22.27.32.1.11.21.19.32.26.11.06.24.11.36.13.13.02.26.04.41.04.21,0,.42-.09.6-.29"/>
          <path class="cls-6" d="M94.9,65.07c-.13.02-.24.13-.33.35-.06.14-.1.33-.12.57-.02.24-.03.46-.02.67,0,.21.03.36.06.44.04.08.1.01.19-.21.09-.22.18-.47.27-.75.09-.28.18-.5.25-.65s.15-.29.23-.42c.08-.13.17-.24.26-.35.1-.11.2-.2.31-.28.11-.08.22-.12.32-.14.1-.01.19,0,.28.02.08.03.16.09.22.2.06.11.11.24.13.39.03.16.05.42.07.78.02.36.02.73.02,1.12,0,.38.02.61.05.67"/>
          <path class="cls-6" d="M99.99,65.02c.08-.31-.02-.47-.3-.48-.2,0-.35.02-.45.08-.1.06-.21.14-.32.23-.11.09-.21.19-.3.3-.09.11-.16.22-.22.33-.06.11-.1.23-.12.36-.02.12-.03.24-.03.34s.02.2.08.28c.06.08.13.16.22.24.09.08.19.14.3.18.11.04.28.07.52.09.24.02.41.02.53,0,.11-.01.22-.05.33-.11.1-.06.21-.14.31-.22.1-.09.18-.18.25-.28.07-.1.14-.25.2-.45.07-.2.11-.39.12-.55.01-.17,0-.23-.04-.2-.04.03-.08.16-.12.38-.04.22-.07.52-.1.92-.03.4-.05.85-.07,1.37-.02.52-.04.91-.06,1.16-.02.26-.03.48-.05.67-.02.19-.04.34-.07.47-.02.13-.06.23-.11.3-.05.08-.12.12-.2.13-.08.01-.19,0-.32-.05-.13-.04-.29-.11-.46-.2-.18-.09-.36-.19-.56-.31-.19-.12-.46-.29-.8-.53-.34-.24-.56-.4-.66-.49-.1-.09-.17-.17-.22-.24-.07-.1-.09-.21-.07-.34"/>
          <path class="cls-6" d="M102.44,62.82c-.14-.03-.21.04-.21.22,0,.18.02.44.07.8.05.35.1.65.14.88.04.24.09.59.16,1.07.06.47.11.8.15.98.04.18.08.34.12.49.06.22.15.36.25.43"/>
          <path class="cls-6" d="M104.74,65.33c-.13.06-.2.14-.23.22-.02.06.03.1.15.14.12.04.29.06.53.06s.41,0,.52-.04c.11-.03.22-.07.33-.12.1-.05.2-.11.27-.18.08-.07.14-.15.18-.23.05-.08.08-.17.1-.27.02-.09.03-.19.03-.28,0-.09-.03-.18-.09-.27s-.15-.17-.26-.24c-.11-.07-.23-.11-.37-.13-.14-.02-.28-.02-.43-.02-.15,0-.3.05-.44.13-.15.08-.28.18-.39.3-.11.12-.21.27-.3.44-.08.17-.15.36-.2.57-.05.21-.07.42-.08.63,0,.21.05.41.16.6.11.19.27.36.48.51.21.15.46.24.73.29.28.04.57.05.89.02.49-.05.82-.17,1.01-.35"/>
          <path class="cls-6" d="M52.84,71.84c.03-.06.04-.09.04-.09h0s0,.01,0,.01c0,.01-.02.06-.06.16-.04.1-.17.35-.39.74-.22.39-.36.64-.42.75-.06.11-.1.21-.14.3-.05.14-.1.27-.14.39"/>
          <path class="cls-6" d="M54.21,72.72c-.12.42-.26.87-.43,1.34-.11.31-.19.55-.23.71-.04.16-.07.28-.1.36"/>
          <path class="cls-6" d="M55.61,73.69c-.13-.1-.21-.16-.23-.17-.01,0-.02,0,0,0,0,.02.03.06.08.14.04.08.11.24.19.47.09.23.18.49.27.77.1.28.17.49.22.62.05.13.11.24.17.33.06.09.12.17.19.23.07.06.13.1.2.11.07.01.13,0,.2-.04.07-.04.13-.11.19-.21.06-.1.12-.21.16-.34.04-.13.09-.34.14-.64.05-.3.09-.58.1-.85s.02-.53.02-.78c0-.25,0-.38,0-.4h0s0,0,0,0c0,0,0,0,0,0,0,0,.02.02.04.1"/>
          <path class="cls-6" d="M59.68,74.06c-.08-.16-.19-.24-.3-.25-.08,0-.17.04-.27.14-.1.1-.21.25-.33.44-.12.19-.2.35-.24.46-.04.11-.08.23-.1.35-.02.12-.04.23-.04.35,0,.12,0,.23.02.32.02.09.06.18.13.25.07.07.15.12.26.16.1.04.21.06.33.07.12,0,.24,0,.38-.04.13-.04.26-.1.4-.18.13-.09.25-.19.36-.3s.19-.24.26-.37c.07-.13.13-.26.17-.38.04-.13.07-.24.08-.34,0-.1,0-.18,0-.26-.01-.07-.04-.13-.1-.18-.05-.05-.19-.09-.41-.13-.22-.04-.37-.08-.45-.13"/>
          <path class="cls-6" d="M62.68,72.34c-.2-.07-.3.04-.3.32,0,.28.03.73.07,1.33.04.6.07,1.01.1,1.21s.05.39.08.56c.03.17.07.32.1.45s.07.23.11.29c.05.1.11.14.19.15"/>
          <path class="cls-6" d="M61.59,74.32c-.06-.03-.09-.04-.1-.04,0,0,0,0,.03,0s.13.01.32.03.46.03.83.04c.36.01.76.02,1.19.02.43,0,.76-.02.99-.06"/>
          <path class="cls-6" d="M65.64,74.57c.13.07.37.1.72.08.22-.01.4-.04.52-.09.12-.05.24-.1.34-.15.11-.06.19-.11.26-.17.07-.06.12-.14.15-.25.03-.11.03-.18,0-.21s-.15-.05-.34-.06c-.19-.01-.35,0-.47.01-.12.02-.3.09-.54.21-.24.12-.41.23-.51.31-.09.09-.18.18-.26.28-.08.1-.14.21-.19.32-.05.12-.09.24-.1.36-.01.12-.01.23,0,.34.01.11.06.21.15.31.08.1.18.18.3.24.12.06.26.11.41.15.15.04.31.07.48.1.17.03.42.04.74.05.51.01.83-.04.97-.15"/>
          <path class="cls-6" d="M70.29,73.82c-.26-.16-.48-.24-.65-.23-.12,0-.21.04-.29.1-.08.06-.13.15-.16.28-.03.13.07.28.28.47.22.19.38.33.48.42.1.09.2.19.3.3.1.11.18.22.27.33.08.12.15.24.21.36.06.13.1.29.13.5.03.2.03.34.02.41-.01.07-.05.11-.12.13-.07.02-.16.02-.27.02-.11,0-.24-.04-.38-.1-.14-.06-.28-.14-.43-.23-.14-.09-.28-.18-.41-.28-.19-.15-.37-.3-.53-.46"/>
          <path class="cls-6" d="M72.29,72.26s-.06-.04-.06-.04c0,0,0,0,0,.01,0,0,.06.07.15.18.09.11.19.26.31.44s.22.36.3.53c.08.17.17.34.27.5"/>
          <path class="cls-6" d="M74.69,72.04c-.1.01-.19.04-.26.09-.05.03-.09.12-.12.27-.03.14-.04.27-.02.37.02.1.1.26.25.47.24.36.41.55.51.58"/>
          <path class="cls-6" d="M81.49,72.94c.05-.23.02-.38-.1-.43-.08-.04-.18-.06-.32-.06-.13,0-.24.01-.33.04-.09.03-.19.08-.29.14-.1.07-.2.15-.31.24-.1.09-.2.2-.29.33-.09.13-.17.28-.25.45-.08.17-.13.36-.18.56-.04.2-.07.41-.08.64-.01.22-.02.45-.02.68,0,.23.02.42.05.59.03.16.08.31.13.42.05.12.1.21.15.29.07.12.13.17.17.17"/>
          <path class="cls-6" d="M79.05,75.12c-.11-.09-.07-.14.11-.15.18,0,.41-.01.7-.01.29,0,.61.01.97.03.36.02.67.06.93.11"/>
          <path class="cls-6" d="M83.76,75.1c.03-.13,0-.28-.07-.45-.05-.11-.11-.18-.17-.2-.06-.02-.18.04-.36.17-.18.13-.34.27-.5.43-.15.16-.26.28-.31.37-.06.09-.1.19-.14.29-.04.1-.06.26-.07.46-.01.2.01.35.07.44.06.09.13.17.22.25.09.07.19.13.3.17.11.04.29.07.53.08.24.01.42,0,.55-.05.12-.05.24-.12.36-.21.12-.09.24-.2.36-.32s.22-.24.3-.37c.08-.13.15-.26.2-.4.05-.14.08-.27.1-.41.02-.14.02-.26,0-.37-.01-.11-.05-.2-.12-.27-.07-.07-.15-.12-.24-.15-.09-.03-.17-.05-.25-.05-.11,0-.22.06-.32.19"/>
          <path class="cls-6" d="M86.08,76.19c.03.32.05.49.05.51,0,.01,0,0,0-.02,0-.03,0-.2,0-.51,0-.31,0-.53.02-.66,0-.13.03-.25.07-.37.04-.12.08-.22.13-.32.05-.09.12-.18.2-.26.08-.08.17-.15.27-.21.1-.06.21-.11.32-.14.16-.04.35-.07.56-.07"/>
          <path class="cls-6" d="M93.35,75.93c-.04.42-.06,1.05-.06,1.89,0,.85,0,1.29,0,1.34v.05s0,0,0,0v-.44c0-.28,0-.59-.02-.94-.02-.35-.03-.72-.03-1.1,0-.39,0-.67,0-.86,0-.19.04-.37.1-.55.06-.18.14-.35.23-.51.09-.16.19-.29.31-.4.11-.11.23-.19.35-.24.12-.05.24-.09.36-.1.12-.02.22-.02.32,0,.09.02.18.05.27.11.09.06.16.12.22.2.06.07.13.21.21.41.08.2.12.43.12.67,0,.24-.03.43-.08.57-.05.14-.12.26-.19.39-.08.12-.16.24-.26.34s-.2.2-.31.29c-.11.09-.2.15-.29.19-.09.04-.17.06-.24.06-.07,0-.14-.01-.21-.05-.07-.04-.12-.1-.15-.19-.03-.09-.05-.19-.07-.29-.02-.15-.02-.32,0-.51"/>
          <path class="cls-6" d="M96.88,75.53c-.12.07-.19.19-.22.37-.02.12-.04.29-.06.52-.02.23-.02.35-.03.36h0s0,.01,0,.01c0,0,0-.06,0-.17,0-.11.04-.27.1-.48.06-.21.14-.42.23-.65.09-.22.2-.43.31-.61.11-.19.2-.32.26-.4.07-.08.13-.15.2-.2.07-.05.16-.1.29-.14.13-.04.22-.06.27-.05.05,0,.12.06.2.17.08.11.14.22.18.33.04.11.09.23.16.34.07.12.1.22.11.33,0,.1,0,.2-.02.29-.02.09-.03.23-.03.41,0,.18.03.35.08.5s.11.29.19.4c.07.12.13.18.17.2.06.03.12.03.17.02"/>
          <path class="cls-6" d="M99.68,73.87c-.29,0-.45.01-.47.04"/>
          <path class="cls-6" d="M100.9,75.06c.01.79.03,1.3.06,1.52.02.15.05.26.1.3.05.05.1.05.14.02.05-.04.18-.23.39-.59.22-.36.37-.61.46-.76.09-.15.19-.28.29-.41.1-.12.2-.24.31-.34.11-.1.21-.19.32-.26.11-.07.21-.12.3-.15.09-.03.18-.05.26-.05.08,0,.16.02.23.06.07.04.13.11.18.21.04.1.08.21.1.33.02.12.03.31.04.57,0,.26,0,.45,0,.57,0,.12-.02.23-.04.33-.02.11-.03.21-.04.31,0,.1,0,.17.01.2"/>
          <path class="cls-6" d="M106.76,74.77c.02-.08-.04-.14-.18-.18-.1-.03-.19-.04-.29-.05-.09,0-.17,0-.24.03-.07.02-.18.09-.33.2-.15.12-.26.22-.32.31-.07.09-.12.18-.17.28s-.07.26-.09.47c-.01.22,0,.38.06.48.05.1.13.19.22.27.09.08.2.15.31.2.11.05.23.08.36.1.13.02.26.03.4.03.14,0,.27-.01.4-.04.13-.03.25-.08.37-.16.12-.07.24-.16.36-.26.12-.1.23-.2.32-.3.09-.1.2-.25.33-.44.13-.19.22-.35.26-.49.04-.14.06-.24.06-.31,0-.07-.07-.12-.19-.13-.12-.02-.23.01-.3.09-.08.08-.13.19-.16.32-.03.13-.05.29-.06.48,0,.19,0,.33,0,.42.01.1.05.19.1.28s.13.18.21.27c.08.09.18.17.28.23.1.06.21.11.33.13.12.03.24.04.37.05.19,0,.38-.07.58-.21"/>
          <path class="cls-6" d="M109.56,73.27c-.3.02-.49.05-.59.09-.07.02-.11.05-.13.08-.03.05-.05.09-.06.14"/>
          <path class="cls-6" d="M110.28,76.09c.15,0,.24.09.3.25.05.16.09.3.11.43.02.13.04.36.06.7.02.34.02.63.02.87,0,.25-.02.4-.05.46-.03.06-.04.1-.05.12s-.02,0-.02-.07c0-.07,0-.19,0-.36,0-.17,0-.34.01-.5.01-.16.05-.42.11-.78.06-.36.11-.64.16-.85.04-.21.09-.41.14-.61.05-.2.12-.38.19-.56.08-.18.16-.35.27-.5.1-.15.21-.27.31-.34.11-.07.21-.12.32-.14.1-.02.21-.02.31,0,.1.01.18.06.25.15.07.08.13.18.19.3.05.12.1.24.15.37.04.13.07.26.09.39.02.13.02.26.03.38,0,.12-.01.25-.04.37-.03.12-.07.23-.13.32-.06.09-.14.18-.23.26-.09.08-.18.15-.29.21-.11.06-.21.11-.32.14-.11.03-.26.05-.45.05-.19,0-.32-.01-.38-.06-.06-.05-.1-.1-.14-.17-.05-.1-.1-.2-.13-.28"/>
          <path class="cls-6" d="M116.17,75.23c.04-.24,0-.37-.12-.39-.09-.02-.2-.03-.34-.03-.14,0-.31.04-.49.12s-.33.16-.43.22c-.1.07-.18.15-.25.23-.07.08-.12.17-.16.26-.04.09-.07.19-.08.3-.02.11-.02.21-.02.31,0,.1.03.2.09.29.06.1.13.18.21.26.08.08.17.14.27.19.09.04.25.07.47.08.22,0,.38-.02.49-.08.11-.06.22-.14.32-.23.1-.09.21-.19.31-.3s.22-.27.37-.47.25-.38.31-.51c.06-.14.09-.23.09-.28,0-.05-.05-.06-.13-.04s-.15.06-.19.11c-.05.05-.09.16-.14.31-.05.15-.07.32-.07.51,0,.19.03.33.09.43.06.1.13.2.22.3.09.1.19.18.3.25.11.07.23.12.37.16.13.04.28.06.44.07.16,0,.32-.02.47-.08.16-.06.31-.15.47-.28.16-.13.31-.27.46-.44.15-.17.28-.33.39-.51.11-.17.21-.35.3-.54.09-.19.17-.39.23-.6.06-.21.11-.42.14-.65.03-.22.05-.46.06-.7.01-.25.02-.5.02-.75,0-.25,0-.46-.02-.62-.01-.16-.04-.28-.08-.35-.04-.08-.08-.12-.13-.12-.05,0-.13.07-.26.24-.13.17-.22.32-.28.46-.06.14-.1.29-.14.46-.04.17-.06.36-.07.58-.01.22-.02.44-.02.66,0,.22,0,.44.03.67.02.23.06.46.13.7.07.24.16.45.29.65.12.19.26.36.43.5.16.14.33.25.51.32.27.11.51.11.72.01"/>
          <path class="cls-6" d="M53.35,82.15c.03-.11-.03-.26-.17-.44-.09-.12-.19-.21-.29-.26-.1-.05-.23-.07-.38-.06-.15,0-.27.05-.36.12-.09.07-.17.15-.25.24-.08.09-.14.2-.2.32-.06.12-.1.24-.14.36-.04.12-.05.3-.05.52,0,.23.03.39.08.48.05.1.12.18.2.25.08.07.17.13.27.17.1.04.2.08.31.11.11.03.21.04.31.04.1,0,.2,0,.31-.02s.21-.06.32-.13c.11-.07.2-.15.29-.25.09-.1.16-.2.22-.32.06-.12.12-.25.17-.38.05-.13.09-.27.11-.4.02-.13.03-.32.04-.58,0-.26,0-.43-.01-.53-.01-.1-.05-.19-.1-.27-.05-.09-.1-.1-.14-.04-.04.06-.07.14-.08.24-.02.1-.02.36-.02.76,0,.4.02.67.06.79.04.13.09.25.15.36.06.12.15.22.25.32.15.14.34.25.58.32"/>
          <path class="cls-6" d="M58.23,81.45c.01-.09-.02-.13-.09-.14-.05,0-.15.09-.3.27-.15.19-.36.47-.65.84-.28.37-.51.69-.7.95s-.29.42-.34.46"/>
          <path class="cls-6" d="M56.4,81.01c-.15.02-.25.09-.3.2-.03.07-.05.14-.05.22,0,.07.02.16.06.25.04.1.11.2.2.32.09.12.21.25.34.38.14.14.28.28.43.41.15.13.31.26.47.39.16.13.33.24.5.36.17.11.34.21.49.28s.3.12.43.15c.14.03.27.05.38.06.12,0,.21,0,.28,0,.07,0,.15-.07.23-.19s.15-.27.19-.44c.05-.17.09-.35.13-.52.04-.18.06-.38.07-.61.01-.23,0-.34-.06-.34-.05,0-.09.07-.13.21-.04.14-.06.36-.07.66-.01.3,0,.51.02.62.03.11.07.22.12.32.05.11.12.2.2.29.08.08.17.16.27.21.1.06.2.1.3.12.1.03.2.03.3.02.14-.01.24-.07.3-.17"/>
          <path class="cls-6" d="M61.04,80.5c-.24.08-.38.14-.44.18-.04.03-.06.06-.07.1,0,.05.03.09.11.11"/>
          <path class="cls-6" d="M64.25,81.73c-.17-.1-.37-.18-.59-.25-.14-.04-.28-.07-.42-.07-.14,0-.22.06-.24.19-.02.13-.02.22-.01.28.01.06.06.16.16.31.09.14.28.35.55.63.27.28.43.45.47.52.05.07.08.17.11.3.03.13.02.24-.02.32-.04.08-.11.14-.21.2-.1.06-.22.1-.36.14s-.29.06-.46.07c-.16.01-.32.01-.48,0-.15-.01-.29-.04-.4-.1-.17-.08-.28-.2-.35-.36"/>
          <path class="cls-7" d="M.89,10.71c.02-.18.02-.27.03-.27h0s0,.01,0,.01c0,.01,0,.14,0,.37,0,.23-.02.66-.05,1.27-.03.62-.05,1.19-.05,1.73,0,.54,0,.85.04.94.03.09.11.15.24.18.13.03.24.04.33.02s.23-.07.43-.16c.2-.09.39-.16.58-.22.19-.06.36-.09.51-.09.15,0,.24,0,.27,0,.04.01.08.04.11.08"/>
          <path class="cls-7" d="M4.29,13.33c-.22-.02-.33,0-.34.06,0,.04.04.08.13.12.1.04.23.08.41.1.18.03.35.04.51.05.16,0,.3-.01.41-.05.11-.04.19-.08.23-.13.05-.05.09-.14.12-.27.03-.13.04-.27.03-.43-.01-.16-.08-.32-.19-.49-.11-.17-.21-.27-.28-.32-.07-.05-.2-.09-.36-.11-.17-.02-.29-.01-.37.03-.08.04-.16.12-.23.21-.08.1-.14.22-.21.35-.06.14-.11.28-.15.43-.04.15-.07.31-.09.47-.02.16-.03.41-.02.74,0,.33.04.56.12.68.07.12.16.23.28.33.11.09.24.16.37.18s.28.04.43.05c.22,0,.47-.06.72-.19"/>
          <path class="cls-7" d="M8.59,11.54c0-.14-.06-.31-.19-.53-.08-.14-.16-.24-.22-.32-.06-.07-.13-.14-.2-.19-.07-.05-.14-.09-.22-.11-.07-.02-.15-.04-.23-.04-.08,0-.15.02-.22.06-.07.04-.13.12-.18.22-.06.1-.1.22-.14.36-.04.14-.06.4-.08.78-.01.38-.02.69-.01.93,0,.24.03.47.07.69.04.22.09.42.15.6.06.18.12.34.19.48.07.14.13.25.19.32.06.07.14.13.24.16.1.03.16.04.17.02.03-.03.05-.07.07-.15"/>
          <path class="cls-7" d="M6.89,13.06c-.09-.05-.15-.09-.17-.1-.01,0,.29-.01.91-.01h.53s-.3,0-.3,0h-.29s1.49.04,1.49.04"/>
          <path class="cls-7" d="M11.03,10.89c-.22-.06-.34,0-.37.18-.02.13-.03.25-.03.37,0,.12.01.26.03.43.02.17.11.65.26,1.45.15.8.25,1.3.29,1.49s.08.33.11.39"/>
          <path class="cls-7" d="M9.97,12.78c-.1,0-.17,0-.2.01-.02,0-.01,0,.02.02.04.01.11.03.2.05.1.03.23.04.41.05.18,0,.51.01.98.01.78,0,1.29-.02,1.52-.08"/>
          <path class="cls-7" d="M18.27,10.91c-.04-.15-.07-.23-.07-.25,0-.01,0,0,0,.05,0,.05,0,.21-.02.5,0,.28-.02.63-.02,1.04,0,.41-.02.81-.04,1.19-.02.38-.05.73-.08,1.05-.03.32-.06.5-.09.56"/>
          <path class="cls-7" d="M17.43,12.92c.16-.07.48-.11.95-.12.47,0,.8,0,.99.04.19.03.36.08.51.13.23.08.44.19.63.33"/>
          <path class="cls-7" d="M20.71,13.93c-.06.35-.1.62-.12.82-.02.13-.04.22-.06.26-.02.04-.05.02-.08-.05-.03-.08-.05-.21-.05-.41,0-.2,0-.37.02-.5.02-.13.04-.27.08-.41.04-.14.08-.28.14-.42.05-.14.11-.26.16-.35.05-.1.14-.2.25-.31.12-.11.23-.17.35-.17.12,0,.39.14.8.44.41.29.69.5.82.61.13.11.22.18.26.2.04.02.07-.08.07-.3,0-.23,0-.34-.04-.35-.03,0-.08.08-.15.25-.07.17-.12.35-.16.53-.03.18-.05.38-.05.6,0,.22,0,.38.03.49.02.1.06.21.11.31.06.1.12.18.2.24.07.06.16.1.26.12.15.03.27.03.35,0"/>
          <path class="cls-7" d="M24.61,11.96c-.38.05-.63.11-.73.15"/>
          <path class="cls-7" d="M27.03,13.21c.18-.08.29-.17.33-.28.03-.07-.05-.11-.25-.13-.19-.01-.33-.02-.42,0-.08,0-.17.03-.26.07-.09.04-.18.09-.26.15-.08.06-.17.13-.24.21-.08.08-.16.17-.23.26-.08.1-.14.2-.19.31-.05.11-.08.23-.11.35s-.04.25-.04.39c0,.14,0,.26.02.38.01.12.05.23.11.33.06.1.13.19.21.26.08.07.17.12.26.14.09.03.19.04.29.05.1,0,.21,0,.32-.02.11-.02.22-.06.32-.13.1-.07.19-.15.28-.24.08-.09.16-.19.23-.3.07-.11.13-.22.19-.33.05-.11.1-.28.16-.5.05-.22.08-.45.1-.69.01-.24,0-.33-.04-.27-.04.06-.07.19-.12.39-.04.2-.07.48-.07.82,0,.35,0,.57.02.67.02.1.05.19.1.28.05.09.11.17.18.24.08.07.16.13.26.16.1.03.2.05.32.05.12,0,.25-.01.4-.05s.29-.1.43-.2c.22-.15.37-.28.44-.38"/>
          <path class="cls-7" d="M30.33,13.92c-.05-.11-.11-.17-.17-.18-.05,0-.09.04-.12.13-.03.09-.07.27-.12.54-.05.27-.1.51-.15.72-.06.21-.09.33-.1.37,0,.04,0,.05,0,.06,0,0,0,0,0,0,0,0,.04-.07.1-.19.06-.12.2-.32.41-.61.21-.29.38-.51.49-.66.12-.15.24-.29.37-.43.13-.13.25-.25.37-.34.12-.1.23-.17.34-.22.11-.05.21-.08.31-.09.1,0,.18,0,.24.02.06.03.1.08.13.18.03.09.05.27.07.52.01.26.02.51.03.76,0,.25.01.43.02.52,0,.09.02.18.05.25.03.1.09.2.18.29"/>
          <path class="cls-7" d="M36.06,13.63c0-.11-.08-.19-.24-.26-.11-.04-.32-.07-.63-.08-.32,0-.53,0-.64,0-.11.01-.22.05-.32.1-.1.05-.19.11-.27.18-.08.07-.15.15-.21.25-.06.09-.1.19-.12.3-.02.11-.03.21-.03.31,0,.1.02.21.06.31.04.1.12.19.22.26.1.07.21.13.33.17s.25.07.38.08c.13.02.26.02.38.03.12,0,.28-.05.49-.14.2-.1.38-.22.51-.37.14-.15.23-.26.27-.33.04-.08.08-.16.1-.26.02-.1.04-.15.04-.16,0,0,0,0,0,.04s0,.27,0,.7c0,.43,0,.89.02,1.36.02.47.02.83.02,1.07,0,.24-.01.47-.04.69-.03.22-.08.4-.16.55-.08.15-.18.28-.3.39-.12.11-.25.18-.39.2-.14.03-.3.03-.48.01-.17-.02-.36-.07-.56-.15-.2-.09-.39-.18-.56-.28-.18-.1-.4-.25-.67-.44-.27-.19-.44-.33-.51-.4-.07-.07-.11-.14-.13-.18"/>
          <path class="cls-7" d="M37.96,11.66c0,.43-.01.88-.07,1.34-.06.46-.09.82-.11,1.08-.02.26-.03.61-.02,1.05,0,.44.03.72.08.83.07.18.17.29.3.33"/>
          <path class="cls-7" d="M39.63,13.94c-.12.04-.16.09-.13.15.02.04.11.08.26.1.15.03.32.05.51.06.19.02.37.03.54.03.18,0,.28-.03.3-.1.03-.07.04-.13.04-.18,0-.06-.04-.14-.11-.25-.07-.11-.14-.19-.21-.22-.06-.04-.18-.06-.34-.07s-.29,0-.38.03c-.09.03-.17.09-.26.17-.08.08-.16.17-.24.29-.08.12-.14.24-.18.38-.04.14-.07.29-.08.45-.01.16,0,.33,0,.5.02.17.08.32.18.45.1.13.24.24.4.32.16.08.35.14.57.17.31.05.66-.02,1.03-.2"/>
          <path class="cls-7" d="M46.55,11.21c-.17.05-.26.16-.27.33-.01.18,0,.42.01.74.02.32.05.67.1,1.07.05.4.09.64.12.72.03.08.08.11.13.1.06-.02.14-.1.26-.26.12-.16.22-.28.3-.36.08-.08.16-.16.26-.24.09-.08.2-.14.31-.19.11-.05.22-.09.33-.11.11-.02.22-.04.34-.04.11,0,.22,0,.32.04.1.03.19.08.26.17.07.08.13.19.18.3s.08.24.1.38c.02.13.03.27.03.41,0,.14-.03.28-.08.4-.05.13-.12.25-.2.37-.08.12-.17.22-.27.3-.1.08-.22.14-.35.19-.13.04-.27.07-.41.07-.14,0-.28,0-.42-.04-.13-.03-.26-.09-.39-.19-.13-.09-.24-.2-.35-.31-.11-.11-.21-.25-.31-.43-.1-.18-.17-.3-.19-.38-.02-.08-.01-.12.02-.13.05-.01.15-.03.31-.05"/>
          <path class="cls-7" d="M50.61,13.37c-.1.12-.15.29-.16.51,0,.15,0,.26,0,.35,0,.09.05.22.11.4.07.18.13.33.2.44.06.12.11.18.12.19"/>
          <path class="cls-7" d="M50.92,12.14c-.24-.26-.36-.43-.38-.49,0-.05.03-.07.11-.07.08,0,.17.03.27.09.16.09.26.15.31.17"/>
          <path class="cls-7" d="M54.76,13.36c-.07-.22-.14-.38-.22-.48-.06-.06-.13-.11-.21-.13-.08-.02-.21-.03-.37-.02-.16.01-.3.04-.41.09-.11.05-.22.11-.32.18-.1.07-.2.15-.3.24-.1.09-.18.19-.25.3-.07.11-.12.22-.15.34-.03.12-.05.24-.05.36,0,.12,0,.25.03.37.02.12.08.23.16.32.08.09.18.18.29.25s.22.13.33.18c.11.04.27.07.48.08.21,0,.36-.01.46-.06.1-.05.18-.12.26-.22.08-.09.15-.19.21-.31.06-.11.12-.23.18-.36.06-.13.11-.32.17-.59.06-.27.09-.49.11-.67.02-.18.03-.3.03-.35,0-.05,0-.06,0-.05,0,.02-.02.06-.04.12-.02.06-.04.19-.05.38-.01.19-.02.46-.02.81,0,.34.02.57.04.67.02.1.06.19.1.28.04.09.1.16.17.21.07.05.15.08.25.1.1.02.2.02.32,0,.11,0,.24-.06.38-.14.14-.09.29-.19.44-.32.16-.13.3-.26.44-.4.13-.14.26-.27.37-.4.11-.13.22-.26.31-.39.09-.13.16-.24.21-.35.05-.1.08-.22.1-.37.02-.14-.02-.24-.11-.29-.09-.05-.27-.08-.52-.09-.25-.01-.41,0-.46.04-.05.04-.08.1-.09.2-.01.09,0,.17.01.24.02.06.09.18.21.34.12.16.33.4.64.72.31.32.51.55.62.67.1.12.2.24.28.36.08.12.15.24.2.37.05.13.03.21-.05.24-.09.03-.19.04-.33.02-.13-.02-.36-.07-.68-.18-.32-.1-.62-.21-.89-.33-.27-.12-.44-.21-.52-.26-.08-.06-.14-.11-.18-.16-.06-.08-.11-.15-.14-.21"/>
          <path class="cls-7" d="M60.51,14.08c-.14,0-.21.03-.23.08-.01.04.05.07.18.09.13.03.25.04.36.04.11,0,.22,0,.33-.02.11-.02.21-.04.31-.08.09-.04.2-.11.33-.21.12-.1.2-.21.21-.34.02-.12,0-.22-.04-.28-.04-.07-.11-.12-.2-.18-.09-.05-.18-.09-.29-.12-.11-.03-.22-.05-.34-.06-.12-.01-.23-.01-.34,0-.11,0-.21.04-.31.09-.1.06-.18.13-.25.21-.07.08-.13.18-.17.3-.04.12-.06.32-.07.6,0,.28,0,.49.05.63.04.14.1.27.18.38.08.12.17.23.28.32.11.1.23.17.35.22.13.05.26.09.4.11.14.02.3.03.46.03.16,0,.33-.02.49-.07.16-.05.32-.12.48-.21.16-.09.31-.2.47-.32.15-.12.29-.24.42-.37.12-.13.24-.27.34-.41.1-.14.2-.29.29-.44.09-.15.16-.29.21-.43.05-.13.1-.32.14-.55.04-.23.06-.38.06-.44,0-.06-.01-.11-.04-.15-.03-.04-.13-.06-.29-.07-.16,0-.28.02-.35.08-.07.06-.12.13-.15.22-.03.09-.04.15-.04.21,0,.05.04.15.13.28.09.14.22.3.4.51.17.2.31.37.42.49.1.13.2.26.3.41s.18.3.26.47c.08.16.14.32.18.46.04.14.07.32.09.54.02.22,0,.35-.06.4-.06.05-.14.08-.24.09-.1,0-.23,0-.37,0-.14-.01-.28-.06-.42-.13-.14-.08-.28-.17-.42-.28-.14-.11-.27-.23-.39-.36-.2-.21-.32-.36-.38-.45"/>
          <path class="cls-7" d="M1.25,20.84c-.09,0-.14.09-.16.25-.02.16-.03.56-.03,1.2,0,.64,0,1.34,0,2.08,0,.75-.02,1.19-.07,1.33"/>
          <path class="cls-7" d="M.5,23.17c.3-.06.67-.09,1.12-.09.45,0,.84,0,1.17.03.33.02.54.04.63.04.14,0,.22-.02.25-.06"/>
          <path class="cls-7" d="M3.52,21.06c-.03.15-.03.56.02,1.22.03.39.07.83.11,1.32.05.49.09.83.12,1.01.03.19.06.35.11.49.04.14.09.24.13.3.05.06.12.08.21.08.1,0,.19-.12.29-.35.1-.22.2-.48.3-.77.1-.29.22-.55.35-.78.13-.23.25-.4.37-.5.12-.1.2-.16.25-.17.05-.01.11.04.17.15.06.11.1.29.13.54.02.24.04.5.04.78,0,.28.02.52.04.74s.05.36.09.44c.04.08.08.14.12.19.07.07.15.13.25.17"/>
          <path class="cls-7" d="M7.73,23.73c-.07.22-.04.35.09.37.09.02.21.03.37.03.16,0,.31-.03.46-.09s.27-.15.37-.25c.1-.11.16-.22.19-.36.03-.13.05-.23.05-.3s-.01-.14-.04-.21c-.03-.07-.07-.13-.13-.18s-.12-.09-.19-.12c-.07-.03-.18-.05-.34-.04-.16,0-.27.04-.35.11-.08.07-.15.15-.22.25-.07.1-.13.21-.18.33-.05.13-.09.26-.11.4-.02.14-.04.29-.04.44,0,.15.01.3.05.45.03.15.1.29.19.44.1.14.21.27.35.37.14.1.29.19.46.26.16.07.34.13.53.17.28.07.56.09.84.08"/>
          <path class="cls-7" d="M16.24,21.54c-.06.56-.1,1.17-.1,1.82s0,1.07,0,1.25c0,.18.01.34.03.46.02.13.04.23.06.3.04.12.09.18.14.2"/>
          <path class="cls-7" d="M17.7,23.63c0,.1.06.15.17.17.11.01.24,0,.4-.04.16-.04.31-.09.45-.16.14-.07.24-.15.31-.24s.11-.19.12-.31,0-.21,0-.26c-.01-.06-.08-.14-.19-.23-.11-.1-.24-.16-.39-.18-.14-.02-.25-.02-.33,0-.07.02-.14.07-.2.13-.06.07-.12.14-.17.24-.05.09-.09.19-.12.31-.03.11-.04.3-.05.57,0,.27,0,.46.05.59.04.13.1.24.18.35.08.11.18.21.29.3.11.09.23.16.36.22.13.05.27.08.42.1.15.02.31.03.47.03.17,0,.32-.03.45-.1.21-.1.35-.21.43-.33"/>
          <path class="cls-7" d="M22.23,22.23c-.13-.17-.22-.39-.27-.68-.03-.19-.07-.33-.12-.42-.04-.09-.1-.15-.18-.18-.07-.03-.13-.04-.18-.03-.04,0-.09.04-.14.1-.05.06-.09.14-.13.24-.04.1-.07.22-.1.35-.03.14-.05.29-.07.47-.02.17-.03.46-.03.85,0,.39,0,.7,0,.93,0,.23.03.49.09.78.06.29.11.52.17.7.05.18.11.3.17.37.06.06.12.07.18.01"/>
          <path class="cls-7" d="M21.03,23.74c-.14,0-.18-.02-.12-.07.05-.04.18-.07.4-.09.22-.02.57-.03,1.06-.03.49,0,.82-.01.99-.03.17-.02.35-.04.52-.08.17-.04.33-.09.47-.15.14-.06.28-.14.4-.22s.23-.17.33-.27c.1-.09.17-.19.22-.28.05-.1.09-.19.12-.29.03-.1.04-.23.05-.41,0-.18-.03-.32-.1-.45-.07-.12-.16-.2-.27-.23-.11-.03-.19.02-.24.15-.05.12-.08.24-.1.35-.02.11-.03.38-.03.81,0,.43.02.84.08,1.22.05.38.11.67.15.88s.1.39.16.56c.06.17.13.32.2.44.07.12.15.22.23.29.09.07.17.11.25.12.08.01.17,0,.25-.05.08-.04.16-.11.24-.21.08-.09.14-.19.19-.3.07-.16.13-.33.17-.51"/>
          <path class="cls-7" d="M24.44,23.23c-.18,0-.31-.02-.38-.05-.05-.02-.08-.04-.1-.05-.02,0,.02-.01.11-.01.09,0,.27,0,.53,0,.27,0,.63.02,1.07.06.45.04.87.07,1.25.08"/>
          <path class="cls-7" d="M34.51,23.07c-.12.13-.26.22-.43.27-.17.06-.3.11-.41.16-.11.05-.2.12-.27.19-.07.07-.12.15-.13.23-.02.08.02.17.1.25s.21.18.38.28c.17.1.31.18.4.24.09.06.21.16.34.29.14.13.23.27.28.4.05.13.08.22.08.27,0,.05-.05.1-.16.16-.11.06-.25.09-.42.1-.18.01-.38.02-.61.02-.23,0-.35,0-.36,0-.01,0-.01,0,0,0s.08,0,.23.02c.14.01.33.05.55.1.22.05.46.08.72.09.26.01.45.02.58.02.13,0,.26-.03.39-.08.13-.05.26-.12.39-.21.13-.09.24-.18.33-.27.09-.09.17-.19.23-.29.07-.1.12-.21.17-.32.05-.12.09-.29.13-.51.03-.22.05-.43.06-.61,0-.19-.02-.29-.09-.31-.06-.02-.12,0-.18.04-.05.05-.1.14-.14.26-.04.12-.06.27-.07.45,0,.18,0,.32,0,.42.01.1.04.2.08.29.04.09.09.18.16.28.06.09.14.18.23.26.09.08.18.14.29.19.1.05.21.07.33.09.11.01.23.01.35,0,.17-.01.32-.11.45-.3"/>
          <path class="cls-7" d="M38.27,22.41c-.42,0-.69.03-.8.08-.08.04-.12.06-.12.06"/>
          <path class="cls-7" d="M41.85,24.26c-.23-.25-.41-.41-.53-.48-.08-.05-.22-.08-.42-.1-.2-.01-.34,0-.43.03-.09.04-.18.09-.27.17-.09.08-.17.17-.24.29-.07.11-.14.23-.19.36-.06.13-.09.26-.11.4-.02.14-.03.27-.03.4,0,.13.01.26.05.39.03.13.09.23.18.31.09.08.19.14.3.18.11.04.24.07.37.07.13,0,.27,0,.4-.05.13-.04.26-.11.38-.21.12-.1.24-.21.36-.33.12-.12.22-.25.3-.39.08-.14.15-.28.21-.44.06-.16.11-.33.15-.51.04-.18.07-.37.08-.56.01-.19.02-.4.02-.63,0-.23,0-.45-.03-.67-.02-.22-.05-.41-.09-.58-.04-.17-.08-.31-.13-.42-.04-.11-.11-.17-.2-.19-.09-.01-.16.02-.21.1-.05.08-.08.18-.11.29-.03.11-.05.33-.06.65-.01.32-.02.58-.01.77,0,.19.02.39.05.6.03.21.07.43.12.66.05.23.1.45.16.65.06.2.13.39.22.56.08.17.18.32.29.45.11.13.22.22.34.26.12.04.23.07.35.07.12,0,.23-.03.34-.09.17-.1.27-.2.3-.29"/>
          <path class="cls-7" d="M44.59,24.63c-.1.02-.17.06-.19.13-.02.05.03.08.14.11.11.03.22.04.33.04.11,0,.21,0,.32-.03s.22-.05.32-.1.19-.1.26-.16c.07-.06.13-.12.17-.19.04-.07.07-.18.09-.32.01-.14-.01-.25-.08-.32-.07-.07-.16-.13-.27-.18-.11-.06-.23-.09-.36-.11-.13-.02-.26-.03-.4-.03-.14,0-.27.02-.4.06-.13.04-.24.11-.34.2-.1.09-.17.2-.23.33-.06.13-.11.27-.15.42-.04.15-.06.31-.06.47,0,.16.02.33.08.5.06.17.14.34.26.51.12.17.26.31.42.44.16.13.35.23.56.3.21.07.43.12.67.15.35.04.67-.07.97-.31"/>
          <path class="cls-7" d="M52.73,24.36c-.1-.15-.18-.2-.26-.15-.05.04-.09.13-.11.29-.02.16-.02.4-.02.73s.02.55.04.67c.03.12.06.23.11.33.05.1.1.19.16.27.06.08.12.15.19.21.07.06.15.1.23.13.08.03.17.04.27.04.1,0,.2-.02.31-.06.11-.04.21-.11.3-.2.1-.09.19-.2.28-.33.09-.12.17-.26.25-.4.08-.14.14-.27.19-.39.05-.12.09-.27.12-.45.03-.18.04-.3.02-.37-.02-.07-.07-.1-.17-.08-.1.01-.17.07-.21.17-.04.1-.07.28-.08.53-.01.26,0,.43.01.53.02.1.06.19.11.3.05.1.12.19.21.27.08.08.19.15.31.21.12.06.26.11.42.14.16.03.32.05.49.05.17,0,.34-.01.5-.04.17-.03.32-.08.46-.15.14-.07.25-.14.34-.21.09-.07.15-.15.2-.23.04-.08.07-.19.1-.34.02-.15,0-.29-.06-.43-.06-.14-.14-.25-.23-.33-.09-.08-.15-.08-.17,0-.02.08-.03.3-.03.67,0,.37.03.74.08,1.09.05.36.09.62.12.8.03.18.07.35.12.51.04.16.09.3.14.41.05.11.1.2.15.26.05.06.1.11.14.13s.08-.02.12-.13c.04-.11.07-.23.08-.37s.02-.68.02-1.63c0-.95.01-1.53.04-1.75.02-.22.06-.4.12-.55.06-.15.13-.28.21-.37.08-.1.17-.17.26-.21.09-.04.18-.07.27-.07.09,0,.17.02.25.07.08.05.15.11.22.19.07.08.12.16.16.25.04.09.07.26.09.52.02.26.03.46.03.61,0,.15-.01.36-.05.64-.03.28-.06.47-.09.56-.03.1-.07.18-.11.25-.05.07-.11.13-.19.18-.08.05-.21.07-.4.08-.19,0-.33-.03-.41-.09-.12-.1-.22-.21-.29-.3"/>
          <path class="cls-7" d="M88.44,1.86c-.11-.09-.13.09-.07.54.06.45.1.76.11.93.02.17.04.45.06.83.02.39.03.6.03.66,0,.05,0,.08,0,.08h0s0-.03,0-.03v-.73c0-.46,0-.78.01-.95,0-.17.02-.34.05-.52.03-.18.06-.35.11-.52.04-.17.1-.33.16-.48.06-.15.13-.29.21-.42.08-.13.16-.23.24-.31.09-.08.17-.14.26-.18.09-.04.18-.06.27-.07.09-.01.18-.01.26,0,.08.01.16.04.24.09.08.05.15.12.21.2.06.08.11.17.15.27.04.1.07.2.09.32.02.11.03.28.02.5,0,.22-.04.39-.09.5-.05.11-.11.21-.19.31-.08.09-.17.18-.27.25-.1.08-.22.15-.33.21-.12.07-.27.12-.45.15-.18.03-.31.05-.37.05-.06,0-.12-.03-.17-.1-.05-.07-.07-.12-.07-.17,0-.05.06-.07.19-.07.12,0,.27.06.43.16.17.11.35.24.54.4.19.16.38.33.56.51.19.18.35.35.5.5.14.16.29.3.43.45"/>
          <path class="cls-7" d="M92.97,3.63c-.1.08-.16.21-.16.41,0,.19.05.43.15.71.1.28.17.46.21.53"/>
          <path class="cls-7" d="M93.12,2.14c-.24-.02-.36-.04-.37-.06-.01-.02.02-.04.1-.07"/>
          <path class="cls-7" d="M96.32,2.82c-.15-.1-.27-.2-.35-.29-.06-.06-.13-.1-.21-.1-.08,0-.2.04-.35.11-.15.08-.27.15-.36.22s-.17.16-.25.25c-.08.09-.16.19-.23.3-.07.11-.13.21-.16.33-.04.11-.06.22-.07.33,0,.11,0,.22.02.32.02.11.07.2.14.27.08.07.17.13.28.17.11.04.24.07.37.09.13.02.27.02.4.03.13,0,.25-.03.38-.08.12-.06.24-.12.35-.19.11-.07.21-.15.29-.24.08-.09.17-.23.27-.44.1-.2.16-.38.17-.54.01-.16.01-.27,0-.33-.01-.06-.05-.1-.13-.14-.08-.03-.13-.04-.17-.03-.04.01-.07.05-.1.12-.03.07-.06.22-.09.45-.03.23-.05.6-.05,1.13,0,.52,0,.89,0,1.11,0,.22-.01.44-.03.66-.02.22-.05.45-.08.67-.04.22-.08.42-.13.59-.05.17-.1.31-.16.43-.06.12-.12.22-.19.3-.07.08-.14.13-.2.14-.07.02-.14.02-.21,0-.07-.01-.15-.06-.23-.13-.08-.08-.14-.16-.2-.26-.06-.1-.1-.21-.14-.33-.04-.12-.06-.25-.08-.39-.01-.14-.02-.26-.01-.37,0-.11.03-.21.08-.29.05-.09.12-.17.2-.24.08-.08.17-.14.27-.2.1-.06.35-.17.75-.34.4-.17.68-.29.85-.37.16-.08.34-.17.52-.28.18-.11.36-.22.53-.33.17-.11.33-.22.48-.34.15-.11.29-.23.41-.34.12-.11.22-.22.3-.33.08-.11.14-.22.2-.33.05-.12.1-.24.13-.37.03-.13.05-.34.06-.62.01-.28,0-.5-.01-.67-.02-.16-.05-.33-.09-.49-.04-.16-.08-.31-.13-.44-.05-.13-.09-.24-.14-.32-.04-.08-.09-.13-.13-.15-.05-.02-.08.04-.1.16-.02.12-.04.38-.04.77,0,.39,0,.75,0,1.09,0,.34,0,.68.02,1.04.02.36.04.62.06.8.02.17.05.33.09.46.04.13.08.24.13.33.05.09.1.15.16.19.06.04.13.06.21.06.08,0,.21-.12.39-.34.18-.22.36-.48.53-.76.17-.28.33-.53.48-.75.15-.21.27-.36.36-.45.09-.09.14-.09.17,0s.03.37.03.82c0,.46,0,.74,0,.86,0,.12.03.23.07.35.05.12.1.22.17.31.07.09.15.17.24.23.09.07.2.11.31.14.12.03.24.04.37.04.13,0,.27-.04.42-.11.15-.08.3-.17.43-.29.14-.12.27-.25.4-.39.13-.14.25-.29.36-.45.11-.16.21-.32.3-.48.09-.16.16-.32.22-.49.06-.17.11-.35.14-.54.03-.19.05-.37.06-.56,0-.18,0-.36-.02-.54-.02-.18-.05-.33-.08-.46-.03-.13-.06-.23-.09-.28-.03-.05-.06-.09-.1-.1-.03-.01-.07.05-.11.19-.04.14-.06.32-.08.57-.02.24-.02.54-.02.88,0,.35.02.61.06.8.03.19.08.38.15.57.06.19.14.38.23.57.09.19.2.35.32.49.12.14.25.25.38.32.13.08.26.13.4.15.14.02.26.02.37-.02.11-.03.2-.11.28-.21.12-.17.19-.31.23-.41"/>
          <path class="cls-7" d="M103.25,3.12c0-.06.4-.09,1.23-.1.82,0,1.54,0,2.15,0"/>
          <path class="cls-7" d="M113.63,1.88c-.11-.25-.17-.34-.18-.27,0,.05-.01.19-.02.4-.01.21-.01.43,0,.65,0,.22.03.55.05.98.03.44.04.94.05,1.5,0,.56-.03.86-.1.89"/>
          <path class="cls-7" d="M113.01,3.59c-.06-.11-.02-.2.12-.29.1-.06.26-.1.48-.11.23-.02.41-.02.56-.02.15,0,.29.01.44.03.15.02.43.1.85.24.42.14.67.24.74.29.07.05.11.13.12.22,0,.09-.02.2-.07.33-.05.13-.1.26-.15.4-.05.14-.08.27-.1.39-.02.13-.03.18-.03.15,0-.02-.01-.08-.03-.17-.02-.09-.02-.17-.02-.25,0-.08.02-.17.05-.27.03-.11.11-.3.23-.57.12-.28.23-.49.32-.64.09-.15.18-.28.26-.39.09-.11.17-.2.24-.26.07-.07.16-.11.26-.14.1-.03.19.04.29.2.09.16.18.29.27.39.09.1.22.22.41.37.19.15.3.26.32.33.03.07.06.29.09.66.03.37.07.63.1.77.03.14.09.23.17.27.12.06.23.05.33-.04"/>
          <path class="cls-7" d="M119.46,1.82c-.19-.1-.46-.18-.81-.26-.22-.05-.33-.07-.33-.08,0,0,.01,0,.03,0,.02,0,.1-.01.25-.04"/>
          <path class="cls-7" d="M122.63,3.82c-.13-.08-.28-.19-.43-.34-.15-.15-.27-.24-.35-.26-.08-.02-.16-.03-.22-.04-.07,0-.14.02-.22.05-.08.03-.17.08-.26.16-.09.07-.18.16-.27.26-.09.1-.17.21-.23.33-.07.12-.12.24-.15.38-.04.13-.06.26-.07.39-.01.13-.01.25,0,.36,0,.11.04.21.11.3.07.09.15.17.24.24.09.07.19.12.3.14.11.03.27.04.49.04.22,0,.37-.02.47-.07.09-.05.18-.1.27-.16.08-.06.17-.14.25-.22.08-.08.19-.23.31-.45.12-.21.21-.38.26-.51.05-.13.09-.25.12-.37.03-.12.04-.26.05-.44s-.02-.27-.08-.29c-.06-.02-.11,0-.15.09-.04.08-.08.18-.11.3-.03.12-.05.25-.07.38s-.02.33-.02.58c0,.26.02.44.07.55.04.11.09.21.15.31.06.1.13.17.21.23.08.06.22.1.42.13s.35.03.44,0c.09-.03.21-.09.34-.2.14-.11.22-.2.27-.27.04-.07.06-.11.07-.11,0,0,0,0,0,0,0,0-.04.04-.1.12-.06.08-.11.12-.14.14-.03.02-.05-.02-.05-.12,0-.1.03-.25.1-.44.07-.19.14-.36.21-.5.07-.14.15-.28.24-.42.09-.14.19-.28.3-.41.11-.13.22-.24.33-.33.11-.09.23-.16.34-.21.12-.05.22-.08.32-.09.1,0,.19,0,.27.04.08.03.14.1.2.19.06.09.1.26.12.52.03.25.04.56.05.92,0,.36.02.6.05.7.03.1.06.19.12.26.05.07.11.13.19.17.07.04.16.08.26.1s.22.04.33.04c.12,0,.25,0,.39-.03.14-.03.28-.07.44-.14.16-.07.37-.19.65-.36.28-.18.48-.31.6-.41.13-.1.23-.18.32-.26s.19-.2.31-.36c.12-.16.19-.3.22-.41.03-.12.04-.21.05-.26,0-.05-.05-.12-.14-.19-.1-.07-.23-.12-.4-.13-.17-.02-.3-.01-.39,0-.09.02-.18.05-.28.11-.1.05-.22.15-.38.28-.15.13-.26.25-.33.33-.07.09-.12.17-.17.27-.04.09-.08.18-.1.27-.02.09-.04.18-.04.28,0,.09.01.18.04.26.03.08.09.15.17.2.08.06.18.11.3.15s.3.06.56.07c.26,0,.46-.01.6-.07.14-.05.27-.12.39-.2.12-.08.23-.17.33-.26.1-.09.19-.19.28-.29.09-.1.16-.2.21-.3.05-.1.09-.19.11-.27.02-.08.04-.2.05-.34,0-.14-.01-.23-.05-.26-.04-.03-.07.04-.09.21-.02.17-.02.32-.02.45s.02.35.05.68c.04.33.06.59.07.79.01.2.02.41.03.64,0,.23,0,.46-.02.71-.02.25-.06.49-.12.71-.06.23-.14.44-.22.63-.08.19-.18.37-.27.52-.1.15-.2.27-.31.35-.11.08-.23.13-.36.15-.13.02-.28.01-.43-.01-.15-.02-.31-.09-.47-.19-.16-.1-.31-.21-.47-.34-.15-.13-.3-.26-.43-.39-.13-.13-.27-.31-.42-.52-.15-.22-.28-.43-.4-.63"/>
          <path class="cls-7" d="M132.53,1.38c-.16-.04-.26-.03-.3.02-.03.03-.04.19-.03.46,0,.28.03.53.08.76.05.23.11.48.19.75s.16.54.25.82c.09.28.19.53.29.75.1.22.2.41.31.58.11.17.22.32.34.44.12.13.23.22.34.27.17.08.29.11.37.1"/>
          <path class="cls-7" d="M135.28,4.57c.11.07.33.11.66.13.21.01.36.02.47.02.11,0,.2-.02.28-.06.08-.04.15-.09.19-.15.05-.06.07-.14.08-.22,0-.08,0-.16-.04-.23-.04-.07-.11-.14-.22-.21-.11-.06-.25-.11-.4-.15-.16-.04-.31-.06-.47-.06-.15,0-.3,0-.43.03-.14.03-.26.08-.37.16-.11.08-.2.18-.26.31-.06.12-.1.27-.1.43,0,.17,0,.35.04.54.04.2.12.38.26.56.14.18.32.34.53.49.22.15.48.27.78.37.3.1.61.15.93.17.51.03.85-.02,1.04-.15"/>
          <path class="cls-7" d="M143.41,1.98c-.1-.22-.16-.35-.17-.37,0-.02-.01-.01-.01.02s0,.15,0,.36c0,.2.04.58.11,1.12.07.54.12.97.15,1.29.03.32.07.56.12.73.04.17.09.27.15.29.05.02.16-.07.31-.29.15-.22.27-.38.35-.48.08-.1.16-.19.25-.27.08-.08.17-.14.25-.19.08-.05.21-.08.38-.11.17-.02.29,0,.36.05.07.05.13.12.19.21.06.09.1.19.13.31.03.11.05.3.05.56,0,.26,0,.44-.05.55-.04.11-.1.21-.16.31-.07.1-.15.19-.24.28-.09.09-.19.16-.29.2-.1.05-.27.08-.51.09s-.42.01-.53-.01c-.11-.03-.22-.08-.32-.15-.1-.07-.19-.15-.27-.24-.08-.09-.13-.17-.17-.25-.03-.08-.05-.16-.06-.24-.01-.11,0-.23.03-.35"/>
          <path class="cls-7" d="M147.5,4.41c-.09-.07-.14-.04-.16.08-.02.12-.03.35-.03.68,0,.34.02.55.06.65.04.1.1.22.18.36.08.14.16.23.23.29"/>
          <path class="cls-7" d="M147.87,3.37c-.21-.05-.33-.12-.36-.19-.02-.05,0-.09.04-.11.07-.03.15-.07.23-.13"/>
          <path class="cls-7" d="M151.43,4.35c0-.08-.12-.19-.32-.32-.13-.08-.26-.13-.39-.13-.13,0-.26.04-.37.13-.12.09-.21.17-.28.25-.07.08-.16.23-.27.45s-.19.39-.23.52c-.04.13-.06.31-.07.54,0,.23.02.39.08.48.06.09.13.16.21.21.08.05.23.08.44.1s.37.01.46-.02c.1-.03.19-.08.29-.14s.19-.14.28-.22c.09-.09.21-.23.35-.43.14-.2.25-.37.3-.49.06-.12.12-.29.17-.51.06-.22.09-.38.1-.5,0-.12-.01-.17-.06-.16s-.1.09-.16.25c-.06.16-.1.35-.12.57-.02.22-.04.44-.04.64,0,.21.01.36.04.44.03.09.07.16.12.24.05.07.1.14.17.2.06.06.14.1.21.13s.21.04.4.05c.19,0,.34-.02.45-.08.11-.06.22-.14.34-.23.12-.09.24-.19.36-.31.12-.11.29-.29.49-.54s.35-.44.43-.57c.08-.13.14-.25.18-.36.04-.11.06-.25.07-.41,0-.17-.02-.27-.07-.3-.06-.04-.2-.06-.45-.07-.24-.01-.42,0-.53.04-.12.04-.18.11-.21.23-.02.11.14.33.49.64.35.31.58.52.7.63.11.11.22.21.33.33.1.11.19.22.27.32.07.1.13.2.17.3.04.09.07.21.08.34.01.14-.06.24-.21.3-.16.06-.37.09-.63.1-.26,0-.47,0-.6-.03-.14-.03-.26-.07-.37-.12-.11-.05-.2-.11-.28-.17-.12-.1-.2-.22-.26-.37"/>
          <path class="cls-7" d="M157.07,4.97c-.17-.03-.25,0-.23.09.01.07.05.12.13.16.07.04.16.08.28.11.11.03.29.06.54.08.25.02.43.03.55.03.12,0,.23-.03.32-.07.1-.04.18-.09.26-.16.07-.06.14-.13.19-.21.06-.08.09-.2.12-.37.02-.17.01-.3-.02-.38-.04-.09-.1-.16-.18-.21-.09-.06-.18-.1-.29-.13-.11-.03-.23-.04-.35-.05-.13,0-.25,0-.36.02-.11.01-.22.05-.31.11-.09.06-.18.13-.25.22-.08.09-.13.19-.17.3-.03.11-.06.3-.07.58-.01.28,0,.49.02.63.03.15.07.28.12.42.05.13.12.26.19.39.07.13.15.23.23.31.08.08.17.15.27.2.1.05.21.09.33.11.12.03.25.04.38.04.13,0,.28-.02.44-.07.16-.05.33-.12.51-.2.18-.09.43-.24.75-.45.32-.21.56-.38.71-.5.15-.12.29-.23.4-.34.11-.11.21-.21.3-.32.09-.11.17-.22.23-.32.06-.11.1-.26.13-.45.03-.19.04-.33.04-.43,0-.09-.05-.19-.13-.29-.09-.1-.15-.17-.2-.2-.05-.03-.11-.05-.18-.06s-.11.01-.11.06c0,.05.09.18.27.4.18.22.31.39.4.5.08.12.16.24.23.37.07.13.13.27.18.41.05.14.09.28.12.43.03.15.05.33.06.55,0,.22,0,.36-.04.43-.04.07-.12.12-.26.15-.14.03-.25.04-.35.03-.09-.01-.24-.05-.43-.13-.19-.07-.36-.14-.52-.21"/>
          <path class="cls-7" d="M88.76,10.94c.03.17.05.43.06.78,0,.35.01.83.03,1.43.02.6.02,1.19.03,1.76,0,.57,0,.88,0,.91v.02s0-.03,0-.03v-.03s0,.02,0,.02h0s0-.26,0-.26"/>
          <path class="cls-7" d="M88.26,13.64c.01-.13.1-.21.25-.25.15-.04.3-.07.43-.09.14-.02.29-.04.47-.05.17-.01.35-.02.53-.03.29,0,.49-.02.59-.04"/>
          <path class="cls-7" d="M91.25,11.5c-.2.08-.33.2-.39.38-.04.12-.06.24-.06.35,0,.11,0,.25.03.4.02.16.07.44.16.86.09.42.15.74.19.96.04.22.07.54.1.96.03.42.05.68.06.79.01.11.03.19.06.24.03.05.07.08.12.07.05,0,.11-.05.18-.16.07-.1.2-.33.38-.69.19-.36.33-.63.42-.83.1-.19.23-.44.39-.75.16-.3.28-.49.34-.57.06-.08.11-.14.16-.18.05-.04.1,0,.15.08.05.09.1.34.17.75.06.4.13.74.19,1.01.06.27.13.5.21.71.07.21.13.34.17.39.06.08.14.14.22.18"/>
          <path class="cls-7" d="M95.66,14.76c-.06.18-.01.27.13.28.1,0,.2,0,.3-.04.1-.03.21-.09.33-.16s.24-.15.37-.24c.12-.09.23-.18.33-.27.09-.09.17-.17.23-.25.06-.08.11-.17.14-.28.03-.11.03-.18-.02-.21-.04-.03-.16-.05-.35-.07-.19-.02-.34-.01-.45,0-.11.02-.22.05-.32.11-.1.05-.2.12-.28.2-.08.08-.15.16-.21.26-.06.1-.11.21-.14.34-.04.13-.06.28-.06.44,0,.16,0,.34.02.53.02.19.07.37.16.55.08.18.19.33.32.46.13.13.28.23.45.3.17.07.35.12.55.14.29.03.61-.04.95-.22"/>
          <path class="cls-7" d="M104.31,14.61c-.02.38-.03.76-.03,1.13,0,.25,0,.38,0,.39h0s0,0,0,0c0-.02,0-.2,0-.54,0-.34.03-.64.08-.89.05-.25.1-.48.16-.7.06-.21.12-.38.18-.5.06-.12.12-.19.18-.2.06-.02.19.05.39.19.2.14.41.26.63.35.22.09.44.17.65.23.21.06.41.1.58.12.18.02.27.03.28.04h.01s0,0,0,0c0,0-.05-.01-.13-.03-.08-.02-.17-.02-.25-.01-.08.01-.14.08-.17.2s-.05.31-.05.54c0,.24,0,.42,0,.56,0,.14.02.27.06.38.04.12.08.21.14.3.06.08.12.14.19.18s.15.06.23.06c.12,0,.22-.06.29-.17"/>
          <path class="cls-7" d="M107.67,12.86c-.2-.08-.31-.11-.31-.11"/>
          <path class="cls-7" d="M110.73,13.94c.12.05.21,0,.26-.17.04-.11.02-.19-.05-.22-.07-.03-.19-.04-.35-.03-.16.01-.3.04-.4.09-.1.05-.2.11-.3.18-.1.07-.2.15-.29.24-.1.09-.18.18-.25.28-.07.1-.13.2-.17.31-.04.11-.07.27-.08.49,0,.22.01.36.07.44.06.07.12.13.2.18s.2.07.36.06c.16,0,.28-.03.36-.08.08-.05.19-.16.32-.32.13-.16.25-.33.35-.51.1-.18.17-.32.21-.43.04-.11.06-.17.07-.18,0-.01,0,0,0,.06,0,.05,0,.27,0,.66s.01.71.03.96c.02.25.05.5.09.77.04.27.07.54.1.81.03.27.05.53.07.79.01.26.02.48.02.66,0,.18-.03.34-.09.46-.06.13-.14.23-.24.32-.1.08-.22.14-.35.15s-.28.02-.45,0c-.17-.01-.34-.06-.52-.14-.18-.08-.35-.18-.52-.29-.16-.11-.31-.23-.45-.35-.14-.12-.25-.23-.35-.35-.1-.11-.17-.21-.21-.3-.06-.13-.09-.29-.06-.46"/>
          <path class="cls-7" d="M112.37,12.1c.03.3.06.55.09.77.02.15.05.31.09.5.04.18.11.47.22.87.11.4.21.74.3,1.02.09.28.16.46.2.53.05.07.1.07.17,0,.06-.08.16-.24.29-.49.13-.25.23-.44.31-.56.08-.13.16-.24.25-.34.08-.1.17-.19.25-.26.08-.07.17-.13.27-.16s.16,0,.19.12c.03.11.05.29.07.52.01.23.03.4.06.52.03.11.06.23.11.34.04.11.1.22.17.31.07.1.15.17.23.23.09.06.18.1.28.11.1.02.21.02.33.01.12,0,.23-.05.33-.13.1-.07.2-.17.3-.28.09-.11.18-.24.27-.38.09-.14.16-.28.23-.41.06-.14.12-.28.17-.42.05-.14.1-.3.14-.46.04-.16.07-.33.09-.5s.03-.44.04-.82c0-.38,0-.63-.02-.75-.02-.12-.05-.21-.09-.26-.04-.05-.08,0-.12.14-.04.15-.07.39-.07.73,0,.34,0,.61.01.81.01.2.04.4.09.62.04.21.09.41.14.6.05.19.11.36.18.53.06.17.14.32.22.46.08.14.16.24.23.31.08.07.15.11.21.12.1.02.19-.02.29-.12"/>
          <path class="cls-7" d="M116.65,13.33c.33.1.73.15,1.2.17.74.02,1.31.02,1.71,0"/>
          <path class="cls-7" d="M128.48,13.48c.16-.21.17-.34.05-.39-.09-.03-.17-.04-.23-.03s-.16.06-.29.14c-.13.08-.25.17-.35.27-.11.1-.18.2-.21.31-.04.11-.06.19-.06.25,0,.06.02.12.05.19.04.07.09.13.16.21.07.07.2.18.39.33.19.14.36.29.52.43.15.14.25.26.3.36.05.1.04.16-.03.2s-.21.05-.43.06c-.22,0-.49,0-.82-.02-.33-.02-.52-.04-.58-.05-.08-.02-.15-.06-.21-.14"/>
          <path class="cls-7" d="M130.19,14.14c-.07.12-.11.29-.11.51,0,.15.01.26.04.35.03.09.09.21.19.37.1.16.19.3.29.42"/>
          <path class="cls-7" d="M130.48,12.34c-.04-.11-.11-.19-.19-.26l-.08-.06h0s0,0,0,0h-.01"/>
          <path class="cls-7" d="M134.07,13.93c-.02-.09-.12-.18-.31-.29-.12-.07-.25-.11-.4-.12-.15-.01-.27-.01-.36,0-.09.02-.19.05-.28.11-.09.06-.18.14-.28.23-.09.1-.17.2-.24.32-.07.12-.11.24-.15.37-.03.13-.05.27-.06.41,0,.14,0,.28.02.4.02.12.07.23.15.32.08.09.18.16.29.22.11.05.24.08.37.09.13,0,.27,0,.42-.05.14-.04.29-.11.44-.21.15-.09.28-.2.41-.32.12-.12.23-.24.33-.38.1-.13.19-.28.28-.43.09-.15.16-.3.21-.45.05-.15.09-.31.12-.48.03-.17.04-.35.05-.56,0-.2,0-.4,0-.59-.01-.19-.04-.37-.1-.55-.05-.18-.11-.34-.17-.48-.06-.14-.11-.23-.16-.28-.05-.04-.09-.07-.13-.07-.04,0-.08.03-.11.09-.04.07-.07.16-.1.29-.03.13-.04.38-.05.75,0,.37,0,.66.02.86.02.2.05.41.09.62.04.21.09.42.14.63.06.21.12.41.19.59.07.18.15.34.23.48.08.15.18.27.29.38.11.11.21.18.32.21.15.05.3.05.44-.01"/>
          <path class="cls-7" d="M137.08,14.5c.23,0,.56-.03.97-.11.27-.05.46-.1.59-.14.13-.04.23-.08.32-.12.09-.04.16-.09.22-.14.05-.05.09-.1.12-.16.02-.06.04-.12.03-.19,0-.07-.03-.13-.1-.2-.06-.07-.15-.13-.25-.19-.1-.06-.22-.1-.35-.13-.13-.03-.26-.04-.4-.05s-.27.01-.4.04c-.13.03-.25.09-.36.18-.11.09-.21.2-.3.33s-.18.28-.25.45c-.07.17-.12.33-.15.5-.03.17-.05.33-.05.49,0,.16.03.31.08.45.06.14.16.25.3.34.14.09.31.15.51.18.2.03.41.05.65.06.38.02.63,0,.75-.06"/>
          <path class="cls-7" d="M147.28,14.84c-.04.09-.11.15-.22.16-.11.02-.24,0-.39-.05-.15-.05-.32-.08-.5-.09-.19-.01-.34-.02-.45-.02-.11,0-.22.03-.33.09-.11.06-.21.12-.29.2-.08.08-.15.17-.2.27-.05.1-.09.2-.1.3-.01.1-.02.2,0,.28,0,.09.04.16.12.22.07.06.16.11.26.16s.26.07.48.09c.22.02.39.01.51,0,.12-.02.23-.06.33-.12.1-.05.21-.12.3-.2.1-.08.19-.17.29-.28.1-.1.19-.21.26-.33.07-.12.14-.23.19-.36.06-.12.1-.26.15-.4s.07-.37.1-.69c.02-.32.03-.57.03-.76,0-.19,0-.38-.03-.56-.02-.18-.05-.39-.1-.61-.05-.23-.09-.35-.13-.37-.03-.02-.06.08-.07.31-.01.23-.02.71-.02,1.43,0,.72,0,1.18.01,1.39,0,.2.03.39.06.58.03.18.08.36.14.52.06.16.14.3.23.4s.2.18.31.22c.12.05.25.08.39.09.14.02.29,0,.44-.02.15-.03.3-.08.45-.15.15-.07.29-.16.42-.26.13-.1.25-.2.36-.31.1-.11.2-.23.28-.35.08-.12.15-.24.21-.36.06-.12.11-.28.16-.47.05-.19.07-.33.08-.41,0-.08,0-.14-.01-.19-.01-.05-.07-.08-.16-.11-.09-.02-.17-.03-.22-.02-.06.01-.15.08-.28.22-.13.14-.24.3-.34.5-.1.19-.16.34-.2.46-.03.11-.06.27-.07.49-.01.22,0,.38.02.49.02.11.07.2.15.27.08.07.17.13.28.17.11.04.24.07.38.08.14.02.28,0,.44-.03.16-.03.31-.09.46-.18.15-.09.3-.19.44-.3.14-.11.25-.23.34-.34.09-.12.16-.24.2-.36.05-.12.07-.24.08-.34,0-.11-.02-.21-.08-.3-.06-.1-.15-.19-.27-.28-.12-.09-.25-.15-.39-.2-.2-.06-.4-.11-.58-.14"/>
          <path class="cls-7" d="M153.95,14.18c-.14.21-.25.42-.33.63-.05.14-.1.33-.14.56-.04.23-.07.47-.07.72,0,.25,0,.42.03.52.03.1.07.18.14.25.07.06.15.1.24.13.1.02.2.03.32.04.12,0,.24-.02.37-.07.13-.05.25-.12.38-.22.12-.1.25-.21.37-.33.12-.13.22-.25.31-.38.09-.13.16-.26.21-.38.06-.12.1-.25.14-.37.04-.12.06-.27.07-.43.01-.16.01-.27,0-.31-.01-.04-.04-.06-.1-.07-.06,0-.11.05-.17.17-.05.12-.09.28-.1.48-.01.2-.02.35-.02.46,0,.11,0,.21.02.32.02.1.05.21.09.31.05.1.11.2.18.28.08.08.17.16.27.22.1.06.22.11.34.15.12.03.25.05.37.05.12,0,.24-.01.36-.04.11-.03.21-.09.3-.17.09-.08.16-.18.21-.29.05-.11.1-.29.13-.54s.04-.43.04-.53c0-.1-.04-.22-.11-.35-.07-.13-.14-.21-.21-.23-.07-.02-.14-.04-.19-.05"/>
          <path class="cls-7" d="M159.14,14.99c-.09.34-.13.7-.13,1.08,0,.38,0,.69.02.91.02.22.03.37.06.45.02.07.06.12.11.14.05.02.12-.06.21-.24.09-.18.17-.34.25-.48.07-.13.16-.27.25-.42.09-.15.2-.3.31-.47.11-.16.24-.33.38-.51.14-.17.29-.33.44-.46.15-.14.31-.25.46-.34s.31-.16.46-.2c.15-.04.28-.06.39-.05.11.01.2.07.26.19.07.11.12.26.16.45.04.18.06.49.07.91,0,.43.02.82.04,1.19.02.36.03.59.05.67.02.08.05.15.11.2"/>
          <path class="cls-2" d="M35.11,100.97c.13-.21.2-.36.2-.46,0-.07-.02-.18-.05-.35-.03-.17-.05-.26-.05-.27,0-.01,0-.01,0,0,0,.02,0,.11-.01.3,0,.18-.02.48-.03.89,0,.41-.02.76-.04,1.04-.02.29-.04.46-.06.52-.02.06-.05.26-.08.6-.03.34-.05.58-.06.71,0,.13-.01.2-.01.21h0s0-.06,0-.06c0-.05,0-.5,0-1.36,0-.86,0-1.48.01-1.84,0-.37.02-.61.03-.74.01-.12.05-.27.13-.44.07-.17.19-.09.36.23.17.32.28.55.33.7.05.14.14.45.27.9.13.46.24.82.32,1.08.09.26.18.49.27.7.09.2.2.38.3.53.11.15.22.27.34.37.12.1.27.16.45.18.18.03.3.01.36-.04.06-.05.1-.16.13-.32.03-.17.04-.31.04-.43,0-.12-.05-.33-.15-.65-.1-.31-.22-.8-.37-1.45-.15-.65-.23-1.04-.25-1.17-.02-.13-.03-.26-.03-.41,0-.15.02-.24.05-.28.05-.05.13-.02.24.08"/>
          <path class="cls-2" d="M39.9,102.29c.01.2.07.33.17.39.07.04.2.07.41.07.2,0,.37-.03.49-.1.12-.07.21-.16.28-.27.06-.11.1-.21.1-.31,0-.1-.03-.19-.11-.27s-.19-.14-.33-.18c-.14-.04-.28-.06-.43-.05-.15.01-.26.04-.32.08-.06.04-.12.1-.18.17s-.11.15-.15.24c-.05.09-.08.25-.1.46-.02.22-.02.39,0,.52.01.13.06.24.13.35.07.11.16.2.26.29.1.08.22.16.36.21.13.06.27.1.41.11.14.02.29.03.44.03.15,0,.31-.02.46-.05.24-.06.4-.12.46-.19"/>
          <path class="cls-2" d="M43.22,100.26c-.03.11-.02.3.03.55.03.16.13.61.31,1.34s.29,1.2.34,1.4c.05.2.1.37.15.52.05.15.09.24.11.29"/>
          <path class="cls-2" d="M42.77,101.94c.87.01,1.47,0,1.8-.02.36-.03.61-.07.74-.13"/>
          <path class="cls-2" d="M50.4,102.18c-.11.19-.06.3.15.33.15.02.27.03.35.02.08,0,.19-.03.33-.08.14-.05.25-.12.32-.19.07-.08.11-.17.12-.26,0-.1-.03-.19-.11-.29-.08-.09-.19-.18-.34-.25-.15-.07-.26-.12-.34-.15-.08-.02-.19-.03-.34-.04-.15,0-.26.01-.32.05-.06.04-.12.1-.18.18-.06.08-.1.18-.13.29-.03.11-.06.31-.07.59-.01.29,0,.51.02.67.03.16.07.31.14.44.07.13.15.24.25.34.1.1.21.17.34.23.13.06.26.09.39.1.14,0,.28,0,.42-.01.21-.03.44-.12.7-.27"/>
          <path class="cls-2" d="M55.57,100.37c.01-.18,0-.35-.02-.49-.02-.1-.05-.2-.1-.3-.05-.1-.11-.2-.18-.29-.07-.09-.15-.15-.23-.18-.08-.03-.17-.04-.26-.02-.09.02-.18.07-.26.15-.08.08-.18.27-.29.56-.12.29-.2.55-.24.77-.05.22-.07.54-.08.97,0,.43,0,.75.03.96.03.22.07.41.12.57.05.17.1.31.16.43.05.12.11.22.16.31.05.08.11.14.16.16.07.03.11.01.1-.07"/>
          <path class="cls-2" d="M53.8,102.09c-.1,0-.13,0-.11-.01.02,0,.06-.03.13-.06.07-.03.21-.08.43-.14.22-.06.44-.11.65-.15.22-.04.53-.08.95-.11.42-.03.74-.07.97-.12"/>
          <path class="cls-2" d="M58.8,100.17c-.27-.18-.49-.4-.65-.65-.11-.17-.19-.3-.24-.38-.05-.09-.12-.13-.2-.13-.08,0-.18.09-.29.25-.11.16-.21.35-.28.56-.08.21-.14.4-.18.58-.04.18-.07.36-.08.54-.01.18,0,.42,0,.72.02.29.06.55.13.76.07.21.15.4.24.56.09.16.21.33.35.5.14.17.27.28.38.34.11.05.17.07.19.05"/>
          <path class="cls-2" d="M56.75,101.5c-.23.09-.34.16-.32.23.01.05.14.07.37.08.24,0,.45,0,.63-.01.18-.02.43-.05.76-.11.33-.06.56-.1.68-.12.2-.04.32-.08.36-.12"/>
          <path class="cls-2" d="M60.15,102.11c-.07.21-.05.34.05.39.08.04.17.06.28.06.11,0,.23,0,.36-.02.13-.02.34-.07.64-.18.3-.1.5-.18.61-.22.11-.05.23-.11.36-.2s.18-.16.16-.22c-.02-.06-.11-.12-.28-.16-.17-.04-.37-.07-.61-.08-.24,0-.42-.01-.54-.01-.12,0-.24.02-.35.06-.11.03-.22.08-.33.13-.1.06-.19.12-.27.2-.07.08-.13.18-.18.28-.04.11-.07.23-.08.37-.01.14-.01.28,0,.42,0,.14.05.28.13.4.08.13.19.24.33.35.14.11.28.19.45.25.16.06.34.09.52.1.27.02.58,0,.93-.07"/>
          <path class="cls-2" d="M65.08,101.97c-.15.03-.23,0-.24-.08-.01-.06-.03-.1-.06-.12-.05-.04-.1-.06-.15-.08"/>
          <path class="cls-2" d="M64.41,101.96c-.12.05-.24.11-.34.19-.07.05-.13.12-.18.19-.05.07-.09.21-.12.41-.03.2-.04.35-.03.46,0,.11.04.21.1.31.06.1.13.19.21.28.08.09.17.16.27.22.1.06.26.13.5.21.23.08.41.12.54.14.12.01.25.02.38.02.13,0,.26,0,.39-.02.13-.02.26-.07.37-.15.12-.09.23-.2.33-.34.1-.14.21-.29.3-.46.1-.17.18-.34.24-.51.07-.17.12-.35.16-.53s.08-.36.11-.53c.03-.18.04-.48.03-.9,0-.42-.04-.83-.1-1.24-.06-.4-.11-.68-.15-.82-.04-.14-.08-.19-.12-.14-.04.04-.07.16-.1.36-.03.19-.05.44-.06.75-.01.3-.02.56-.02.77,0,.21,0,.43.02.65.02.23.04.46.08.69.04.23.09.46.16.71.07.24.15.49.25.73.1.24.21.44.33.6.12.16.24.29.37.37.13.08.26.13.38.15.13.02.24,0,.32-.05.09-.05.16-.13.23-.25.1-.19.16-.34.18-.45"/>
          <path class="cls-2" d="M66.78,101.2c-.1.05-.09.08.02.12.09.02.34.05.76.08.42.03.9.05,1.42.06.53.01.91.02,1.16.02"/>
          <path class="cls-2" d="M73.27,101.92c-.13,0-.2,0-.2,0h0s.01,0,.01,0h0s0,0,0,0c-.01,0,.03,0,.12.01"/>
          <polyline class="cls-2" points="73.32 104.59 73.1 104.66 73.1 104.66 73.11 104.66 73.09 104.66"/>
          <path class="cls-2" d="M81.17,101.83c.02-.06-.07-.08-.26-.08-.19,0-.34.03-.46.1-.12.07-.22.15-.3.24-.08.09-.12.19-.14.31-.02.11-.01.21,0,.28.02.07.11.19.26.37.15.18.32.36.51.55.19.19.32.33.39.42.07.08.14.2.21.35.07.15.1.24.1.29,0,.05-.06.1-.18.15-.12.05-.36.08-.71.09-.35,0-.63-.01-.81-.05-.19-.04-.31-.08-.36-.1-.08-.03-.12-.07-.13-.11"/>
          <path class="cls-2" d="M82.46,100.87c-.22-.1-.33-.06-.34.11,0,.12,0,.25.02.39.02.14.12.51.29,1.12.18.61.3,1.06.37,1.36.07.3.12.51.16.63.04.12.09.12.15,0s.14-.31.24-.57c.1-.26.18-.47.25-.61.07-.14.17-.34.33-.59.15-.25.26-.41.34-.49.08-.07.15-.13.23-.17.08-.04.16-.06.25-.07.09,0,.17,0,.24.04.08.03.14.09.2.19.06.1.12.22.18.35.06.13.1.27.14.4.04.14.06.27.09.41.02.14.04.36.06.68.02.31.05.54.09.67"/>
          <path class="cls-2" d="M88.98,102.84c.07-.22.08-.37,0-.47-.05-.07-.13-.12-.25-.16s-.27-.07-.44-.07c-.17,0-.3,0-.39.02-.09.02-.18.06-.28.12-.09.06-.18.13-.25.21-.07.08-.14.18-.19.28-.05.1-.1.21-.13.32-.04.11-.05.22-.06.33,0,.11,0,.21.02.32.02.1.06.2.13.3.07.1.14.18.24.24.09.07.19.12.29.17.1.05.25.09.45.12.2.03.35.04.44.03.09-.01.18-.05.26-.11.08-.06.18-.18.32-.37.14-.19.25-.39.34-.6.09-.21.15-.42.2-.64.04-.22.07-.4.07-.56,0-.16-.02-.25-.06-.28-.04-.03-.09,0-.15.09-.06.09-.1.18-.12.27-.02.09-.04.25-.04.47,0,.23,0,.4,0,.51,0,.11.02.23.05.36.03.12.07.24.12.34.05.11.1.2.17.29.06.09.14.17.22.24.08.07.18.12.27.14.1.03.2.04.31.04.11,0,.23-.04.36-.12.13-.08.26-.18.37-.31.12-.13.23-.27.35-.44.12-.17.23-.34.34-.53.11-.19.2-.37.27-.55.07-.17.14-.35.19-.53.05-.18.1-.36.13-.55.04-.19.06-.41.06-.66,0-.26,0-.43-.03-.51-.03-.09-.06-.15-.09-.19-.03-.04-.08-.06-.15-.07-.07,0-.12.02-.18.09-.05.07-.1.19-.15.38-.05.18-.08.41-.11.69-.03.28-.04.66-.05,1.16,0,.49.01.82.04.97.03.15.07.29.13.42.06.13.12.25.2.35.08.11.17.19.26.25.09.06.24.1.45.12.21.02.37,0,.48-.05.11-.06.21-.13.31-.23.1-.1.19-.21.28-.33.09-.12.16-.25.22-.39.06-.14.14-.36.23-.68.09-.32.15-.57.17-.75.03-.18.05-.46.09-.85.03-.39.05-.67.06-.83,0-.16.02-.33.04-.52.02-.18.03-.28.03-.29,0-.01,0-.01,0,0,0,.01-.04.11-.12.3s-.13.35-.17.49c-.04.14-.08.3-.11.46-.03.17-.06.44-.07.81-.01.37-.02.67-.01.89,0,.22.03.43.09.64.06.2.14.4.24.58.1.18.22.34.35.48.13.14.28.23.43.27.24.06.42.07.54.03"/>
          <path class="cls-2" d="M98.13,102.66c-.29-.16-.53-.24-.72-.26-.13,0-.22,0-.27,0-.05.01-.11.08-.18.21-.07.12-.12.24-.14.34s-.03.22-.03.35c0,.13,0,.27.02.42.01.15.05.31.11.48.06.17.13.32.21.47.08.14.18.27.28.38.11.11.22.2.35.27.13.07.26.11.4.12.14.01.27,0,.41-.06.14-.05.27-.13.4-.26.13-.12.24-.27.33-.43.09-.17.15-.33.19-.5.04-.17.07-.34.08-.5.01-.17.01-.32,0-.45-.01-.14-.05-.26-.13-.37-.08-.11-.17-.2-.28-.28-.11-.08-.26-.13-.46-.17-.2-.03-.35-.05-.45-.04-.11,0-.18.02-.22.06"/>
          <path class="cls-2" d="M100.78,102.96c.01-.08-.03-.14-.13-.18-.07-.03-.12.02-.16.13-.03.12-.06.34-.07.67,0,.33,0,.55.01.67.02.12.05.23.1.33.05.11.1.2.17.3.07.09.14.17.22.23.08.06.17.1.25.13.09.03.18.05.27.05.09,0,.19,0,.28-.02.09-.02.18-.07.26-.15.08-.08.17-.17.25-.28s.16-.23.22-.36c.06-.13.12-.26.17-.39.05-.14.09-.27.13-.4.03-.13.06-.3.08-.5.02-.2.02-.33.02-.39,0-.06-.04-.09-.1-.11-.06-.02-.12.02-.16.13-.04.1-.07.26-.07.45,0,.2,0,.35.01.47.02.11.05.22.1.34.05.12.11.22.18.32.07.1.15.2.24.28.09.09.19.17.3.24.11.07.23.12.34.15.12.03.23.04.35.05.12,0,.24-.01.37-.04.13-.03.24-.08.35-.16.11-.08.2-.17.29-.27.09-.1.16-.21.24-.33.07-.12.13-.23.16-.34.04-.11.06-.28.08-.51.02-.23,0-.4-.03-.52-.03-.11-.11-.27-.24-.47-.13-.2-.24-.34-.35-.43-.1-.09-.18-.14-.23-.15-.05-.02-.08.03-.08.15,0,.12.04.25.14.41.1.16.23.3.38.43.16.13.29.23.4.29.11.06.22.11.33.14.11.04.23.06.36.08.13.02.34.03.63.03.29,0,.5-.02.63-.08.13-.05.26-.12.38-.2.12-.08.22-.17.3-.26.08-.09.14-.18.19-.27s.08-.22.11-.39c.02-.16.01-.27-.03-.32-.04-.05-.1-.09-.16-.11-.07-.03-.19-.04-.38-.03-.18,0-.33.03-.44.08-.11.05-.21.11-.3.18-.09.07-.17.15-.25.24-.08.09-.15.18-.22.28-.06.1-.11.21-.15.33-.04.11-.06.23-.06.36s0,.25,0,.38c.01.13.06.25.15.36.09.11.19.21.32.3.13.09.27.16.42.21.15.06.31.1.47.11.16.02.33.03.49.03.17,0,.33-.02.5-.06.26-.07.42-.14.49-.21"/>
          <path class="cls-2" d="M110.82,103.94c-.19.15-.32.28-.39.41-.05.09-.08.16-.1.23-.01.06-.02.1-.02.11,0,0,0,0,0-.04,0-.04,0-.18-.01-.42,0-.24,0-.42,0-.55,0-.13.04-.25.09-.38.05-.12.12-.24.2-.36.08-.11.19-.22.31-.33.12-.11.26-.2.4-.29.15-.08.31-.15.48-.2.17-.05.34-.09.52-.12.27-.04.52-.07.75-.08"/>
          <path class="cls-2" d="M120.13,102.16c.03-.12-.02-.19-.17-.2-.14-.01-.28.01-.42.07-.14.06-.27.13-.4.21-.13.08-.22.17-.29.26-.07.09-.11.19-.12.3,0,.11.05.23.16.36.11.13.26.27.45.42.19.15.36.31.53.47.16.16.27.28.32.36.05.08.09.19.12.33s.04.25.03.3c-.01.06-.08.12-.22.18-.14.07-.31.1-.52.1-.21,0-.37-.02-.49-.06-.12-.04-.22-.09-.32-.16-.1-.06-.21-.16-.34-.29-.13-.13-.2-.22-.21-.26-.02-.07-.04-.14-.04-.2"/>
          <path class="cls-2" d="M121.96,100.97c-.08-.2-.12-.28-.12-.24,0,.03-.01.1-.03.2-.01.11-.02.83-.02,2.18,0,1.34,0,2.1.01,2.27,0,.17.03.29.08.37.07.12.18.17.34.17"/>
          <path class="cls-2" d="M124.02,103.08c-.06-.17-.17-.15-.34.05-.17.21-.28.35-.33.43-.05.08-.08.16-.11.26-.03.09-.05.25-.06.47-.01.22,0,.39.06.5.05.11.12.21.23.29.1.08.22.16.35.21.13.06.28.09.43.11.15.01.3.02.45.01.15,0,.3-.04.44-.11.14-.06.26-.14.37-.24.1-.1.19-.21.25-.32.07-.11.12-.23.15-.35.03-.12.05-.23.05-.34,0-.11,0-.22-.04-.34s-.08-.22-.16-.33c-.07-.11-.16-.2-.25-.27-.09-.07-.19-.13-.3-.17-.11-.04-.27-.07-.47-.09-.21-.02-.4,0-.57.04"/>
          <path class="cls-2" d="M127.21,104.01c-.04.11-.06.25-.06.44,0,.12.04.36.1.71s.15.84.25,1.48c.1.63.18,1.05.22,1.25.04.2.07.27.07.21,0-.06,0-.21.01-.46,0-.25,0-.46,0-.65-.01-.19-.04-.47-.08-.85-.04-.38-.07-.68-.09-.91-.02-.22-.04-.45-.05-.67-.01-.22-.02-.43-.02-.64s0-.39.01-.57c.01-.17.05-.31.11-.42.06-.1.14-.18.22-.22.09-.04.19-.07.3-.08.11,0,.22,0,.33,0,.11.01.21.05.32.12.1.06.2.15.29.25.09.1.16.21.21.32.05.11.08.23.1.36s.03.26.03.41c0,.14,0,.28-.03.41s-.07.26-.13.39c-.07.13-.14.25-.24.37-.09.12-.19.22-.29.3-.1.08-.2.14-.3.19-.1.05-.2.08-.3.09-.1.02-.19.02-.27.02-.08,0-.14-.03-.18-.09-.06-.09-.1-.22-.11-.41"/>
          <path class="cls-2" d="M131.07,103.66c-.07.05-.12.16-.13.31-.01.1,0,.18.06.23.05.05.12.1.21.14s.26.08.51.11c.24.02.43.03.56.03s.25-.03.35-.08c.11-.05.2-.11.28-.19.08-.08.15-.15.19-.24.05-.08.07-.21.07-.38,0-.17-.03-.3-.08-.38-.06-.08-.13-.16-.21-.24-.08-.08-.18-.14-.28-.2-.11-.06-.22-.11-.33-.15-.11-.04-.28-.07-.48-.07-.21,0-.36.01-.45.06-.09.04-.17.11-.24.19-.07.08-.12.18-.15.29-.04.11-.06.23-.08.37-.02.14-.02.29-.02.44,0,.16.01.32.04.49.03.17.08.35.15.53.07.18.16.34.26.49.1.15.23.27.37.38.15.11.31.2.49.26.18.07.36.11.56.12.19.01.39,0,.59-.02.29-.04.58-.14.87-.32"/>
          <path class="cls-3" d="M50.62,43.66c-.05.14,0,.19.11.18.09-.01.21-.04.35-.09.15-.05.27-.08.39-.11.11-.03.19-.05.24-.05.05,0,.08,0,.08,0h0s-.01,0-.01,0c-.01,0-.13.01-.35.03-.22.02-.44.06-.66.11-.22.05-.41.09-.58.1-.17.01-.26-.02-.28-.09-.02-.07-.03-.15-.03-.24,0-.09.25-.13.76-.14.51,0,.91-.02,1.2-.05.29-.03.59-.07.9-.12.31-.05.55-.1.74-.15.18-.05.44-.14.76-.26.32-.12.67-.27,1.05-.44.38-.18.76-.35,1.15-.51.38-.17.67-.29.87-.37.2-.08.42-.17.65-.28.24-.11.45-.19.62-.26.18-.07.29-.1.34-.11.05,0,.08-.01.08-.01,0,0,0,0,0,0,0,0-.06,0-.17,0-.11,0-.32.05-.64.14-.32.09-.63.18-.94.27-.31.09-.58.17-.81.24-.24.07-.46.13-.67.18-.21.06-.4.1-.55.13-.15.03-.26.06-.33.08-.07.02-.1.03-.11.03,0,0,0,0,0,0,0,0,.04,0,.11,0,.07,0,.24-.07.52-.2.28-.13.5-.23.67-.29.17-.06.39-.13.67-.21.28-.07.51-.12.71-.15.19-.03.29-.04.3-.05.01,0,.01,0,0,0s-.09.04-.25.12c-.16.08-.35.18-.57.31-.22.13-.45.26-.7.4-.24.14-.43.24-.57.31-.13.07-.32.15-.57.26-.24.1-.47.19-.69.27-.22.08-.46.17-.73.27-.27.1-.48.18-.63.23-.15.05-.34.1-.58.16-.24.06-.39.1-.46.13-.07.03-.16.04-.27.03-.11,0-.19-.01-.24-.03-.05-.01-.07-.04-.08-.07,0-.04.07-.1.23-.17.16-.08.33-.15.52-.22.18-.07.34-.13.48-.17.13-.04.25-.07.36-.08.11-.01.3-.02.57-.02.27,0,.51-.03.72-.09.21-.06.46-.14.75-.26.29-.11.56-.23.81-.34.25-.11.46-.2.62-.26.16-.07.3-.12.42-.15.12-.04.18-.05.19-.06.01,0,.01,0,0,0-.01,0-.07,0-.18.02-.11.01-.29.05-.54.12-.25.07-.41.12-.49.15-.08.03-.12.04-.13.04h0s.01,0,.01,0c.01,0,.14-.05.39-.15.24-.09.51-.2.8-.32.29-.12.82-.34,1.6-.66.78-.32,1.4-.56,1.84-.74.45-.17.87-.32,1.26-.45.39-.13.69-.23.88-.28.19-.06.48-.13.86-.23.38-.1.65-.16.79-.2.15-.04.23-.05.24-.06.01,0,.01,0,0,0,0,0-.07,0-.18,0-.11,0-.45.11-1.03.31-.58.2-1.23.44-1.96.7-.73.27-1.22.46-1.49.58-.27.12-.43.19-.48.22-.05.03-.07.05-.05.05.02,0,.08,0,.16,0,.09,0,.29-.05.61-.15.32-.1,1.11-.38,2.36-.83s2.37-.84,3.33-1.18c.97-.34,1.86-.65,2.69-.95.83-.3,1.55-.54,2.16-.73.61-.19,1.08-.34,1.41-.44.33-.1.51-.16.56-.17.04,0,.06-.01.07-.02,0,0,0,0,0,0,0,0-.07,0-.18,0-.11,0-.32.05-.62.13-.3.09-.66.2-1.07.35-.41.14-.84.3-1.3.47-.46.17-.79.3-1.01.39-.21.09-.44.18-.66.29-.23.1-.5.23-.82.39-.32.16-.5.25-.56.29-.05.04-.09.06-.11.07-.02.01-.02.02,0,.02.02,0,.05,0,.11,0,.05,0,.15-.01.28-.04.13-.03.3-.08.5-.14.2-.07.6-.22,1.18-.45.59-.23,1.06-.42,1.41-.55.35-.14.75-.28,1.17-.44.43-.16.89-.33,1.39-.5.5-.18,1.19-.41,2.08-.71.88-.29,1.5-.49,1.83-.6.34-.11.61-.19.8-.24.2-.05.33-.08.39-.1.07-.01.1-.02.11-.02,0,0,0,0,0,0-.01,0-.08.04-.21.1-.13.06-.5.21-1.11.45-.61.24-1.13.44-1.54.6-.42.16-.87.34-1.37.53-.5.2-1,.4-1.51.61-.51.21-1.05.45-1.64.72-.59.27-1.2.55-1.83.85-.63.3-1.46.68-2.47,1.14-1.01.47-1.72.8-2.13,1-.4.2-.73.37-.97.51s-.43.25-.56.34c-.13.08-.2.14-.23.17-.03.03,0,.04.05.04.06,0,.2-.02.4-.08.21-.06.67-.23,1.4-.52.73-.29,1.33-.53,1.8-.71.48-.18.99-.37,1.54-.57.55-.2,1.38-.49,2.48-.88,1.1-.39,1.93-.68,2.5-.88s1.05-.38,1.45-.53c.4-.15.73-.27.99-.37.26-.09.45-.15.56-.18.11-.03.17-.04.18-.04,0,0,0,0,0,0,0,0-.08.04-.23.1-.14.06-.56.25-1.25.57-.69.32-1.3.59-1.82.81-.53.22-1.11.45-1.76.69-.65.24-1.16.42-1.52.55-.36.12-.91.32-1.65.58-.73.26-1.66.63-2.79,1.1-1.13.47-1.98.82-2.58,1.06-.59.24-1.24.48-1.95.73-.71.25-1.11.4-1.19.44-.09.05-.12.08-.09.1.03.02.16.02.39,0,.23-.02.55-.1.95-.22s.89-.28,1.47-.46c.57-.18,1.23-.39,1.97-.62.74-.24,1.48-.49,2.23-.76.75-.27,1.57-.56,2.45-.89.88-.32,1.82-.65,2.83-.99,1-.34,1.92-.64,2.75-.89.83-.26,1.59-.49,2.27-.69.68-.21,1.28-.38,1.79-.53.51-.15.87-.24,1.08-.28.21-.04.31-.05.29-.03-.02.02-.08.07-.18.16-.09.08-.32.21-.68.38-.36.17-.81.36-1.36.58-.55.22-1.17.45-1.86.7-.69.24-1.42.5-2.19.76-.76.26-1.57.55-2.43.87-.85.32-1.74.65-2.67.99-.93.35-1.78.66-2.57.95-.79.29-1.5.55-2.14.81-.64.25-1.2.49-1.67.71-.48.22-.85.41-1.12.57-.27.15-.44.25-.5.3-.06.04-.11.07-.13.09-.03.02-.03.03-.02.03.02,0,.04,0,.08.01.04,0,.2-.03.49-.11.29-.08.69-.23,1.2-.45.51-.21,1.1-.46,1.79-.73.69-.27,1.85-.7,3.5-1.28,1.65-.58,2.98-1.06,3.99-1.45,1.01-.38,1.99-.74,2.95-1.06.95-.33,1.82-.61,2.62-.85.8-.24,1.48-.43,2.04-.57s.99-.24,1.28-.29c.29-.05.47-.08.53-.08.06,0,.1,0,.11,0,.02,0,.01,0,0,.02-.02.01-.07.05-.16.1-.08.05-.31.15-.67.29-.36.14-.83.31-1.4.52-.57.21-1.23.44-1.98.7-.75.26-1.54.54-2.39.86-.84.31-1.75.65-2.72,1-.97.36-1.99.73-3.08,1.11-1.08.38-2.08.76-3,1.11-.92.36-1.74.7-2.45,1.02s-1.33.59-1.83.81c-.5.22-.91.4-1.21.53-.3.13-.47.2-.5.21s-.04.02-.03.02c.01,0,.07,0,.19-.02.11-.01.38-.08.8-.21.42-.13.96-.31,1.62-.55.66-.24,1.41-.52,2.25-.85.84-.33,1.72-.67,2.63-1.03.91-.35,1.88-.7,2.91-1.04,1.03-.34,2.1-.69,3.21-1.05,1.11-.36,2.12-.71,3.04-1.04.92-.33,1.73-.59,2.44-.78.71-.19,1.3-.32,1.75-.4.45-.08.77-.12.95-.13.18,0,.24,0,.19.03-.05.02-.17.09-.37.18-.2.1-.55.25-1.07.45-.52.2-1.16.46-1.93.78s-1.59.65-2.46.99c-.87.34-1.8.69-2.8,1.06-1,.37-2.1.79-3.3,1.27-1.2.48-2.74,1.1-4.62,1.86-1.87.76-3.1,1.28-3.67,1.56-.58.28-.99.49-1.23.64-.24.15-.35.23-.31.23.04,0,.13,0,.29,0s.47-.09.95-.26c.48-.18,1.08-.41,1.8-.69.72-.29,1.55-.6,2.48-.93.93-.34,1.87-.67,2.8-.99.93-.33,1.93-.68,2.98-1.05,1.05-.37,2.14-.74,3.27-1.11,1.13-.37,2.13-.67,3-.91.87-.24,1.63-.45,2.28-.61.65-.16,1.2-.29,1.63-.39.43-.1.7-.16.8-.17.1-.01.17-.02.21-.02.04,0,.02.01-.06.06-.08.04-.21.12-.42.23-.2.11-.56.26-1.07.46-.51.19-1.13.42-1.87.67-.73.26-1.55.55-2.46.87-.91.32-1.8.65-2.68.98-.88.33-1.79.68-2.73,1.03s-1.88.71-2.8,1.06c-.92.35-1.69.66-2.31.94-.62.27-1.18.53-1.69.78-.5.24-.8.39-.9.44-.1.05-.13.07-.09.06.04,0,.15-.04.34-.09.19-.05.51-.16.97-.33.46-.17,1-.39,1.62-.65.62-.26,1.32-.54,2.1-.83.78-.3,1.61-.6,2.51-.92.9-.32,1.8-.63,2.69-.94.9-.31,1.8-.61,2.7-.9.9-.3,1.74-.56,2.53-.8.79-.23,1.42-.4,1.91-.51.48-.11.87-.19,1.15-.24.28-.05.46-.08.54-.08.07,0,.12-.01.13-.01.01,0,.01,0,0,0,0,0-.04.02-.09.05-.05.03-.5.18-1.34.46-.84.28-1.6.54-2.29.78-.68.24-1.43.51-2.23.8-.8.29-1.66.6-2.57.93-.91.33-1.79.64-2.63.93-.84.3-1.63.59-2.36.87-.73.29-1.39.56-1.95.82-.57.26-1.01.47-1.33.64-.32.17-.53.28-.63.33-.1.05-.16.08-.18.09-.02,0,0,0,.04,0,.04,0,.18-.03.4-.07.23-.04.57-.13,1.02-.28.45-.15.99-.34,1.6-.58.61-.24,1.27-.49,1.97-.76.7-.27,1.42-.53,2.18-.78.75-.25,1.55-.52,2.39-.78.84-.27,1.95-.6,3.34-1.01,1.39-.41,2.29-.67,2.72-.79.43-.11.73-.19.92-.21.19-.03.27-.03.26-.02-.02.01-.06.05-.13.11-.07.06-.28.17-.63.32-.35.15-.8.34-1.34.55-.54.22-1.15.45-1.84.7-.68.25-1.38.5-2.09.74-.71.24-1.45.5-2.22.76-.76.27-1.53.54-2.29.83-.76.29-1.43.56-2.01.8-.58.24-1.08.45-1.49.63-.41.18-.73.31-.96.41-.23.09-.32.15-.28.17.04.02.2,0,.48-.07s.64-.18,1.1-.33c.45-.15.98-.33,1.57-.54.59-.21,1.55-.56,2.87-1.05,1.33-.49,2.33-.85,3.01-1.08.68-.23,1.33-.44,1.94-.62.62-.18,1.12-.33,1.52-.43.4-.11.72-.18.95-.23.24-.05.36-.08.37-.08h.01s0,0,0,0c0,0-.07.02-.18.05-.11.03-.32.1-.62.2-.3.1-.68.23-1.14.38-.46.15-.96.31-1.5.49-.54.17-1.11.36-1.69.55-.58.2-1.19.42-1.82.66-.63.24-1.24.48-1.83.72-.58.24-1.12.46-1.59.66-.48.2-.86.37-1.16.49-.3.13-.48.21-.54.24-.06.03-.1.05-.11.05-.01,0,0,0,.03,0,.03,0,.13-.02.29-.04s.39-.08.7-.17c.31-.09.68-.2,1.11-.35.44-.14.88-.28,1.32-.43.45-.14,1.26-.41,2.45-.8,1.19-.39,1.84-.61,1.96-.66.12-.05.19-.07.2-.08.01,0,.01,0,0,0,0,0-.06,0-.14,0-.09,0-.24.04-.47.1-.23.06-.5.15-.84.27-.33.11-.88.31-1.64.58-.76.27-1.56.56-2.38.86-.82.3-1.38.5-1.66.61-.29.1-.52.19-.69.26-.18.07-.28.11-.31.12-.03.01-.03.01,0,.01.02,0,.12-.01.28-.03.16-.02.48-.09.95-.21.47-.12.86-.22,1.17-.3s.61-.15.9-.23c.29-.08.57-.15.85-.22.28-.07.55-.13.82-.2.27-.06.52-.11.76-.16.23-.04.35-.07.37-.07h.01s0,0,0,0c0,0-.06.01-.18.04-.11.02-.42.12-.93.29-.51.17-1.04.36-1.61.57-.57.21-.99.37-1.27.48-.28.11-.56.23-.84.36-.28.13-.4.21-.36.22.04.01.12,0,.25-.04.13-.04.5-.17,1.09-.39.6-.22,1.12-.41,1.58-.57s.92-.32,1.39-.49c.47-.17.88-.31,1.23-.44.35-.13.57-.22.67-.26.1-.05.16-.07.18-.08.02,0,.02-.01.01-.01,0,0-.04,0-.09.01-.05,0-.08.01-.08.01h0s0,0,0,0c0,0,.05-.01.15-.03.09-.02.32-.11.69-.26.37-.15.84-.35,1.41-.6.57-.25,1.02-.44,1.35-.59.33-.14.64-.27.92-.37.28-.1.58-.19.87-.28.3-.09.52-.15.65-.18.14-.04.38-.11.71-.23.33-.12.62-.23.86-.33.24-.11.45-.2.65-.28.19-.08.49-.19.89-.32.4-.14.75-.26,1.05-.37.31-.11.61-.23.9-.35.29-.12.59-.25.88-.38.29-.13.57-.25.85-.37.28-.11.54-.22.78-.3.24-.09.59-.2,1.05-.33.45-.13.79-.23,1-.31.21-.08.42-.16.6-.26.19-.09.32-.17.4-.23.08-.06.2-.13.38-.22.18-.09.43-.19.75-.3.32-.11.62-.21.88-.3.27-.08.53-.17.79-.26.26-.09.44-.16.57-.22.12-.05.22-.1.29-.14.07-.04.13-.09.18-.14.05-.05.19-.12.43-.21s.61-.21,1.11-.36c.5-.15.84-.24,1.01-.29.17-.05.32-.09.45-.14.12-.04.24-.09.35-.14.11-.05.26-.09.45-.14.19-.05.3-.07.31-.08.02,0,.01,0,0,0-.02,0-.16.07-.41.19-.25.11-.58.26-.98.43-.4.17-.86.39-1.39.65-.52.26-.89.44-1.09.54-.2.1-.4.2-.61.29-.2.09-.51.22-.92.38-.41.16-.76.3-1.07.41s-.6.22-.89.33c-.29.11-.53.2-.7.25-.18.06-.4.13-.67.23-.27.09-.58.19-.94.29-.35.1-.6.17-.75.2-.14.03-.22.05-.23.05h0s0,0,0,0c0,0,.07-.01.19-.03.12-.02.38-.09.8-.21.42-.12.81-.24,1.17-.35.37-.11.78-.24,1.23-.39.45-.14.94-.3,1.46-.46.52-.16.89-.28,1.12-.35.23-.07.55-.18.98-.32.43-.15.99-.35,1.7-.62.71-.27,1.39-.53,2.06-.79.67-.26,1.11-.43,1.34-.52.23-.09.6-.22,1.1-.4.5-.18,1.01-.37,1.53-.54.52-.18.96-.33,1.32-.45.37-.12.62-.21.78-.26s.4-.12.75-.21c.35-.09.62-.17.84-.24.21-.07.41-.14.59-.22.18-.08.4-.17.67-.27.26-.1.45-.17.57-.21.12-.04.28-.08.5-.13s.37-.09.47-.13c.1-.04.15-.12.15-.23,0-.11,0-.22-.03-.32-.02-.11-.05-.23-.06-.38-.02-.14-.04-.26-.06-.33-.02-.08-.08-.17-.17-.29-.09-.11-.22-.25-.38-.41-.16-.16-.32-.31-.47-.46-.15-.15-.29-.28-.4-.38-.12-.1-.23-.24-.35-.41-.11-.17-.2-.33-.27-.48-.07-.15-.13-.3-.17-.46-.05-.16-.09-.31-.12-.47-.04-.16-.08-.33-.13-.51-.05-.19-.09-.37-.1-.54-.01-.17-.04-.33-.07-.48-.03-.15-.11-.36-.22-.63-.11-.27-.22-.54-.32-.79-.1-.25-.18-.45-.24-.59-.05-.14-.16-.32-.31-.54-.15-.22-.26-.38-.32-.49-.06-.11-.15-.27-.24-.48-.1-.21-.16-.37-.18-.48-.02-.11-.03-.32-.03-.63,0-.31-.03-.55-.1-.7-.06-.16-.1-.28-.12-.36-.02-.08-.02-.14-.02-.19,0-.05.03-.07.09-.08.06,0,.17.02.32.08.15.06.27.12.36.18.09.06.17.14.23.23.06.09.14.21.21.36.08.14.18.33.31.55.13.22.24.43.33.62.09.19.16.4.23.63.07.23.14.44.21.64.07.2.13.38.16.54.03.16.05.29.05.39,0,.1-.01.23-.05.4-.03.17-.05.31-.06.42-.01.11-.02.34-.02.69,0,.35.02.61.06.78.04.17.09.34.14.52.06.18.13.36.22.54.09.18.13.26.13.24,0-.02,0-.07,0-.16,0-.08-.05-.28-.15-.59-.1-.31-.18-.58-.25-.82-.07-.24-.16-.58-.29-1.03-.12-.44-.21-.74-.27-.9-.06-.16-.12-.31-.2-.45-.08-.15-.24-.39-.49-.74-.25-.35-.42-.6-.52-.75-.1-.15-.22-.28-.34-.4-.12-.12-.25-.26-.36-.43-.12-.17-.23-.3-.32-.38-.09-.09-.17-.16-.22-.21-.05-.05-.14-.08-.26-.08-.12,0-.3.04-.54.12-.24.08-.5.16-.77.24s-.58.16-.93.25c-.34.09-.82.22-1.42.41-.61.19-1.09.34-1.46.45-.36.11-.67.2-.91.27-.24.07-.54.16-.89.28-.35.12-.64.22-.87.31-.23.09-.53.19-.9.32-.37.13-.69.23-.96.32-.27.09-.55.18-.83.26-.28.09-.66.2-1.14.33-.47.13-.87.24-1.2.32s-.58.16-.75.21c-.17.05-.45.16-.84.32-.39.16-.71.29-.96.4s-.52.21-.81.32c-.29.11-.56.21-.81.31-.26.1-.48.19-.66.28-.18.09-.37.19-.57.3-.2.11-.43.23-.71.35-.28.12-.52.22-.73.31-.21.08-.53.2-.95.35-.42.15-.82.29-1.21.42-.39.13-.72.25-1,.35-.27.1-.61.24-1.01.41-.4.17-.71.3-.93.39-.22.09-.54.22-.97.4-.42.18-.73.31-.9.4-.18.09-.37.17-.57.26-.2.09-.41.18-.63.27-.22.09-.4.17-.56.23-.15.07-.38.16-.68.27-.3.12-.56.2-.78.25-.22.05-.35.08-.37.09-.03,0-.04.01-.04.01,0,0,0,0,0,0,0,0,.04,0,.11-.01.06,0,.29-.09.68-.25.39-.16.84-.34,1.37-.56.53-.22,1-.42,1.41-.61.41-.19.84-.39,1.29-.61.45-.22.75-.36.88-.41.14-.05.23-.09.27-.09.05,0,.07-.01.07-.01h0s0,0,0,0c0,0-.08,0-.21.02-.13.01-.32.06-.58.15s-.64.24-1.17.46c-.53.22-1.1.45-1.73.69-.63.24-1.16.44-1.58.58-.42.15-.73.25-.92.31-.19.06-.55.17-1.09.31-.54.15-.82.23-.86.24-.04.02-.06.03-.07.03,0,0,0,0,.01,0,.02,0,.06,0,.14,0,.08,0,.33-.07.73-.2.41-.13.93-.31,1.55-.54.63-.23,1.19-.44,1.71-.64.51-.2.9-.35,1.17-.47.27-.11.63-.27,1.08-.46.45-.2.77-.33.98-.41.2-.08.39-.14.55-.2.17-.06.4-.12.69-.19.29-.07.52-.11.68-.12.16-.01.27-.02.32-.03.05,0,.06,0,.05.01-.02.01-.06.03-.12.07-.06.04-.21.1-.46.2-.24.1-.67.26-1.28.48-.61.22-1.04.38-1.3.48-.26.1-.55.2-.86.31-.31.11-.89.3-1.73.58s-1.48.49-1.91.63c-.43.14-.85.28-1.26.42-.4.14-.79.27-1.15.4-.36.13-.69.26-.99.38-.3.12-.58.25-.86.37-.27.12-.66.31-1.15.57-.49.25-.85.44-1.09.56-.24.12-.48.24-.72.36-.25.12-.48.23-.71.33-.23.1-.53.23-.9.38-.37.15-.63.26-.78.33-.15.06-.47.22-.96.46-.49.24-.9.45-1.22.62-.32.17-.6.31-.82.42-.22.11-.48.23-.77.36-.29.13-.65.3-1.07.5-.43.2-.78.36-1.05.48-.27.11-.56.22-.87.31-.31.1-.58.18-.81.26-.23.08-.5.14-.82.21-.32.06-.53.12-.62.16-.1.05-.29.16-.58.35s-.53.34-.72.46c-.18.12-.38.23-.57.35-.2.12-.39.22-.59.32-.19.1-.36.18-.51.24s-.3.1-.46.13c-.16.03-.24.22-.25.57,0,.35.02.61.05.77.04.16.09.32.17.47.07.15.14.28.19.38.05.1.12.28.2.55.08.27.15.46.21.57.06.11.15.26.29.44.14.18.22.31.26.38.04.07.07.16.08.29.01.12.02.25.02.39s.02.27.05.42c.03.15.08.28.15.41.07.13.15.25.24.37.1.12.19.24.27.36.08.12.17.21.26.27.09.06.21.13.35.21.14.07.26.13.35.17.09.04.16.11.21.2.05.09.09.21.11.36.03.15.05.31.07.5.02.19.03.43.03.72,0,.3,0,.47,0,.52,0,.05,0,.07,0,.08h0s0,0,0,0v-.13c0-.08-.03-.2-.08-.37-.06-.17-.13-.36-.23-.59-.1-.22-.15-.38-.17-.46-.02-.09-.02-.25-.02-.48,0-.23,0-.36,0-.4,0-.04-.05-.05-.14-.04-.09.01-.17,0-.24-.04-.07-.04-.16-.06-.27-.06-.11,0-.17.05-.17.15,0,.1.01.2.04.28.03.08.1.23.22.46.12.23.21.37.27.44.06.07.12.11.2.13.07.02.12.09.15.21.03.12.04.28.04.48,0,.2,0,.35-.03.45-.02.1-.03.19-.03.26,0,.08.04.11.12.1.08,0,.21-.07.4-.2.19-.13.34-.24.47-.32.13-.08.29-.18.47-.28.18-.1.38-.21.6-.31.22-.1.58-.26,1.07-.46.5-.2.87-.35,1.11-.44.25-.09.47-.16.67-.22.2-.06.46-.13.77-.19.32-.07.55-.13.7-.18.15-.05.38-.15.68-.29.3-.14.65-.28,1.06-.42.41-.14.79-.27,1.15-.42.35-.14.67-.27.94-.39.27-.12.55-.23.83-.33.28-.1.55-.2.8-.27.25-.08.49-.15.72-.21.23-.07.36-.1.39-.1.03,0,.04,0,.05,0s0,0,0,0-.04.01-.11.03c-.07.02-.31.13-.71.34-.4.21-.79.41-1.16.6-.37.2-.65.34-.84.44-.19.1-.4.2-.63.31-.23.11-.47.22-.7.32-.24.1-.48.2-.72.3-.25.1-.5.2-.75.3-.26.11-.49.2-.71.29-.22.08-.5.2-.86.34-.35.14-.64.27-.87.38-.23.11-.38.19-.44.23-.06.04-.2.11-.41.21-.21.1-.41.2-.6.29-.19.09-.34.16-.46.21-.12.05-.23.08-.34.11-.1.02-.17.04-.19.04-.02,0-.01,0,.03-.03s.15-.09.34-.19c.19-.11.43-.23.74-.39.31-.15.57-.28.79-.37.22-.1.47-.2.74-.31s.59-.23.97-.36c.38-.13.65-.23.83-.28.17-.05.35-.1.53-.14.18-.04.44-.11.77-.2.34-.09.62-.17.86-.24.23-.07.55-.16.96-.26.4-.1.77-.19,1.08-.28.32-.08.66-.19,1.02-.31.37-.12.73-.25,1.09-.39.36-.14.69-.26.98-.36.29-.1.69-.22,1.17-.36.49-.14.84-.24,1.07-.31.22-.07.45-.15.67-.23.23-.08.51-.18.85-.31.34-.12.64-.23.9-.34.26-.1.53-.2.8-.3.27-.1.61-.24,1.02-.41.41-.17.82-.35,1.22-.53.4-.18.66-.3.78-.36.12-.06.44-.19.97-.41.53-.22.97-.4,1.33-.57.36-.16.68-.3.95-.41.27-.11.58-.22.91-.34.33-.12.68-.25,1.06-.38.38-.13.76-.27,1.15-.42.39-.15.69-.26.9-.35.21-.08.5-.21.86-.38.36-.17.73-.33,1.08-.48.36-.15.79-.31,1.29-.48.5-.17.92-.32,1.26-.44.34-.12.77-.28,1.3-.46.53-.19.88-.32,1.05-.38.18-.07.47-.17.89-.31.42-.14.83-.27,1.23-.39.4-.12.95-.28,1.63-.49.68-.2,1.04-.3,1.07-.31.03,0,.05,0,.05,0h0s0,0,0,0c0,0-.06.01-.17.04-.11.02-.37.12-.78.28-.41.16-.81.31-1.19.44-.38.13-.68.23-.9.3-.22.07-.44.14-.67.2-.22.06-.46.12-.71.18-.25.06-.52.12-.79.18-.27.06-.61.12-1.02.19-.41.07-.69.12-.83.15-.15.03-.23.04-.24.05h0s0,0,0,0c.01,0,.08-.02.22-.05.14-.03.52-.15,1.15-.35.63-.2,1.35-.43,2.17-.68.82-.25,1.55-.48,2.18-.68.63-.2,1.09-.34,1.37-.43.28-.09.68-.2,1.19-.35.51-.15.86-.25,1.06-.3.2-.05.53-.15.99-.29.47-.14.8-.24,1.01-.3.21-.06.42-.12.61-.19.2-.07.41-.15.63-.24.22-.09.49-.19.8-.27.31-.09.67-.19,1.07-.31.4-.12.77-.22,1.11-.31.34-.09.67-.19,1-.29s.65-.22.97-.33c.32-.11.64-.22.96-.3.32-.09.56-.14.71-.17.15-.02.25-.06.29-.12.05-.06.08-.15.1-.27.02-.12.03-.27.03-.45,0-.18,0-.32-.02-.42-.02-.1-.05-.21-.1-.32-.05-.11-.23-.38-.54-.8-.31-.42-.56-.75-.77-1-.2-.25-.33-.41-.37-.49-.04-.08-.08-.22-.1-.42-.02-.2-.05-.35-.08-.45-.03-.1-.1-.27-.22-.5-.11-.24-.2-.39-.25-.47-.06-.08-.11-.13-.18-.16-.06-.03-.12-.04-.19-.04-.07,0-.21.08-.44.24-.23.16-.42.28-.56.38-.15.1-.32.21-.51.32-.19.12-.42.25-.66.39-.25.14-.54.3-.88.47-.34.18-.72.36-1.14.56-.42.2-.9.41-1.44.65s-1.12.48-1.75.73c-.63.25-1.29.5-1.97.73-.68.24-1.39.48-2.14.72-.74.25-1.51.51-2.29.8-.78.29-1.57.59-2.35.91-.79.32-1.58.63-2.39.94-.81.31-1.59.6-2.37.88-.77.28-1.51.56-2.21.83-.7.27-1.38.54-2.02.8s-1.26.5-1.83.72c-.57.22-1.09.41-1.55.57-.46.16-.87.3-1.22.42-.35.12-.55.18-.58.19h-.03s0,0,0,0c.02,0,.13-.05.34-.12.21-.07.49-.18.84-.32.35-.14.77-.3,1.24-.49.47-.19,1.28-.5,2.44-.94,1.16-.44,2.35-.86,3.56-1.28,1.22-.42,2.08-.71,2.59-.86.51-.16.94-.28,1.3-.37.36-.09.6-.15.72-.17.12-.02.19-.03.19-.03h0s0,0,0,0c0,0-.05,0-.14.02-.09.01-.3.06-.64.15-.34.09-.79.22-1.36.38-.57.17-1.2.36-1.9.59-.7.23-1.48.49-2.33.8-.85.31-1.86.68-3.02,1.12-1.16.44-2.34.89-3.54,1.34-1.2.45-2.4.93-3.6,1.42-1.2.5-2.38.98-3.55,1.45-1.17.47-2.23.91-3.2,1.31-.97.4-1.89.8-2.77,1.2-.88.4-1.67.75-2.37,1.06-.71.3-1.35.58-1.94.82l-.84.35h0s.12-.04.26-.09c.14-.05.4-.15.78-.32.38-.17.84-.37,1.37-.6.54-.23,1.09-.47,1.67-.73.58-.25,1.18-.52,1.81-.81.63-.29,1.28-.57,1.94-.86.66-.29,1.26-.54,1.81-.76.54-.22,1-.38,1.39-.5.38-.11.66-.18.84-.2.18-.02.26,0,.24.03-.02.04-.11.1-.28.19-.17.09-.4.2-.7.34-.3.14-.65.29-1.04.47-.39.17-1.1.5-2.13.97-1.03.47-1.81.82-2.36,1.06-.54.24-1.07.47-1.59.69-.52.22-1.01.43-1.49.62-.47.2-.86.37-1.17.51-.31.15-.55.27-.73.37-.18.1-.3.16-.34.2-.05.03-.08.06-.09.07-.02.01,0,.02.02.02s.09,0,.18,0c.09,0,.23-.03.42-.09.19-.06.4-.12.63-.2.23-.08.63-.21,1.2-.39.57-.18.99-.31,1.24-.39.26-.08.51-.15.75-.21.24-.07.47-.13.69-.18.22-.05.39-.1.53-.12.13-.03.23-.04.28-.05.06,0,.09,0,.09,0,0,0,0,0,0,0,0,0-.04.01-.11.03-.07.02-.18.06-.34.12-.16.06-.36.15-.6.26-.24.11-.52.24-.83.39-.31.15-.87.43-1.68.85-.81.42-1.59.82-2.36,1.22-.77.4-1.28.66-1.54.78-.26.12-.46.22-.61.28-.15.06-.24.1-.25.1-.01,0,0,0,.02-.02.03-.02.19-.14.48-.35.29-.21.71-.52,1.27-.91.56-.39.9-.64,1.05-.75.14-.11.27-.2.37-.29.1-.09.17-.16.22-.23.05-.06.06-.11.04-.15-.02-.03-.09-.06-.2-.09-.11-.02-.26-.04-.45-.05-.18-.01-.52-.02-1.03-.02-.5,0-.9,0-1.21.02-.3.02-.6.04-.88.07-.28.03-.55.06-.8.09-.25.03-.47.05-.67.06-.2.02-.35.02-.45.02-.1,0-.17-.01-.2-.04-.03-.03-.04-.08-.04-.17,0-.09.07-.2.19-.34.12-.14.28-.3.49-.47.2-.17.44-.36.71-.56.27-.2.55-.4.85-.6s.61-.38.93-.56.64-.34.96-.49c.32-.15.63-.27.92-.37.29-.1.56-.17.82-.23.26-.05.51-.1.74-.12.24-.03.43-.04.59-.05.16,0,.28.01.37.04.09.03.14.08.15.15.01.07-.02.16-.1.27-.08.1-.2.22-.38.36-.17.13-.37.26-.6.39-.23.13-.47.25-.74.38-.26.13-.55.25-.85.37-.3.12-.6.23-.89.33-.29.1-.59.18-.91.25-.32.07-.64.12-.97.16-.33.03-.63.05-.89.05-.26,0-.48-.03-.67-.1-.19-.07-.34-.16-.46-.28-.12-.12-.18-.27-.2-.44-.01-.17.02-.37.1-.6.08-.23.22-.48.41-.77.19-.28.42-.54.7-.79.27-.25.59-.49.94-.72.36-.23.74-.45,1.17-.67.42-.22.83-.41,1.22-.57.39-.16.78-.3,1.17-.43.39-.13.77-.24,1.14-.33.37-.09.7-.16.97-.19.28-.03.52-.05.73-.05.21,0,.38.02.52.07.13.05.22.12.25.21.03.09.02.19-.03.32-.05.12-.17.26-.34.41-.18.15-.4.31-.67.46-.27.15-.58.31-.93.47-.35.16-.72.32-1.11.48-.4.16-.78.3-1.16.42-.37.12-.75.23-1.13.32-.38.09-.75.17-1.12.22s-.67.08-.9.09-.4-.02-.52-.07c-.12-.05-.2-.12-.24-.21-.04-.09-.04-.18-.02-.27.02-.1.1-.2.23-.32.13-.12.31-.25.52-.39.22-.14.46-.29.74-.44.28-.15.78-.4,1.52-.74s1.29-.6,1.65-.75c.36-.15.71-.27,1.04-.37.33-.1.62-.16.89-.2.26-.04.45-.05.56-.05.11,0,.18.02.2.07.02.05.02.11-.01.17-.03.07-.22.19-.58.39-.35.19-.67.35-.94.46-.27.12-.54.22-.8.32-.27.1-.52.19-.77.27-.25.08-.48.15-.7.21-.22.06-.39.09-.51.11-.12.01-.2.02-.24.02-.04,0-.05,0-.03-.02.02-.02.07-.06.14-.12.07-.06.24-.16.53-.32.29-.16.66-.35,1.12-.57s.99-.47,1.6-.74,1.31-.55,2.11-.85c.8-.3,1.67-.62,2.61-.97.94-.35,1.91-.71,2.9-1.08.99-.37,1.94-.71,2.87-1.02.93-.31,1.84-.59,2.73-.84.89-.26,1.73-.48,2.52-.69.79-.2,1.49-.38,2.11-.53.62-.15,1.16-.27,1.62-.37.46-.1.82-.17,1.1-.21.27-.04.45-.06.53-.06.08,0,.1,0,.06.03-.04.02-.14.07-.3.16-.16.08-.42.2-.77.34-.35.14-.77.3-1.25.47-.48.17-1,.35-1.56.53-.56.18-1.11.35-1.64.5-.53.15-1.03.29-1.49.41-.46.12-.89.22-1.27.3-.38.08-.62.12-.72.13-.09,0-.09-.03,0-.12.1-.08.3-.2.61-.36.31-.15.72-.34,1.22-.56.5-.22,1.09-.47,1.76-.74.67-.28,1.45-.59,2.33-.94.88-.35,1.81-.69,2.79-1.02.98-.33,1.96-.65,2.94-.96.98-.3,1.91-.6,2.8-.88.89-.28,1.7-.54,2.43-.78.73-.24,1.39-.45,1.97-.61.58-.17,1.05-.3,1.4-.39.36-.09.59-.15.71-.17s.18-.04.19-.04c0,0,0,0,0,0-.01,0-.13,0-.33.03-.21.02-.52.07-.95.17-.42.1-.94.23-1.55.39-.61.16-1.7.49-3.26.98-1.56.49-2.79.87-3.7,1.15-.91.28-1.78.54-2.63.79-.84.25-1.62.47-2.34.68-.72.2-1.32.38-1.81.52-.49.14-.8.22-.94.25-.14.03-.22.04-.23.04,0,0,0,0,0,0,0,0,.08-.04.22-.11.14-.07.38-.18.72-.32.35-.15.78-.32,1.3-.52.52-.2,1.13-.41,1.82-.65.69-.23,1.4-.46,2.11-.69.71-.23,1.48-.48,2.31-.75.83-.27,1.71-.55,2.66-.85.94-.3,1.8-.56,2.56-.77.76-.21,1.44-.39,2.02-.53.58-.14,1.06-.24,1.44-.32.38-.08.61-.12.7-.13.09-.01.14-.02.14-.02,0,0,0,0-.03.01-.03,0-.19.06-.48.17-.29.1-.66.22-1.11.35-.45.13-.98.29-1.6.48-.62.18-1.32.4-2.09.65s-1.53.5-2.29.75c-.76.25-1.57.51-2.42.78-.86.27-1.72.53-2.57.78-.86.25-1.56.45-2.12.59-.55.15-1.03.27-1.42.37-.4.1-.61.15-.64.15-.03,0-.04.01-.04.01,0,0,.03,0,.08,0,.05,0,.48-.13,1.29-.38.81-.25,1.55-.48,2.21-.68.66-.2,1.38-.41,2.16-.64.78-.23,1.62-.48,2.54-.76.91-.28,1.84-.55,2.76-.82.93-.27,1.83-.51,2.72-.71.89-.21,1.69-.37,2.41-.48.72-.11,1.28-.18,1.67-.2.39-.02.69-.03.88-.03.19,0,.3.04.33.09.03.06-.02.14-.17.26-.14.12-.69.41-1.64.89-.95.48-1.77.87-2.47,1.18-.69.31-1.45.64-2.28.97-.83.34-1.72.7-2.67,1.08-.95.38-1.84.74-2.65,1.09-.82.34-1.54.65-2.16.92-.63.27-1.14.5-1.55.69-.41.19-.69.33-.83.42-.14.09-.22.15-.22.18,0,.03.08.05.25.06.17,0,.42-.02.77-.07.35-.05.76-.14,1.25-.26.49-.12,1.04-.27,1.66-.45s1.25-.36,1.89-.55c.65-.19,1.32-.39,2.01-.6.69-.21,1.38-.43,2.07-.64.69-.21,1.3-.4,1.83-.55.53-.15.97-.26,1.31-.34.34-.08.57-.12.68-.14.11-.02.18-.02.2-.03.02,0,.01,0-.02.02-.03.02-.15.07-.36.17-.21.1-.51.23-.92.4-.4.17-.88.36-1.44.58-.55.22-1.17.46-1.86.72-.68.25-1.79.65-3.33,1.19-1.54.54-2.61.94-3.23,1.19-.62.26-1.13.48-1.53.69-.41.2-.68.36-.83.46-.15.1-.13.17.04.2.17.03.43.02.79-.03.35-.05.77-.13,1.26-.24.49-.11,1.03-.25,1.63-.41.6-.16,1.21-.33,1.82-.51.62-.18,1.25-.35,1.9-.52.65-.17,1.29-.33,1.92-.47.63-.14,1.17-.25,1.63-.34.46-.08.83-.14,1.11-.17.28-.03.47-.05.56-.06.09,0,.14,0,.15,0,0,0,0,0-.01,0-.01,0-.14.03-.37.08-.24.05-.55.13-.94.24-.39.11-.85.23-1.37.39-.53.15-1.09.33-1.71.52s-1.24.4-1.9.62c-.65.22-1.27.42-1.86.61-.59.19-1.11.36-1.57.51-.46.15-.82.27-1.09.36-.26.09-.39.15-.38.17.01.02.14,0,.36-.05.23-.05.54-.14.95-.25s1.19-.34,2.36-.69c1.17-.35,2.08-.62,2.73-.82.66-.2,1.33-.4,2.03-.6.7-.2,1.37-.38,2-.53.64-.16,1.17-.27,1.61-.36.44-.08.8-.15,1.07-.19.27-.04.43-.07.48-.07.05,0,.08,0,.08,0h0s0,0,0,0c0,0-.04,0-.1,0-.06,0-.22.03-.46.08-.25.05-.57.12-.97.22-.4.1-.86.23-1.39.38-.53.16-1.11.33-1.74.54-.64.2-1.25.4-1.84.6-.59.2-1.4.47-2.44.83-1.04.35-1.65.57-1.85.64-.19.07-.28.11-.27.11.02,0,.06,0,.13.02.07.01.25-.02.54-.1.29-.07.67-.18,1.12-.3.45-.13.98-.28,1.57-.45.6-.17,1.2-.36,1.81-.55.61-.19,1.27-.41,1.98-.64.71-.23,1.47-.48,2.28-.74.81-.26,1.55-.5,2.22-.71.67-.22,1.29-.43,1.85-.63.56-.2,1.06-.41,1.5-.62.44-.21.78-.39,1.02-.55.25-.16.44-.29.57-.39.13-.1.22-.19.26-.26.04-.07.06-.12.07-.16,0-.04-.06-.08-.18-.14-.12-.06-.3-.09-.52-.1-.22-.01-.31-.04-.24-.08.06-.04.18-.09.36-.14.18-.05.59-.17,1.25-.34.65-.17,1.36-.35,2.13-.53.76-.18,1.46-.34,2.09-.48.63-.14,1.04-.23,1.24-.27.19-.04.34-.06.43-.08.09-.01.14-.02.15-.02,0,0,0,0-.02,0-.02,0-.16.04-.44.11-.27.07-.75.19-1.42.36-.67.17-1.22.31-1.64.42s-.96.25-1.63.43c-.67.18-1.13.3-1.39.38-.26.07-.45.13-.57.18-.12.05-.18.08-.16.11.01.03.09.04.24.04.14,0,.32,0,.54-.03.22-.02.47-.05.76-.1.29-.05.75-.13,1.39-.24s1.13-.2,1.46-.27c.33-.06.84-.16,1.51-.3l.85-.18h-.03c-.13.02-.41.08-.85.19-.44.1-.92.21-1.43.33-.52.12-1.01.22-1.48.32-.47.1-.82.17-1.07.21-.25.04-.38.07-.4.07-.02,0-.02,0-.02,0,0,0,.03,0,.07,0,.04,0,.12-.04.23-.1.11-.07.23-.14.35-.23.12-.09.21-.17.29-.26.07-.09.12-.19.14-.29.02-.11.01-.19-.02-.24-.03-.06-.08-.12-.16-.18-.08-.06-.17-.12-.28-.18-.11-.06-.24-.11-.38-.16-.14-.05-.29-.1-.46-.13-.16-.04-.34-.06-.53-.07-.19,0-.42,0-.68.01-.26.02-.56.06-.91.13-.34.07-.71.16-1.1.25-.39.09-.81.19-1.25.29-.44.1-.91.19-1.39.29-.48.1-.96.18-1.43.25-.47.07-.96.13-1.45.18-.49.05-.95.09-1.37.12-.42.03-.81.06-1.19.08-.38.02-.72.03-1.02.03-.3,0-.53,0-.67-.03-.14-.02-.22-.05-.25-.1-.03-.05,0-.12.06-.2.07-.08.23-.18.48-.3.25-.12.59-.26,1-.42.42-.16.9-.34,1.45-.53.55-.19,1.1-.38,1.66-.57.56-.19,1.14-.37,1.72-.54s1.2-.35,1.84-.52c.64-.17,1.23-.31,1.75-.43.53-.12,1.01-.23,1.45-.33.44-.1.92-.21,1.44-.34.52-.13.8-.2.85-.21.04-.01.07-.02.07-.02s0,0-.02,0c-.02,0-.11,0-.28.02-.17.01-.42.05-.77.12-.34.07-.77.15-1.27.26-.51.11-1.04.22-1.6.33-.56.11-1.15.23-1.76.35-.61.12-1.27.24-1.96.37-.69.13-1.33.25-1.92.35s-1.12.2-1.6.28-.89.14-1.22.18c-.34.04-.56.06-.68.06-.12,0-.18-.03-.19-.1,0-.07.06-.17.2-.3.14-.13.37-.27.68-.43.31-.16.68-.32,1.13-.5.45-.18.95-.36,1.51-.56.56-.2,1.12-.39,1.68-.57.55-.18,1.12-.37,1.71-.57.58-.2,1.18-.4,1.79-.62.61-.21,1.14-.4,1.58-.55.45-.15.83-.28,1.14-.37.31-.09.54-.15.69-.19.15-.03.22-.05.24-.05h.01s0,0,0,0c0,0-.06,0-.15.02-.09.01-.26.05-.5.11-.24.06-1.04.27-2.39.65-1.35.38-2.27.63-2.76.77-.49.13-.96.25-1.4.37-.45.11-.86.21-1.25.3s-.67.14-.86.17c-.19.03-.3.04-.34.05-.04,0-.04,0,0-.02.04-.02.14-.06.3-.14.16-.08.59-.24,1.28-.5.69-.25,1.25-.45,1.7-.59.45-.14.91-.27,1.39-.4.48-.13.97-.25,1.48-.37.51-.12.98-.21,1.42-.29.44-.08.85-.14,1.23-.2s.72-.11,1.02-.15c.3-.04.52-.06.69-.07s.26-.01.3-.02c.04,0,.04,0,.02.01-.02,0-.09.04-.19.08-.1.04-.41.14-.91.31-.5.16-.9.29-1.19.37-.29.09-.76.24-1.41.45-.65.21-1,.33-1.05.35-.05.02-.08.03-.08.03,0,0,0,0,0,0,.01,0,.07,0,.17-.01.1,0,.38-.09.84-.24.46-.15.84-.27,1.14-.36.3-.09.62-.19.96-.28.34-.09.69-.19,1.08-.29s.9-.22,1.55-.37c.65-.15,1.07-.24,1.27-.28.2-.04.32-.06.37-.07.05,0,.08,0,.08,0h0s0,0,0,0c0,0-.04,0-.11.01-.07,0-.29.06-.66.14-.37.09-.68.16-.95.22-.27.06-.64.14-1.14.24-.49.1-.93.18-1.32.26s-.64.12-.75.13c-.11.02-.17.02-.18.02h0s0,0,0,0c.01,0,.1-.02.27-.05.17-.03.58-.15,1.22-.34.64-.2,1.17-.37,1.59-.51.42-.14.72-.25.9-.31.18-.06.33-.12.45-.17.12-.05.21-.09.28-.13.07-.04.11-.08.14-.12.02-.04-.05-.07-.22-.07-.17,0-.34,0-.51.03-.17.02-.37.06-.59.11-.22.05-.6.15-1.13.3-.53.14-.92.25-1.19.33-.26.07-.52.14-.78.21-.26.06-.49.11-.71.15-.22.04-.33.06-.35.06-.01,0-.01,0,0,0,0,0,.1-.03.26-.08.16-.05.35-.11.56-.18.21-.07.43-.14.66-.21.23-.07.71-.21,1.44-.42.73-.21,1.24-.36,1.55-.45.3-.09.47-.14.49-.14h.02s0,0,0,0c-.01,0-.11.03-.28.09-.17.05-.37.12-.58.2-.21.08-.8.32-1.75.71-.96.39-1.63.68-2.03.85-.4.17-.81.36-1.22.56-.41.2-.78.4-1.09.6-.31.19-.59.38-.84.56-.24.18-.44.35-.6.5-.16.15-.25.28-.28.39-.03.11-.04.21-.02.31.02.1.09.19.22.28.12.08.29.15.51.2.21.05.47.08.78.09.3.01.65.02,1.03.02.38,0,.76-.01,1.13-.04.37-.03.74-.06,1.11-.1.37-.04.73-.07,1.08-.11.35-.03.66-.05.94-.07.28-.01.42,0,.41.05,0,.05-.09.11-.25.2-.16.09-.39.19-.69.3-.3.12-.88.35-1.74.7-.87.35-1.57.62-2.12.82-.54.2-1.14.41-1.77.63-.64.22-1.27.43-1.9.63-.63.2-1.21.39-1.75.58-.54.19-1.01.36-1.39.53-.39.17-.68.31-.87.44-.19.13-.32.23-.39.32-.06.09-.1.16-.1.21,0,.05.05.09.16.11.11.02.28.04.51.04.23,0,.51-.02.83-.05.33-.04.68-.11,1.07-.21.39-.1.79-.21,1.21-.33.42-.12,1.2-.35,2.34-.68,1.14-.33,1.89-.54,2.26-.64.37-.1.56-.15.59-.16h.03s0,0,0,0c-.01,0-.11.02-.3.06-.19.04-.57.14-1.14.31-.58.17-1.23.36-1.96.58s-1.41.42-2.04.61c-.63.19-1.03.3-1.19.35-.16.05-.26.08-.27.08-.02,0-.02,0-.02,0,0,0,.04,0,.11,0,.06,0,.19-.02.39-.06.19-.04.45-.11.76-.19.31-.09.67-.2,1.08-.32.41-.13.85-.26,1.32-.4.47-.14.99-.29,1.55-.44.56-.15,1.12-.3,1.69-.43.56-.13,1.27-.29,2.12-.47.85-.18,1.36-.28,1.52-.31s.25-.04.26-.04c.01,0,.01,0,0,0-.01,0-.1,0-.28,0-.17,0-.38.03-.63.08-.25.05-.72.14-1.41.29-.69.15-1.38.29-2.06.43-.68.14-1.22.25-1.61.33s-.57.12-.53.12c.04,0,.29-.06.76-.2.47-.13,1.09-.3,1.86-.5.78-.2,1.38-.36,1.81-.47.43-.11.87-.22,1.32-.34.45-.12.9-.23,1.34-.35.44-.12.82-.22,1.13-.3.31-.09.62-.18.92-.28.3-.1.44-.15.41-.15-.03,0-.11,0-.23,0-.12,0-.35.03-.69.09-.34.06-.61.1-.8.12-.19.02-.31.01-.35,0-.04-.02-.07-.1-.1-.24-.03-.14-.04-.27-.04-.4,0-.12,0-.26.03-.39.02-.14.08-.35.18-.63.1-.28.19-.52.27-.7.08-.19.13-.34.14-.45.02-.11,0-.21-.03-.28-.04-.07-.07-.13-.11-.16-.04-.03-.06-.05-.07-.06-.01,0,0-.01,0,0,.02,0,.05.02.1.03.05.02.17.08.34.18.17.11.28.19.34.24.05.06.07.1.05.13-.02.03-.13.05-.33.06-.2,0-.36,0-.49,0-.13,0-.25-.03-.37-.07-.12-.04-.24-.1-.37-.16-.12-.06-.23-.13-.34-.21-.1-.08-.19-.16-.27-.24-.07-.08-.14-.17-.19-.25-.05-.08-.08-.18-.09-.29-.01-.12.01-.21.08-.29.07-.08.07-.12,0-.14-.07-.02-.15-.02-.24-.02-.09,0-.21.01-.36.04-.15.03-.34.07-.57.13-.23.06-.51.14-.82.24-.32.1-.68.2-1.09.32-.41.12-.85.24-1.33.36-.48.12-.97.24-1.47.35-.5.11-.99.21-1.48.3-.49.09-.96.18-1.41.25-.45.08-1,.16-1.65.25-.65.09-1.03.14-1.14.15-.11,0-.16,0-.14,0,.02-.02.07-.05.14-.11.07-.06.19-.13.33-.21s.42-.2.81-.38c.39-.17.7-.3.92-.39.22-.09.53-.22.91-.38.38-.17.66-.29.82-.37.16-.08.27-.13.32-.16.05-.03.06-.04.02-.04-.04,0-.11,0-.23,0-.11,0-.28.03-.51.09-.23.06-.67.21-1.32.42-.65.22-1.17.39-1.56.52-.39.12-.8.26-1.25.39-.45.14-.87.27-1.26.38-.4.12-.93.27-1.59.45-.67.19-1.1.3-1.3.35s-.31.07-.32.08h-.01s0,0,0,0c.01,0,.09-.02.23-.06.14-.04.34-.1.59-.18.26-.08.74-.23,1.45-.43.71-.21,1.26-.37,1.64-.48.39-.11.98-.28,1.78-.5.8-.22,1.35-.37,1.65-.45s.57-.15.81-.2c.23-.06.36-.08.37-.09.01,0,0,0-.01,0-.02,0-.24.09-.65.23-.41.15-.77.27-1.09.38-.31.11-.85.28-1.61.52-.76.24-1.33.42-1.72.53-.39.11-.77.22-1.14.32-.37.1-.67.18-.9.23-.23.05-.39.08-.47.1-.09.01-.14.02-.15.02,0,0,0,0,.03-.01.03,0,.19-.07.51-.18.31-.11.64-.23.99-.34.35-.11.72-.23,1.12-.35.4-.12.82-.24,1.28-.36s.96-.25,1.53-.39c.57-.14,1.14-.28,1.72-.42.58-.14,1.17-.27,1.75-.39.58-.12,1.15-.24,1.7-.34.55-.1,1.03-.18,1.42-.23s.76-.08,1.08-.1c.32-.02.62-.03.88-.03.27,0,.48,0,.65,0,.17,0,.31.03.42.07.11.04.2.09.27.15.07.06.13.17.17.32.04.15.06.36.05.62,0,.26-.01.45-.04.58-.02.13-.04.22-.04.28,0,.06.04.11.12.14.08.03.18.05.32.07.14.01.29.04.47.09.18.05.35.1.52.16.17.06.31.13.43.2.12.07.23.16.33.27.1.11.18.21.23.28.05.08.11.2.18.38.07.18.12.32.15.42.03.11.05.26.07.46s.02.34,0,.44c-.01.09-.05.18-.1.25-.06.08-.18.2-.37.38-.19.18-.31.3-.37.38-.06.08-.09.15-.1.22,0,.07.03.11.13.13.09.02.22.02.39.01.16,0,.35-.03.57-.07.22-.04.48-.07.78-.11.3-.03.51-.07.63-.1.12-.03.23-.08.34-.16.1-.08.18-.17.25-.29.06-.12.1-.27.13-.46.02-.19.03-.34.02-.44,0-.11-.02-.22-.06-.33s-.1-.26-.19-.44c-.1-.18-.21-.38-.34-.6-.13-.22-.23-.41-.3-.55-.07-.14-.13-.28-.17-.4s-.07-.25-.08-.37c-.01-.12-.02-.26-.02-.43s.02-.33.05-.5c.03-.17.07-.34.11-.5.04-.16.06-.3.06-.42,0-.12-.02-.25-.07-.39-.05-.14-.09-.23-.12-.28-.04-.05-.07-.07-.1-.07-.03,0-.05.07-.04.2,0,.14.06.4.18.78.12.39.2.64.24.77.05.13.09.25.15.38.05.12.11.24.16.35.06.11.11.2.16.28.05.08.13.18.23.3.1.12.19.24.27.36.08.12.12.19.13.22.01.03-.03.06-.12.1-.09.03-.19.11-.29.23-.1.12-.21.24-.3.36-.1.12-.21.23-.35.33-.13.1-.26.19-.4.26-.13.07-.25.12-.35.15-.1.03-.37.07-.8.11-.43.05-.85.1-1.26.16-.4.06-.73.11-.99.15s-.69.12-1.31.23c-.62.11-1.09.2-1.41.26-.32.06-.63.13-.94.2-.31.07-.57.13-.78.19-.22.06-.41.11-.59.17-.18.05-.34.11-.48.16-.15.05-.26.1-.33.13-.07.03-.12.07-.15.12-.03.04.03.07.17.08.14.01.34.02.6.01.26,0,.49-.02.68-.04.2-.02.32-.03.36-.03.04,0,.07,0,.08,0,.01,0,0,0-.04.02-.03.02-.12.05-.25.11-.13.06-.55.21-1.25.46s-1.32.46-1.87.65c-.54.19-1.14.39-1.77.59-.64.21-1.3.41-1.99.62-.69.21-1.34.4-1.96.58-.61.18-1.23.36-1.85.55s-1.25.4-1.89.62c-.64.23-1.25.45-1.81.68-.57.23-1.14.45-1.71.67-.57.22-1.15.43-1.73.65s-1.11.4-1.59.57c-.48.17-1.14.4-1.99.7-.85.3-1.38.49-1.62.57-.23.08-.42.13-.55.15-.14.03-.21.04-.22.04h0s0,0,0,0c0,0,.04,0,.12-.02.07-.01.15-.04.24-.08.09-.04.14-.06.16-.07.01,0,.01,0,0,0-.01,0-.06,0-.15.02-.08.01-.28.07-.58.18-.3.11-.52.18-.65.22-.13.04-.23.07-.31.09-.08.02-.13.03-.13.03,0,0-.01,0-.02,0,0,0-.05,0-.12-.02-.08-.01-.19-.02-.34-.02-.15,0-.23.03-.25.09-.02.06-.03.12-.03.17"/>
          <polyline class="cls-4" points="48.42 42.3 106.25 22.63 111.43 37.86 53.6 57.53 48.42 42.3"/>
          <line class="cls-5" x1="40.49" y1="53.78" x2="120.72" y2="25.83"/>
          <polyline class="cls-2" points="79.01 6.87 79.01 40.24 111.07 40.24"/>
          <path class="cls-2" d="M109.67,37.68c-.25.47-.14.78.32.93.33.11.62.2.88.27.26.08.49.17.72.28.22.11.4.23.53.38.13.14.22.31.27.51.05.19.07.46.06.79-.01.33-.07.6-.17.8-.1.2-.29.47-.57.81-.28.34-.45.54-.51.61"/>
          <path class="cls-2" d="M76.15,9.75c.21-.5.46-1.01.73-1.52.27-.51.52-.95.75-1.32.23-.37.46-.68.68-.93.22-.25.42-.44.59-.58.18-.14.34-.23.5-.26.16-.04.32.06.47.29.16.23.37.58.64,1.03.27.46.61,1.01,1.03,1.66s.68,1.04.79,1.18c.2.24.31.38.35.41"/>
          <line class="cls-6" x1="53.6" y1="57.53" x2="53.6" y2="40.16"/>
          <line class="cls-6" x1="106.25" y1="22.63" x2="106.25" y2="39.49"/>
          <line class="cls-6" x1="53.6" y1="40.16" x2="106.25" y2="22.63"/>
          <line class="cls-6" x1="53.6" y1="57.53" x2="106.25" y2="39.49"/>
          <polyline class="cls-7" points="106.25 22.63 106.19 39.69 111.28 37.53 106.25 22.63"/>
          <polyline class="cls-7" points="48.42 42.3 53.79 40.62 53.79 57.37 48.42 42.3"/>
          <path class="cls-2" d="M108.19,34.1c1.77-.36,3.54-.73,5.31-1.09M97.58,36.27c1.77-.36,3.54-.73,5.31-1.09M86.96,38.45c1.77-.36,3.54-.73,5.31-1.09M76.34,40.62c1.77-.36,3.54-.73,5.31-1.09M65.72,42.8c1.77-.36,3.54-.73,5.31-1.09M55.1,44.98c1.77-.36,3.54-.73,5.31-1.09M44.48,47.15c1.77-.36,3.54-.73,5.31-1.09"/>
          <path class="cls-7" d="M49.6,44.32c.02-.18.08-.34.17-.47.06-.09.17-.23.34-.42.16-.19.38-.44.65-.74.27-.3.49-.55.67-.75.18-.2.27-.31.28-.32h0s-.09.12-.09.12"/>
          <path class="cls-7" d="M50.13,45.87c.08-.18.16-.35.25-.51.06-.1.14-.22.23-.36.09-.13.2-.28.32-.43.12-.15.25-.31.38-.46.13-.15.26-.3.39-.45s.29-.32.48-.51c.19-.2.32-.33.38-.39.06-.06.09-.1.1-.11,0,0,0,0,0,0,0,0,0,0,0,0,0,0-.06.06-.18.18"/>
          <path class="cls-7" d="M50.85,47.27s-.07-.1-.07-.14c0-.03.02-.08.05-.13.04-.06.14-.19.32-.4.18-.21.48-.54.88-1,.41-.45.7-.78.87-.99l.23-.27h0s-.02.02-.02.02l.05-.06"/>
          <path class="cls-7" d="M51.35,48.71c-.04-.14-.05-.25-.04-.31,0-.04.08-.14.22-.3.14-.15.33-.36.59-.61.26-.26.46-.45.6-.58.22-.2.39-.37.52-.51"/>
          <path class="cls-7" d="M107.06,31.8c-.13-.01-.2,0-.2.05,0,.03.04.06.13.09.09.03.22.05.4.08s.43.05.75.07c.33.02.53.04.6.04.11,0,.2.02.27.04"/>
          <path class="cls-7" d="M107.11,33.14c.18.05.39.09.62.11.23.02.55.04.97.07.42.03.66.05.74.06.08,0,.14.03.2.05"/>
          <path class="cls-7" d="M107.03,34.52c-.05.11-.06.18-.02.22.02.03.08.05.16.08.08.03.2.05.33.06.14.02.3.03.48.04.18.01.48.03.89.04s.75.04,1.02.06c.27.02.45.03.53.03"/>
          <path class="cls-7" d="M107.37,35.87c-.07.03-.11.05-.13.05,0,0,.02,0,.09,0,.07,0,.27,0,.6.02.33.01.66.03.98.05.32.02.6.04.83.06.23.02.39.03.47.04"/>
          <path class="cls-7" d="M106.82,37.17c-.03.1-.02.17.05.21.04.03.12.06.22.09.1.03.24.06.4.07.17.02.36.03.59.03.23,0,.57.01,1.03.01.46,0,.83-.03,1.12-.09"/>
          <path class="cls-7" d="M116.52,29.18c0,.08.05.09.13.03.06-.05.12-.07.18-.08.06,0,.12.03.18.1.06.08.12.22.18.43.07.21.11.38.14.53.03.15.05.29.07.44.02.15.02.36.03.64,0,.28-.01.47-.04.57-.03.1-.09.25-.19.45-.1.2-.17.33-.22.39-.04.06-.08.1-.11.11"/>
          <path class="cls-7" d="M116.21,31.75c-.03.4-.04.67-.03.81,0,.1.02.19.04.29.02.09.05.17.08.25.03.07.07.13.12.17.05.05.11.08.17.11.07.03.14.04.22.04.08,0,.17,0,.27-.04.1-.03.25-.09.45-.18.2-.09.36-.18.47-.25"/>
          <path class="cls-7" d="M44.57,48.72c-.12-.02-.22.01-.31.11-.06.07-.11.18-.17.33-.06.16-.11.3-.14.42-.03.13-.07.26-.09.4-.03.14-.05.28-.06.42-.01.14-.02.33-.02.58,0,.25.02.42.05.5.03.09.08.17.13.24.05.07.13.13.24.18.11.05.19.07.25.07.08,0,.16-.04.23-.12"/>
          <path class="cls-7" d="M44.29,48.68c-.16.07-.34.2-.55.39-.21.19-.37.34-.47.44-.1.1-.19.2-.26.28-.07.09-.11.14-.13.17-.01.03-.02.04-.02.05h0s0,0,0,0c0,0,.03-.06.07-.16.05-.1.13-.23.24-.38.11-.16.24-.31.38-.45.14-.15.27-.26.41-.35.13-.08.26-.13.37-.13.11,0,.2.03.26.09.06.06.15.21.29.46.14.25.26.44.36.57"/>
        </g>
      </g>
    </g>
  </g>
</svg>