<?xml version="1.0" encoding="UTF-8"?>
<svg xmlns="http://www.w3.org/2000/svg" viewBox="0 0 72.51 58.45">
  <defs>
    <style>
      .cls-1 {
        isolation: isolate;
      }

      .cls-2 {
        stroke: #000;
      }

      .cls-2, .cls-3 {
        stroke-width: .99px;
      }

      .cls-2, .cls-3, .cls-4 {
        fill: none;
        stroke-linecap: round;
        stroke-linejoin: round;
      }

      .cls-3 {
        stroke: #f59a23;
      }

      .cls-4 {
        mix-blend-mode: multiply;
        opacity: .5;
        stroke: #ffa238;
        stroke-width: 4.68px;
      }
    </style>
  </defs>
  <g class="cls-1">
    <g id="Layer_2" data-name="Layer 2">
      <g id="Layer_1-2" data-name="Layer 1">
        <g>
          <polyline class="cls-3" points="6.91 52.2 8.83 34.65 59.32 17.44 58.08 35.03 6.91 52.2"/>
          <path class="cls-4" d="M12.51,43.33c.05-.4.11-.63.17-.68.04-.04.11-.05.21-.03.1.02.19.07.28.14.09.07.15.13.19.18.04.05.07.14.09.27.02.13.03.25.01.34-.01.1-.05.19-.1.28-.05.09-.12.18-.2.27-.08.09-.16.18-.25.25-.09.08-.19.15-.29.2-.1.05-.2.1-.32.12-.11.03-.23.04-.34.05s-.23,0-.34-.04c-.11-.03-.2-.09-.29-.17-.09-.08-.16-.17-.22-.26-.06-.09-.1-.19-.12-.29-.02-.1-.04-.19-.04-.29,0-.09,0-.18.03-.26.02-.08.07-.16.14-.23.07-.07.15-.15.25-.22.09-.07.24-.16.45-.25.21-.09.36-.14.47-.16.1-.02.2-.03.28-.03.08,0,.16.02.21.06.06.04.11.11.14.2.04.09.06.19.06.3,0,.11,0,.23-.03.35-.03.12-.07.25-.13.37-.06.13-.13.24-.21.34-.08.1-.17.19-.26.27-.09.08-.2.15-.31.22-.11.07-.22.11-.32.14-.1.03-.21.05-.32.05-.11,0-.22,0-.33,0-.11,0-.22-.04-.31-.09-.1-.05-.18-.11-.25-.18-.07-.07-.14-.15-.2-.23-.06-.08-.1-.17-.12-.25s-.03-.2-.03-.36c0-.16.02-.28.06-.35.04-.07.12-.16.25-.26.13-.11.25-.18.38-.22.13-.04.24-.06.35-.06.11,0,.19.03.24.11.05.07.08.17.08.3,0,.13-.01.22-.04.29-.03.06-.09.14-.18.22-.09.08-.19.14-.3.17-.11.03-.19.05-.25.05-.06,0-.11-.02-.17-.05-.06-.04-.12-.12-.21-.25-.08-.13-.14-.27-.18-.43-.04-.16-.06-.34-.06-.56,0-.21.03-.37.09-.47.06-.1.15-.21.27-.32.12-.11.18-.25.2-.4.01-.16.01-.36,0-.62,0-.26-.02-.53-.02-.81,0-.29,0-.49,0-.61.01-.12.02-.37.02-.75s0-.7-.01-.95c0-.26,0-.44.05-.54.04-.1.11-.22.21-.37.1-.15.23-.27.4-.37.16-.1.3-.16.43-.18.12-.02.32-.05.59-.08.27-.03.51-.06.71-.09.2-.03.41-.05.63-.07s.44-.05.65-.08c.22-.04.44-.08.66-.15.22-.06.52-.17.89-.32.38-.15.7-.28.98-.38.28-.1.49-.17.62-.21s.31-.12.52-.23c.21-.11.45-.23.7-.37.25-.14.53-.28.83-.42s.63-.29.99-.43c.36-.15.75-.32,1.18-.53s.67-.31.71-.33c.04-.01.07-.02.07-.02,0,0,0,0,0,0,0,0-.08.04-.21.11s-.31.16-.52.26c-.22.1-.54.23-.96.4-.42.17-.97.39-1.66.66-.68.27-1.18.46-1.48.57-.3.11-.56.19-.77.25-.21.06-.38.11-.52.15-.14.03-.24.07-.3.11-.07.04-.18.08-.35.12-.17.04-.29.08-.36.12-.07.03-.2.06-.39.08-.19.02-.27.03-.25.03.02,0,.08,0,.17.01.09,0,.21,0,.37-.02.16-.02.33-.05.5-.1.18-.05.42-.12.74-.21.32-.1.62-.18.89-.24.28-.07.56-.13.84-.19.28-.06.55-.13.81-.21.25-.08.51-.18.76-.3.25-.12.45-.22.58-.29.13-.07.33-.17.61-.29.28-.12.55-.23.81-.32s.52-.17.77-.25c.25-.08.44-.14.58-.19.14-.05.44-.2.91-.42.47-.23.87-.43,1.2-.6.33-.17.58-.3.75-.38.17-.08.32-.15.47-.21.14-.06.28-.11.41-.14.13-.04.25-.07.37-.09.12-.02.33-.05.62-.08.3-.03.55-.07.75-.11.2-.05.45-.12.75-.23.3-.1.49-.17.59-.2s.15-.05.16-.05c.01,0,.01,0,0,0s-.03,0-.08,0c-.05,0-.36.09-.95.28-.58.19-1.11.36-1.57.52-.46.16-.85.29-1.16.4-.31.11-.56.19-.76.25-.2.06-.32.09-.36.1-.04,0-.06.01-.07.01h0s0,0,0,0c0,0,.05-.01.14-.03.09-.02.34-.1.75-.25.41-.15.71-.26.87-.32.17-.06.45-.15.85-.28.4-.13.82-.26,1.28-.4.46-.14.81-.25,1.06-.34.25-.08.6-.21,1.03-.36.44-.16.85-.32,1.25-.48.4-.16.78-.31,1.14-.46.36-.15.56-.23.61-.24.05,0,.07-.01.07-.02,0,0,0,0,0,0s-.03,0-.09,0c-.05,0-.25.06-.59.18-.34.12-.65.22-.92.3-.27.08-.42.13-.45.13h-.03s0,0,0,0c.01,0,.07-.01.17-.03.1-.02.39-.12.85-.29.46-.17,1.03-.39,1.7-.66.67-.27,1.12-.45,1.34-.53.22-.09.43-.17.63-.23.2-.07.39-.13.57-.18.18-.05.33-.09.46-.11.13-.02.26-.04.4-.04.14,0,.21,0,.23,0,.01,0,.01,0,0,0-.02,0-.1.04-.25.09-.15.06-.35.14-.61.25-.26.11-.49.2-.69.27-.2.07-.31.11-.32.12h-.01s.02,0,.02,0c.02,0,.15-.07.38-.17s.54-.25.92-.42c.38-.18.81-.37,1.28-.57.48-.2.84-.35,1.08-.45.25-.09.47-.17.68-.24.21-.07.39-.12.56-.16s.31-.08.44-.1.24-.04.33-.04c.09,0,.13,0,.14,0,0,0,0,0-.02.01-.02,0-.14.05-.36.12-.22.08-.38.13-.49.18-.11.04-.15.07-.1.09.04.02.11.02.21,0,.1-.02.3-.08.61-.2.31-.11.76-.3,1.36-.55.6-.26,1.04-.44,1.34-.56s.49-.18.6-.21c.11-.02.17-.03.18-.04h0s-.02,0-.02,0c-.02,0-.14.03-.38.07-.24.04-.39.06-.45.07-.06,0-.1,0-.1,0,0,0,0,0,0,0,0,0,.09-.03.25-.09.16-.06.42-.16.8-.33.38-.16.66-.28.86-.35.19-.07.36-.12.48-.14.13-.02.19-.04.2-.04h.01s0,0,0,0c0,0-.02,0-.05,0-.03,0-.05,0-.05,0,0,0,0,0,.02-.01.02,0,.16-.07.42-.2.26-.12.54-.24.82-.34.28-.11.53-.2.74-.28.21-.08.48-.17.79-.27.32-.1.62-.21.9-.32.28-.11.52-.2.71-.27.19-.07.4-.13.64-.18.24-.05.46-.11.66-.17.2-.06.41-.13.62-.2.21-.07.36-.13.45-.18.1-.05.27-.11.53-.19.26-.07.48-.14.67-.21.19-.06.36-.1.5-.12.14-.01.29-.08.44-.18.15-.11.3-.2.45-.27.14-.07.31-.14.5-.19.19-.06.3-.09.32-.09.03,0-.01.17-.12.51-.1.35-.2.66-.28.94-.08.28-.16.56-.24.84-.08.28-.13.51-.16.68-.03.17-.06.38-.07.64-.02.25-.05.48-.09.68-.04.2-.07.36-.09.48-.02.12-.02.24-.02.35,0,.11,0,.27-.03.5s-.03.44-.03.66c0,.21,0,.38.02.5s.02.36.02.72c0,.36,0,.79,0,1.29s0,.81-.02.94c-.01.13-.02.31-.02.56,0,.25,0,.42.03.52.02.1.04.18.06.23.02.05.1.14.24.25.14.11.26.2.35.25.09.06.16.14.22.24.05.1.08.19.08.26s-.04.13-.13.19-.22.13-.4.22c-.18.08-.37.16-.57.23-.2.07-.35.14-.45.2-.1.06-.18.14-.25.22s-.2.2-.39.34c-.19.14-.38.28-.55.41-.18.13-.34.22-.49.29-.15.06-.4.15-.76.26s-.78.23-1.27.35c-.49.12-.98.27-1.48.43s-.85.27-1.04.32c-.19.05-.39.11-.6.18-.21.07-.42.14-.63.22-.21.08-.42.15-.64.22-.22.07-.41.14-.57.19-.16.06-.36.14-.59.23-.23.1-.46.19-.69.29-.23.1-.46.18-.7.24-.23.06-.43.12-.59.17-.16.05-.3.09-.4.11-.11.02-.26.03-.45.03-.19,0-.37.02-.53.07-.16.04-.41.12-.74.24-.33.11-.62.22-.88.32-.25.1-.51.2-.75.31s-.46.2-.63.28c-.17.07-.39.15-.65.24-.26.09-.52.18-.78.28-.27.1-.5.19-.71.26-.21.07-.4.15-.59.22-.19.08-.39.17-.62.28-.23.11-.46.21-.69.31-.23.09-.57.21-.99.35-.43.14-.71.23-.84.26-.13.03-.31.07-.52.1-.21.03-.39.07-.53.09-.14.03-.3.07-.48.12-.18.05-.36.12-.54.2-.18.08-.41.2-.69.34-.28.15-.54.28-.78.4-.25.12-.46.21-.64.27-.18.06-.37.11-.56.16-.19.05-.38.08-.57.11-.18.03-.35.05-.49.07-.14.02-.34.05-.59.1-.25.05-.46.09-.62.11-.16.03-.34.07-.54.12-.19.05-.54.18-1.04.37-.5.19-.99.37-1.48.54-.49.17-.98.34-1.47.51-.49.17-.94.34-1.33.5-.39.16-.72.31-1,.43-.27.13-.52.23-.73.32-.21.08-.41.16-.59.22s-.36.13-.54.2c-.18.07-.38.15-.59.22-.21.08-.43.15-.64.23-.21.07-.51.18-.89.31-.38.13-.74.27-1.1.4-.35.13-.64.24-.85.33-.21.09-.39.16-.52.22-.13.06-.25.11-.36.15-.11.04-.22.07-.34.1-.12.03-.22.06-.3.08-.08.03-.26.12-.54.26-.28.15-.58.29-.88.43-.3.14-.57.25-.79.35-.23.09-.38.15-.46.16-.08.02-.22.07-.41.17-.19.09-.34.15-.44.17-.1.02-.19.02-.25.02-.06,0-.11-.03-.13-.07-.03-.04-.04-.11-.03-.22,0-.11.03-.24.09-.4.05-.16.11-.35.18-.58.06-.23.13-.45.2-.66.07-.21.14-.41.2-.58.06-.17.12-.34.17-.51.05-.17.11-.32.17-.47.06-.15.15-.32.25-.51.11-.2.18-.39.22-.58.04-.19.09-.36.15-.52.06-.16.11-.29.17-.4.05-.11.17-.3.34-.56.17-.26.4-.59.69-.97.29-.38.52-.68.7-.92.18-.23.38-.48.61-.73.23-.26.45-.5.68-.73.23-.23.59-.57,1.09-1.01.5-.44.85-.75,1.07-.93.22-.17.42-.33.62-.47.2-.14.38-.25.56-.34.17-.09.31-.15.42-.16.11-.02.18-.02.24-.01.05.01.09.06.1.14.01.09,0,.19-.01.33-.02.13-.07.29-.14.48-.07.19-.16.4-.27.64-.1.24-.22.48-.34.73-.12.25-.26.5-.41.76-.15.26-.32.53-.51.81-.19.28-.4.55-.63.8-.22.25-.47.49-.75.73-.28.24-.59.46-.93.68-.34.21-.67.37-.97.48-.31.11-.58.17-.83.18-.25.02-.46,0-.65-.04-.19-.05-.32-.13-.4-.25s-.13-.27-.16-.45c-.02-.18-.02-.41,0-.67.03-.26.11-.55.25-.87.14-.32.32-.64.55-.96.23-.33.52-.66.86-.99.35-.33.72-.64,1.14-.91.41-.27.86-.53,1.35-.78.48-.25,1.02-.49,1.6-.73.58-.23,1.15-.44,1.71-.61.56-.17,1.11-.34,1.67-.5.56-.16,1.1-.3,1.64-.41.54-.12,1.01-.19,1.4-.22.4-.03.75-.03,1.07,0,.31.02.58.08.8.18.22.1.37.22.45.37.08.15.12.32.11.52-.01.2-.1.41-.25.64-.16.23-.37.48-.65.75-.28.27-.61.55-.99.84-.38.29-.8.58-1.27.87-.47.29-.93.55-1.4.77-.47.22-.91.41-1.33.56-.42.15-.81.27-1.15.35-.35.08-.62.13-.81.14-.2,0-.33-.03-.4-.11-.07-.08-.1-.19-.09-.34.01-.15.12-.33.31-.55.2-.22.46-.47.8-.75.33-.28.73-.57,1.18-.88.45-.31.93-.61,1.46-.91.52-.3,1.12-.6,1.79-.89.67-.29,1.39-.58,2.17-.85s1.52-.51,2.24-.7c.72-.19,1.39-.34,2.02-.46.62-.11,1.17-.18,1.65-.22.48-.03.87-.02,1.17.03.3.05.53.13.68.24.15.11.24.25.27.42s-.04.36-.2.57c-.16.22-.4.45-.72.71-.32.26-.71.54-1.17.85-.46.31-1,.63-1.6.96-.6.33-1.26.67-1.99,1.02-.73.35-1.5.69-2.33,1.04-.82.34-1.62.64-2.38.88-.76.25-1.45.44-2.07.58-.62.14-1.14.24-1.57.29-.43.05-.76.07-1,.06-.24-.01-.42-.08-.53-.2-.11-.12-.16-.29-.14-.52.02-.22.13-.47.36-.74.22-.27.52-.56.9-.86.37-.3.82-.63,1.33-.98.51-.35,1.09-.71,1.72-1.09.64-.37,1.34-.75,2.1-1.12.77-.37,1.61-.73,2.51-1.08.91-.35,1.82-.67,2.72-.97.91-.29,1.79-.56,2.64-.8.85-.24,1.64-.44,2.35-.58.72-.15,1.33-.24,1.85-.27.51-.03.94-.03,1.28,0,.34.03.56.09.67.18.11.09.14.22.11.37-.04.15-.18.34-.44.57-.26.23-.61.48-1.04.75-.43.27-.96.56-1.57.88-.61.31-1.31.65-2.09,1.01-.78.36-1.57.71-2.36,1.05s-1.6.66-2.44.97c-.84.31-1.67.58-2.48.83-.82.24-1.49.42-2.01.53-.53.11-.96.18-1.3.2-.34.02-.6.01-.79-.04-.19-.05-.3-.17-.33-.35-.03-.18.03-.43.2-.74.17-.31.42-.67.77-1.07s.76-.8,1.23-1.18c.47-.39,1.02-.78,1.65-1.18.63-.4,1.33-.82,2.11-1.27.78-.44,1.56-.84,2.35-1.19.79-.35,1.6-.67,2.44-.96.84-.29,1.67-.54,2.5-.75s1.56-.37,2.2-.47c.64-.1,1.23-.16,1.78-.19.54-.02,1.02,0,1.43.07.41.07.7.18.89.33.18.15.29.32.33.52.04.19,0,.41-.14.65-.13.24-.36.48-.67.74-.32.26-.71.54-1.2.85-.48.31-1.04.64-1.67.98-.63.34-1.26.64-1.89.91-.63.27-1.25.5-1.87.7-.62.2-1.23.37-1.83.5-.6.13-1.11.21-1.51.23-.41.02-.74,0-.99-.07-.26-.07-.44-.2-.54-.39-.11-.19-.13-.43-.08-.72.05-.29.19-.64.42-1.04.23-.4.54-.86.93-1.35.39-.5.86-.98,1.4-1.44.54-.47,1.14-.92,1.81-1.37.66-.45,1.39-.86,2.18-1.24.79-.38,1.55-.69,2.3-.92s1.49-.42,2.22-.57c.73-.15,1.45-.28,2.14-.37.7-.1,1.3-.16,1.8-.18.5-.02.94,0,1.3.07.37.07.66.18.89.33.22.15.37.31.43.49.06.17.08.35.07.52-.01.18-.09.36-.22.54-.14.18-.31.37-.54.56-.22.19-.48.38-.77.57-.29.19-.62.38-.98.57-.36.19-.72.35-1.1.48s-.74.25-1.09.33c-.35.08-.68.14-.99.17-.31.03-.54.02-.7-.04-.16-.06-.26-.18-.29-.35-.03-.17.02-.38.14-.63.12-.24.31-.5.57-.76.26-.26.56-.52.92-.78.36-.26.76-.52,1.22-.77.45-.25.94-.48,1.45-.69.51-.21,1.03-.39,1.55-.54.53-.15,1.02-.27,1.48-.36.46-.09.86-.14,1.18-.16.32-.02.6-.02.84,0,.23.02.42.07.57.15.15.08.25.18.3.29.05.11.08.24.07.38,0,.14-.07.31-.2.5s-.32.39-.56.6-.53.45-.88.7c-.34.25-.74.53-1.2.82-.46.3-.96.59-1.5.88-.54.29-1.13.57-1.76.85-.63.28-1.26.53-1.9.75-.64.22-1.19.39-1.67.51-.48.12-.89.22-1.23.28-.35.07-.63.11-.85.13-.22.02-.38.02-.46,0-.09-.02-.14-.08-.15-.18s.03-.22.15-.39c.12-.16.3-.34.56-.53.26-.19.57-.39.92-.6.35-.2.73-.41,1.14-.61.41-.2.82-.39,1.25-.57.43-.18.88-.36,1.35-.53.47-.17.97-.32,1.49-.47.52-.14,1.02-.24,1.49-.3.47-.06.89-.09,1.28-.1.38,0,.71,0,.98.05.27.04.47.09.6.17.13.08.22.16.26.26.04.1.05.2.02.31-.03.11-.12.24-.28.36-.16.13-.36.26-.61.4-.24.14-.52.28-.83.42-.31.14-.63.26-.97.38-.34.11-.7.22-1.07.32-.37.1-.72.18-1.05.23-.33.05-.63.08-.93.09-.29,0-.55,0-.79-.05-.24-.04-.4-.13-.5-.25-.1-.13-.15-.28-.16-.47,0-.19.03-.41.13-.68.1-.26.23-.54.42-.84s.41-.59.68-.89c.27-.3.58-.58.93-.84.35-.27.7-.48,1.05-.64.36-.16.73-.29,1.11-.39.38-.09.78-.16,1.2-.2.41-.04.8-.06,1.16-.06.36,0,.7.03,1.03.08.33.05.63.13.9.22.27.09.49.19.65.3.16.11.28.22.37.34s.14.24.16.37c.02.13.02.25-.01.37-.03.12-.11.24-.24.36-.13.13-.29.26-.5.41-.2.15-.42.28-.65.39-.23.12-.46.21-.69.29-.23.08-.45.13-.66.17-.21.03-.39.05-.52.06-.14,0-.25-.02-.34-.08-.09-.06-.14-.16-.17-.3-.03-.14-.02-.31.01-.5.03-.2.11-.41.24-.65.12-.24.28-.49.46-.75.18-.27.38-.52.6-.75.22-.23.46-.45.72-.64.25-.19.52-.36.8-.51.28-.15.53-.26.77-.33.24-.07.46-.11.66-.12.2-.01.39-.02.58-.02.18,0,.33.03.45.08.12.05.21.13.28.22.07.09.12.2.14.33.02.13.02.27,0,.41-.02.14-.08.3-.19.45-.11.16-.24.32-.4.49-.16.17-.33.32-.52.45-.19.13-.38.25-.58.35-.2.1-.39.18-.59.24-.19.06-.36.1-.5.11-.14.01-.25,0-.34-.02-.09-.03-.16-.09-.21-.19-.05-.1-.08-.3-.08-.61,0-.31.01-.56.05-.78s.08-.43.14-.67c.05-.23.12-.48.2-.74.08-.26.17-.51.28-.74s.22-.43.33-.59c.12-.16.24-.28.37-.36.13-.08.27-.13.41-.16.14-.02.29,0,.43.06.14.06.28.15.41.28.13.12.25.26.36.42.11.15.21.31.28.46.07.15.13.3.16.45.04.15.06.3.08.45.02.15.02.3,0,.43-.01.13-.05.26-.12.38-.07.12-.15.23-.26.33-.1.1-.21.18-.32.24-.11.06-.24.1-.4.13-.16.03-.26.03-.3.02-.04-.02-.06-.05-.07-.11,0-.06,0-.12.03-.21.03-.08.09-.17.18-.27.1-.1.21-.19.35-.28s.28-.18.44-.27c.16-.09.32-.16.49-.23.16-.07.32-.12.48-.17.15-.05.29-.08.41-.1.12-.02.22-.03.29-.02.07,0,.11.03.11.07s-.12.23-.38.55c-.25.33-.47.6-.66.81-.19.21-.41.43-.64.65-.24.22-.43.39-.57.5-.14.11-.33.25-.56.4-.23.16-.42.28-.57.36-.14.08-.26.17-.35.25s-.18.2-.25.33c-.08.14-.13.27-.16.39-.03.12-.04.22-.04.29,0,.07,0,.12.03.15.02.03.14.02.37-.05.23-.06.41-.11.56-.14.15-.03.32-.06.52-.08.2-.02.33-.03.39-.03.06,0,.1,0,.1,0,0,0,0,0,.02,0"/>
          <polyline class="cls-2" points="31.82 2.25 31.82 35.62 63.87 35.62"/>
          <path class="cls-2" d="M62.48,33.05c-.25.47-.14.78.32.93.33.11.62.2.88.27s.49.17.72.28c.22.11.4.23.53.38.13.14.22.31.27.51.05.19.07.46.06.79s-.07.6-.17.8c-.1.2-.29.47-.57.81-.28.34-.45.54-.51.61"/>
          <path class="cls-2" d="M28.96,5.13c.21-.5.46-1.01.73-1.52s.52-.95.75-1.32.46-.68.68-.93c.22-.25.42-.44.59-.58.18-.14.34-.23.5-.26.16-.04.32.06.47.29.16.23.37.58.64,1.03.27.46.61,1.01,1.03,1.66.42.65.68,1.04.79,1.18.2.24.31.38.35.41"/>
          <line class="cls-2" x1=".5" y1="45.79" x2="66.77" y2="23.94"/>
          <path class="cls-2" d="M18.81,31.7c.05.28.05.52,0,.73-.03.14-.07.32-.13.54-.06.22-.12.5-.19.86-.07.36-.13.75-.19,1.19-.06.43-.09.81-.11,1.14-.02.33-.03.63-.03.9s-.03.63-.08,1.06c-.05.43-.09.77-.11,1.03s-.04.43-.06.54c-.02.1-.03.16-.04.17,0,0,0-.02,0-.08v-.05s0,.03,0,.03v.02s-.01-.48-.01-.48"/>
          <path class="cls-2" d="M18.64,31.74c.02.06-.02.18-.12.37-.07.12-.16.26-.28.44-.12.18-.23.32-.33.44-.1.12-.15.18-.16.19,0,0,0,0,0,0,0-.01.06-.11.15-.28.09-.18.18-.37.27-.58.09-.21.17-.4.25-.57.08-.17.14-.29.2-.37.06-.08.11-.11.15-.08.04.03.09.14.15.34s.12.39.19.58c.07.19.13.32.18.39.07.11.14.2.22.28"/>
          <path class="cls-2" d="M17.52,37.79c.13.81.22,1.28.26,1.41.03.09.06.16.11.21.05.06.09.09.15.1.05,0,.11,0,.18-.04.07-.03.14-.11.21-.22.07-.11.2-.37.39-.79.19-.41.32-.7.41-.85"/>
          <path class="cls-2" d="M25.37,38.06c.04.15.06.33.05.52,0,.13-.06.57-.15,1.33s-.16,1.3-.2,1.63c-.04.33-.07.66-.1.99-.03.33-.06.77-.08,1.31s-.04.99-.04,1.34c0,.35,0,.62-.02.8-.01.18-.02.28-.02.29,0,.01,0,.01,0,.01,0,0,0-.02-.02-.04-.01-.03-.04,0-.07.09l-.04.1h0s0-.03,0-.03l-.02.05"/>
          <path class="cls-2" d="M23.98,44.99c-.11-.06-.14,0-.09.2.05.2.1.4.17.6.06.2.13.38.2.53.07.15.14.25.21.31.07.06.13.08.17.09.04,0,.11-.06.22-.19.11-.13.29-.47.54-1.01.25-.55.43-.94.55-1.19"/>
          <path class="cls-2" d="M25.82,37.84c-.14,0-.27.1-.38.27-.07.12-.18.37-.33.75-.15.38-.25.66-.31.84-.06.17-.09.27-.1.29v.02s0,0,0,0c0-.01.02-.06.04-.15.03-.09.11-.31.24-.65.14-.34.26-.6.35-.79s.19-.34.28-.46c.08-.12.16-.18.23-.19.07-.01.16.14.27.45.11.31.19.52.25.63.05.11.11.2.17.27.09.11.19.19.31.26"/>
          <path class="cls-2" d="M32.43,52.98c-.09.11-.06.19.11.26.12.05.27.08.44.11.18.03.35.04.51.03.16,0,.27-.03.33-.07.06-.04.11-.09.14-.16.03-.06.06-.17.08-.34.02-.16.02-.29.01-.37,0-.08-.04-.17-.09-.26-.05-.09-.11-.17-.18-.26-.07-.08-.14-.16-.23-.22-.08-.06-.17-.11-.25-.14s-.22-.05-.39-.05c-.18,0-.3.02-.38.08-.08.06-.15.14-.21.24-.06.1-.12.21-.17.32-.05.11-.08.23-.11.36-.03.13-.04.34-.06.62-.01.28,0,.49.04.63.04.14.1.28.17.41.08.13.17.24.27.34.1.09.22.17.35.23.13.06.27.11.42.14.15.03.3.05.44.06.22.01.44-.04.68-.15"/>
          <path class="cls-2" d="M37.13,52.52c.05-.09.02-.15-.09-.2-.11-.05-.24-.08-.4-.08-.16,0-.29,0-.38,0-.09.01-.18.05-.28.1-.1.06-.19.13-.28.22-.09.09-.17.18-.24.29-.07.11-.12.22-.15.34-.03.12-.06.24-.07.36-.01.12,0,.23,0,.34.01.1.05.19.11.27.06.08.14.13.22.18.08.04.22.07.41.08.19.01.33,0,.42-.04.09-.04.17-.09.25-.16.07-.07.14-.15.19-.24.05-.09.1-.19.15-.29.04-.11.08-.26.11-.46.03-.2.05-.37.05-.49,0-.12-.02-.19-.06-.2-.04,0-.08.03-.11.12-.03.09-.05.21-.08.36-.02.15-.05.34-.06.55-.02.21-.03.59-.03,1.12,0,.54,0,.95,0,1.23s.02.54.04.76c.03.22.06.41.09.57.03.16.07.29.11.4.06.17.12.27.19.3"/>
          <path class="cls-2" d="M35.58,56.19c.26.11.51.19.76.24.17.04.36.06.57.09.21.02.44.04.68.05.36.01.73.02,1.13.01"/>
          <path class="cls-2" d="M39.49,52.62c-.24-.08-.4-.03-.49.14-.06.12-.11.28-.13.48-.02.19-.03.43-.03.7,0,.28.02.48.06.61.04.13.09.25.15.36.06.11.13.19.21.25.08.05.16.09.25.1.09.01.19,0,.29-.01.1-.02.2-.07.3-.15.1-.08.19-.17.28-.27s.17-.21.25-.32c.08-.11.17-.26.27-.46.1-.2.17-.34.2-.43.03-.09.06-.23.08-.41.02-.18,0-.27-.06-.25-.06.02-.1.09-.14.21-.04.13-.06.28-.07.48-.01.19-.02.39-.02.59,0,.2.02.36.06.46.04.1.09.18.15.25.06.07.13.13.22.17.08.04.18.07.29.09.11.02.21.02.31.01.1,0,.21-.04.3-.11.1-.07.2-.15.29-.25.09-.1.19-.26.3-.48.1-.22.17-.39.2-.51.03-.12.05-.3.06-.55.01-.25-.02-.38-.1-.41-.08-.03-.14.02-.18.16-.04.13-.06.36-.07.68,0,.32,0,.54.02.66.02.11.05.22.1.31.05.09.1.18.17.25.07.07.15.13.24.18.09.05.19.07.3.08.11,0,.23,0,.36-.05.13-.04.26-.11.41-.22.21-.15.4-.35.55-.6"/>
          <path class="cls-2" d="M44.23,51.31c-.26.08-.44.16-.53.25-.06.06-.1.13-.13.21"/>
          <path class="cls-2" d="M47.56,53.33c-.14-.15-.27-.24-.4-.28-.09-.02-.2-.04-.34-.04s-.25.01-.34.04c-.09.03-.17.07-.25.13-.08.06-.16.12-.24.2-.07.08-.14.17-.2.27-.06.1-.1.26-.11.48-.02.22,0,.39.04.52.04.12.11.23.19.33.08.09.18.17.29.24.11.06.22.11.35.14.12.03.24.05.37.05s.25-.03.38-.09c.13-.06.25-.16.38-.29s.24-.28.35-.45c.11-.17.2-.36.29-.56.09-.2.17-.41.24-.63.08-.22.13-.44.17-.66s.06-.58.07-1.07c0-.49,0-.82-.02-.98-.02-.17-.05-.29-.1-.38-.04-.09-.11-.15-.2-.19-.09-.04-.18,0-.26.14s-.13.25-.16.36c-.03.11-.05.23-.08.36-.02.13-.03.36-.04.68,0,.32,0,.57,0,.74,0,.17.02.36.06.55.04.19.08.37.14.55.06.18.12.35.2.51.08.16.16.31.26.46.1.15.2.26.31.34.11.08.22.13.34.17.12.03.24.05.37.06s.25-.01.37-.04c.12-.03.23-.09.33-.17.1-.08.2-.17.3-.26.09-.1.17-.19.23-.29.06-.09.12-.21.18-.35.06-.14.09-.26.09-.34,0-.09-.02-.16-.08-.22-.06-.06-.13-.1-.23-.12-.1-.02-.17,0-.2.05-.03.06-.05.17-.05.33,0,.16,0,.29.02.38.01.09.07.23.16.42.1.18.18.31.25.39.07.08.14.14.22.18.08.04.21.07.38.07.26,0,.42-.1.49-.3"/>
          <path class="cls-2" d="M52.08,51.09c-.13,0-.3.08-.51.21-.13.09-.22.16-.25.21-.03.05-.06.1-.07.14"/>
          <path class="cls-2" d="M54.34,52.06c-.15,0-.35.07-.6.22-.16.1-.27.17-.34.23s-.12.12-.16.18c-.04.06-.06.16-.07.3,0,.14.01.23.07.29.05.06.12.12.21.18.09.06.23.14.44.25.21.1.36.19.45.26.1.07.18.13.26.21.08.07.14.14.19.22s.09.16.11.25c.02.09.04.17.04.26,0,.08-.01.16-.05.23-.04.07-.09.13-.17.17-.08.05-.17.08-.27.09-.11.02-.23.02-.36.03-.13,0-.27,0-.42-.02-.15-.02-.38-.07-.7-.16-.32-.09-.49-.14-.5-.15-.02-.01-.03-.04-.02-.08"/>
          <path class="cls-2" d="M55.56,52.96c.29,0,.59,0,.89-.01.2-.01.44-.03.71-.05.27-.02.54-.04.82-.05.28,0,.6-.01.98,0,.38,0,.62.03.73.08"/>
          <path class="cls-2" d="M57.48,51.48c-.07.12-.11.26-.12.41-.01.15-.02.39-.02.71,0,.32,0,.59,0,.8,0,.21.02.52.06.92.03.4.06.67.09.8.02.13.05.23.09.31.03.07.08.12.12.15.07.04.15.03.25-.03"/>
          <path class="cls-2" d="M61.77,53.46s0-.08-.11-.12c-.11-.04-.26-.07-.43-.1-.17-.03-.38-.04-.63-.03-.25,0-.44.03-.58.07-.13.05-.26.11-.39.2-.13.08-.23.18-.33.28-.09.1-.17.22-.23.33s-.09.24-.11.37c-.02.13-.02.25,0,.36.02.12.06.23.14.33.08.11.18.2.28.28.11.08.23.14.36.18.13.04.33.06.6.07.27,0,.46-.03.58-.09.12-.06.23-.15.33-.26.1-.11.19-.23.28-.37.09-.14.16-.28.22-.42.06-.14.12-.34.18-.6.06-.26.09-.45.1-.59,0-.14-.02-.21-.07-.24-.05-.02-.11.03-.18.15-.07.12-.11.23-.14.33-.03.1-.05.26-.06.49-.02.23-.03.41-.03.53,0,.12.01.24.04.35.03.11.08.22.15.33s.17.19.27.26c.11.07.23.12.37.14.14.03.29.05.45.05.24,0,.5-.05.79-.16"/>
          <path class="cls-2" d="M64.12,53.86c-.13.05-.23.16-.31.31-.05.11-.09.26-.1.47-.01.21-.02.35,0,.44.01.09.03.14.07.15.03.02.11-.11.23-.37.12-.27.2-.46.26-.58s.16-.3.31-.52c.15-.22.26-.38.34-.46.08-.08.16-.16.25-.23.09-.07.18-.13.27-.18.09-.05.21-.08.35-.08.14,0,.23.03.28.1.05.07.07.21.09.42.01.21.02.48.02.8,0,.32,0,.52.01.6,0,.08.04.16.09.21.05.06.12.11.2.14.08.03.19.05.31.06.12,0,.26,0,.41-.01.15-.01.3-.05.47-.12.17-.07.34-.15.51-.24.18-.1.34-.2.49-.3.15-.11.28-.22.4-.33.12-.12.23-.23.32-.36.09-.12.16-.24.21-.36.05-.12.07-.24.08-.37,0-.13,0-.28,0-.45,0-.17-.07-.46-.2-.89-.13-.42-.22-.73-.28-.93s-.1-.35-.14-.45c-.03-.1-.07-.17-.11-.22-.04-.04-.06.23-.07.83,0,.6,0,.99,0,1.2,0,.2.02.5.05.89.03.39.06.69.1.9s.09.39.14.56c.06.17.13.31.21.44.08.12.18.23.28.3.11.08.21.12.32.13.11.01.21-.01.31-.07.1-.06.19-.14.27-.26.12-.17.21-.39.26-.65"/>
          <path class="cls-2" d="M67.52,51.84c-.07-.04-.12-.07-.13-.07,0,0,.02,0,.08,0,.06,0,.22,0,.47.02.26,0,.52.02.81.04s.59.03.93.05c.34.01.7.02,1.08.03.62,0,1.04.02,1.26.03"/>
        </g>
      </g>
    </g>
  </g>
</svg>