<?xml version="1.0" encoding="UTF-8"?>
<svg xmlns="http://www.w3.org/2000/svg" viewBox="0 0 89.53 58.54">
  <defs>
    <style>
      .cls-1 {
        mix-blend-mode: multiply;
        opacity: .5;
        stroke: #9fecec;
        stroke-width: 6.22px;
      }

      .cls-1, .cls-2, .cls-3, .cls-4 {
        fill: none;
        stroke-linecap: round;
        stroke-linejoin: round;
      }

      .cls-5 {
        isolation: isolate;
      }

      .cls-2 {
        stroke: #000;
      }

      .cls-2, .cls-4 {
        stroke-width: .99px;
      }

      .cls-3 {
        stroke-width: .94px;
      }

      .cls-3, .cls-4 {
        stroke: #4dc1db;
      }
    </style>
  </defs>
  <g class="cls-5">
    <g id="Layer_2" data-name="Layer 2">
      <g id="Layer_1-2" data-name="Layer 1">
        <g>
          <polyline class="cls-3" points="14.62 37.67 72.44 18.01 77.62 33.24 19.8 52.91 14.62 37.67"/>
          <path class="cls-1" d="M27.26,39.23c.11.09.3.1.56.02.17-.05.35-.13.54-.24.19-.1.43-.2.71-.3.28-.09.6-.17.94-.24.34-.06.75-.14,1.22-.24.47-.09.96-.18,1.46-.25.5-.07.88-.11,1.13-.11.25,0,.47.02.65.04.19.03.35.07.5.13.14.06.27.13.38.21.11.08.2.21.29.39.08.18.11.33.09.44-.03.11-.07.23-.12.34-.06.12-.18.3-.36.54-.18.25-.33.43-.44.55-.11.12-.23.24-.36.36-.13.12-.26.24-.41.35-.14.12-.34.26-.6.42-.26.16-.49.28-.7.37-.21.08-.35.12-.41.11-.06,0-.12-.06-.18-.14-.06-.09-.04-.2.05-.35s.22-.3.41-.47c.19-.16.34-.3.48-.4s.35-.24.64-.43c.29-.19.53-.33.72-.43.19-.1.37-.18.55-.26s.42-.16.72-.26c.3-.1.48-.16.55-.17.07-.01.12.02.15.09.03.07-.05.19-.25.36s-.45.35-.75.54c-.3.19-.62.37-.96.54-.34.17-.68.32-1.03.46-.35.14-.7.26-1.04.37-.34.11-.58.18-.73.22-.15.03-.4.07-.75.1-.35.03-.66.05-.94.06-.27.01-.5.04-.68.08-.18.04-.32.07-.43.09-.1.02-.27.06-.48.14-.22.08-.46.24-.74.49-.27.25-.55.5-.83.75-.28.25-.48.43-.61.53-.13.1-.29.2-.48.28-.19.09-.33.13-.41.13-.08,0-.26-.03-.53-.1-.27-.07-.54-.13-.81-.18s-.48-.08-.64-.08c-.16,0-.38.05-.66.14-.28.09-.55.15-.8.17-.25.02-.46.02-.65-.02-.18-.04-.34-.08-.46-.13-.12-.04-.23-.17-.34-.37-.1-.2-.22-.49-.36-.88-.14-.38-.21-.75-.22-1.09-.01-.34-.04-.59-.06-.73-.03-.14-.08-.32-.16-.55-.08-.22-.15-.38-.23-.47-.08-.09-.18-.24-.31-.43-.13-.19-.23-.34-.32-.45-.09-.11-.19-.19-.29-.25-.1-.06-.16-.09-.17-.09,0,0,0,0,0,0,0,0,.09.03.24.08.15.05.35.09.6.12.25.03.46.05.64.06.17,0,.36,0,.55,0,.19,0,.52-.03.96-.06.45-.04.87-.09,1.28-.14.41-.06.71-.1.91-.14.2-.03.47-.09.82-.18.35-.09.61-.16.79-.21s.71-.23,1.59-.53c.88-.3,1.38-.46,1.49-.48.11-.02.17-.03.18-.03.01,0,.01,0,0,0s-.1,0-.24,0c-.14,0-.36.02-.66.08-.3.06-.63.13-.99.21-.36.09-.66.15-.89.19-.23.04-.45.07-.66.08-.21.01-.39,0-.54-.03-.15-.03-.26-.1-.34-.21-.08-.11-.09-.2-.05-.29.04-.09.12-.19.24-.3.12-.12.31-.28.58-.49.27-.21.51-.38.71-.52.2-.14.39-.25.57-.34.18-.09.32-.16.42-.2.11-.04.16-.06.17-.07,0,0,0,0-.01,0-.01,0-.16.08-.43.23-.27.14-.64.32-1.1.54-.47.22-.8.36-.99.43-.2.07-.28.1-.27.09.02-.01.07-.04.14-.08.08-.04.44-.18,1.09-.41.65-.23,1.11-.37,1.39-.44.28-.06.66-.13,1.16-.21.49-.07.91-.14,1.24-.19.33-.06.67-.12,1-.2.34-.07.67-.16,1-.25.33-.09.66-.19.99-.29.32-.1.71-.21,1.14-.33.44-.12.83-.22,1.17-.28.34-.07.65-.13.94-.19.28-.06.72-.19,1.32-.39.59-.2,1.11-.39,1.55-.59.44-.19.8-.37,1.08-.52.28-.16.57-.32.87-.49.3-.17.59-.31.85-.42.27-.11.55-.22.84-.32.29-.1.62-.22.97-.37s.74-.3,1.15-.45.74-.28.98-.39c.24-.11.56-.27.97-.49.41-.22.79-.4,1.14-.56.35-.16.77-.32,1.26-.49.49-.17,1.31-.45,2.47-.85s1.87-.63,2.12-.7c.26-.07.64-.2,1.15-.36.51-.17,1.09-.36,1.75-.59.66-.22,1.17-.39,1.53-.5.36-.11.7-.22,1.03-.33.32-.11.73-.23,1.22-.37.49-.14.91-.26,1.26-.36.35-.1.73-.22,1.14-.36.42-.14.81-.29,1.18-.46.37-.16.86-.35,1.46-.55.6-.21,1.05-.34,1.33-.39.28-.05.54-.09.77-.12.23-.03.54-.07.92-.14s.75-.15,1.1-.26c.34-.11.57-.17.68-.19.11-.01.23,0,.36.02.13.03.27.04.44.03.16,0,.37-.05.61-.12.25-.07.39-.06.43.03.04.09.05.3.04.63-.01.33-.04.67-.1,1-.05.33-.08.59-.09.76,0,.17,0,.37.04.58.04.21.11.47.21.77.1.3.22.57.34.79.13.23.27.44.43.64.16.2.35.42.56.67s.37.43.48.56c.11.13.21.28.33.45.11.17.23.38.35.61.12.24.23.49.33.76.09.27.11.42.05.45-.06.02-.14.09-.24.2-.1.11-.15.19-.17.24-.02.05-1.85.69-5.5,1.93-3.65,1.24-5.62,1.92-5.92,2.04-.3.12-.7.29-1.19.51-.49.22-1,.44-1.51.66-.52.22-1.01.43-1.47.63-.46.2-.9.38-1.31.54-.41.16-1.57.57-3.5,1.22-1.93.66-3.1,1.07-3.54,1.25-.43.18-.9.36-1.4.53-.5.18-.81.28-.93.31-.12.03-.44.09-.94.17-.51.08-.94.16-1.3.23-.36.07-.72.14-1.07.23-.35.08-.8.21-1.35.38-.55.17-1.03.32-1.43.46-.4.14-.69.25-.88.35-.19.09-.38.19-.56.29-.18.1-.5.28-.96.52-.45.24-.86.44-1.21.61-.35.17-.68.33-.98.48-.3.15-.62.31-.96.47-.34.16-.62.28-.84.37-.22.09-.53.2-.93.33-.4.14-.69.22-.85.24-.16.02-.49.12-.99.28-.5.17-1.32.44-2.45.83-1.14.39-1.83.61-2.08.66-.25.06-.46.1-.64.13-.18.03-.43.09-.74.2-.32.11-.54.19-.66.26-.12.06-.37.16-.74.3-.37.13-.67.23-.9.29-.23.06-.42.11-.59.15-.17.04-.36.06-.57.04-.21-.02-.33-.05-.37-.08-.03-.04-.08-.04-.15-.02-.07.02-.15.07-.23.14-.08.07-.18.12-.31.16-.13.04-.24.05-.33.02-.09-.02-.16-.07-.19-.14-.03-.07,0-.2.12-.4.12-.2.2-.35.25-.48.05-.12.08-.25.09-.4.01-.15.01-.29,0-.42-.01-.14-.06-.32-.13-.56-.07-.23-.16-.44-.27-.61-.11-.17-.19-.34-.26-.5-.07-.16-.02-.29.13-.41.16-.11.3-.21.43-.28.13-.07.42-.21.87-.42.45-.21.99-.46,1.62-.75.63-.29,1.35-.63,2.14-1.01.79-.38,1.83-.9,3.13-1.56,1.29-.66,2.16-1.1,2.6-1.31.44-.21.9-.42,1.38-.63.48-.21,1.15-.48,1.99-.8.85-.32,1.48-.56,1.91-.71.43-.15,1.21-.42,2.35-.81,1.14-.39,2.05-.69,2.73-.91.68-.22,1.18-.38,1.51-.49.33-.11.64-.21.95-.31.31-.1.76-.25,1.37-.45.61-.21,1.18-.41,1.73-.6.54-.19,1.07-.39,1.57-.6.5-.21.86-.35,1.08-.43.22-.08.51-.2.86-.35.35-.15.64-.27.86-.37.22-.1.34-.15.35-.16h0s-.04,0-.04,0c-.04.01-.34.11-.91.3-.57.19-1.08.36-1.53.52-.45.15-.94.33-1.46.54-.52.21-1.23.5-2.12.89-.89.38-1.49.64-1.78.76-.29.12-.67.28-1.15.47-.48.19-.84.32-1.08.41-.24.08-.38.12-.43.12-.05,0-.04-.03.03-.09.07-.06.24-.17.52-.33.27-.16.64-.35,1.1-.58.46-.23.83-.41,1.12-.54.29-.13.6-.27.94-.41.34-.14.69-.29,1.07-.44.38-.15.8-.31,1.26-.49.46-.18.93-.35,1.39-.51.46-.16,1.4-.49,2.81-.97,1.41-.48,2.32-.79,2.74-.93s.84-.26,1.27-.38c.43-.12.82-.22,1.19-.3.36-.08.72-.16,1.06-.23.34-.07.82-.15,1.44-.25.62-.1,1.07-.17,1.34-.22.27-.05.64-.11,1.12-.19.48-.08,1.01-.17,1.61-.25.59-.09,1.1-.18,1.52-.26.42-.09.77-.18,1.04-.27.28-.09.48-.2.6-.33.13-.13.2-.22.23-.27.02-.06.09-.1.18-.13.1-.03.27-.05.52-.06.25,0,.41.02.46.07.05.05.01.16-.13.32-.14.16-.37.39-.68.68-.31.29-.62.56-.92.8s-.54.44-.71.57c-.17.13-.34.26-.53.38-.18.12-.47.3-.86.53-.39.23-.89.5-1.51.8-.62.3-1.27.62-1.95.94s-1.26.61-1.75.84c-.49.24-.97.46-1.44.68-.48.22-1.07.47-1.77.76-.71.29-1.18.48-1.41.57-.23.09-.64.23-1.2.42-.57.19-.91.31-1.04.34-.13.03-.29.05-.5.06-.21,0-.34-.01-.4-.05-.06-.03-.11-.09-.14-.18-.04-.09,0-.18.09-.29.1-.1.29-.21.58-.32.29-.11.6-.18.91-.22.31-.04.53-.06.65-.06"/>
          <polyline class="cls-2" points="45.21 2.25 45.21 35.62 77.26 35.62"/>
          <path class="cls-2" d="M75.86,33.05c-.25.47-.14.78.32.93.33.11.62.2.88.27.26.08.49.17.72.28.22.11.4.23.53.38.13.14.22.31.27.51.05.19.07.46.06.79-.01.33-.07.6-.17.8-.1.2-.29.47-.57.81-.28.34-.45.54-.51.61"/>
          <path class="cls-2" d="M42.34,5.13c.21-.5.46-1.01.73-1.52.27-.51.52-.95.75-1.32.23-.37.46-.68.68-.93.22-.25.42-.44.59-.58s.34-.23.5-.26c.16-.04.32.06.47.29.16.23.37.58.64,1.03.27.46.61,1.01,1.03,1.66.42.65.68,1.04.79,1.18.2.24.31.38.35.41"/>
          <path class="cls-2" d="M58.35,32.28c0-.11.08-.17.22-.18.14,0,.24,0,.3.05.06.04.13.1.2.17.07.07.13.15.2.26.06.1.12.21.17.34.05.12.09.26.13.39.03.14.06.29.08.44s.03.37.03.64c0,.27,0,.45,0,.55,0,.1-.04.2-.08.29-.04.09-.1.17-.18.22l-.11.08h0"/>
          <path class="cls-2" d="M70.75,30.85c.06.04.09.11.1.21,0,.1,0,.18,0,.23,0,.05-.03.09-.06.14-.03.05-.07.1-.13.15-.05.05-.11.09-.18.13-.07.04-.14.07-.23.1-.08.03-.17.05-.25.06-.08,0-.16,0-.23,0-.08,0-.14-.04-.2-.1-.06-.06-.1-.13-.13-.23-.03-.09-.04-.19-.04-.3,0-.11,0-.22.01-.34.01-.12.04-.22.09-.32.05-.1.11-.19.17-.28.07-.08.14-.16.22-.23.08-.07.16-.13.24-.17.08-.04.15-.07.23-.08.08-.02.16-.03.24-.03.08,0,.15.02.22.06.07.04.12.1.18.19.05.09.1.2.14.32.04.13.07.26.09.41.02.15.03.4.03.75,0,.35,0,.61-.03.77-.02.16-.06.32-.1.46-.04.15-.1.29-.17.43s-.15.25-.23.35c-.09.1-.19.18-.3.25-.11.07-.23.12-.35.15-.12.03-.24.04-.35.03-.11-.01-.21-.06-.31-.15-.1-.09-.18-.2-.26-.34-.07-.14-.13-.29-.16-.46-.03-.17-.06-.34-.07-.5,0-.16-.01-.32-.01-.48,0-.15,0-.29.03-.4.04-.18.08-.29.13-.34"/>
          <line class="cls-2" x1="45.21" y1="35.62" x2="74.6" y2="25.49"/>
          <line class="cls-2" x1="22.76" y1="57.86" x2="79.01" y2="39.88"/>
          <line class="cls-4" x1="8.81" y1="48.5" x2="89.03" y2="20.54"/>
          <path class="cls-2" d="M76.69,39.07c-.08.23.17.36.75.38.58.02.95.05,1.13.09.18.04.3.08.36.11.06.03.1.1.13.19.03.09.01.19-.05.3-.06.11-.15.22-.29.33-.22.18-.38.29-.47.33"/>
          <path class="cls-2" d="M24.13,55.93c.06-.25.07-.36.05-.34-.02.01-.06.05-.14.11-.07.06-.27.29-.59.69s-.52.67-.61.82c-.08.15-.13.25-.13.31,0,.06.01.11.05.15.04.04.19.09.45.14s.65.1,1.17.15c.51.05.84.08.97.08.21,0,.35,0,.41-.06"/>
          <path class="cls-2" d="M49.86,54.24c0,.13-.01.19-.01.2,0,0,0,0,0,0,0,0,.03-.06.08-.15s.14-.22.28-.38c.13-.16.29-.32.47-.48.18-.16.32-.28.41-.34.09-.07.22-.11.39-.14.17-.03.28-.02.34.03.06.05.1.14.12.27.02.13.03.37.03.73,0,.36-.04.63-.1.81-.06.18-.14.37-.22.56s-.22.41-.39.67c-.17.25-.29.42-.36.51-.07.09-.16.15-.26.19s-.16.01-.16-.09c0-.1.03-.2.1-.3.07-.1.16-.18.28-.24.12-.06.31-.1.56-.11.25-.01.43,0,.52,0s.23.08.41.19c.18.11.35.24.49.39.15.15.24.26.29.33"/>
          <path class="cls-2" d="M55.27,53.58c-.13.08-.2.12-.22.13-.01,0-.01,0,0-.02s.07-.09.15-.19c.09-.11.18-.21.3-.32.11-.11.22-.18.32-.21.1-.03.16.1.17.41.01.31-.04.74-.15,1.31-.11.56-.19.93-.22,1.1-.03.17-.05.38-.05.64,0,.26.04.42.12.49.08.07.19.12.32.16.13.04.36.06.7.06.34,0,.74-.04,1.21-.12s.8-.13.97-.15c.18-.02.3-.04.37-.08"/>
          <line class="cls-2" x1="9.57" y1="39.44" x2="14.78" y2="54.88"/>
          <path class="cls-2" d="M13.38,54.49c.43.36.81.66,1.14.89.23.16.39.26.49.31.1.05.21.07.34.07.13,0,.21-.11.24-.34.03-.23.05-.6.05-1.11,0-.51.01-.83.02-.98"/>
          <path class="cls-2" d="M8.93,39.54c-.2-.04-.35.02-.45.16-.07.1-.12.25-.15.47-.03.21-.05.45-.05.71,0,.26.02.43.06.5.04.07.1.11.18.13.08.01.16-.06.24-.21.08-.15.16-.38.23-.68s.14-.63.2-1c.06-.37.12-.6.16-.68.04-.09.11-.13.2-.13.09,0,.24.11.46.33.22.22.41.43.59.64.18.21.31.36.4.44.13.13.26.25.41.35"/>
          <path class="cls-2" d="M.52,46.75c-.03-.11.07-.24.3-.36.15-.09.3-.14.45-.16.15-.02.25-.02.32-.01s.13.04.19.11c.06.06.1.15.14.25s.06.29.07.57c0,.27,0,.49-.05.66-.04.17-.1.32-.17.47-.07.15-.16.29-.24.41-.09.13-.18.24-.28.33-.1.1-.21.17-.35.22-.14.05-.23.06-.28.03-.05-.03-.09-.13-.11-.32-.03-.19,0-.32.09-.4.08-.08.24-.12.47-.13.23,0,.39,0,.48.04.09.04.21.12.36.25.15.13.31.29.46.48.16.19.28.35.38.47"/>
          <path class="cls-2" d="M3.88,46.55c-.11,0-.13.06-.06.17.06.12.16.37.31.78.14.4.26.74.37,1.01.1.27.2.49.29.64.09.15.17.25.25.28.07.03.14-.04.21-.21.06-.17.13-.47.2-.9s.14-.77.2-1.01c.07-.24.14-.41.22-.52.08-.11.16-.15.24-.13.08.02.17.14.25.35.08.21.18.52.28.92.1.4.19.69.26.88.07.19.14.31.19.36.05.06.13.1.23.12.1.02.17,0,.23-.05.05-.06.12-.2.21-.44.09-.24.16-.52.23-.85.06-.33.13-.72.21-1.16.07-.45.13-.73.17-.87.04-.13.06-.2.06-.22,0-.01,0-.01,0,0,0,.01,0,.02,0,.01,0,0-.01.07-.04.24"/>
        </g>
      </g>
    </g>
  </g>
</svg>