<svg version="1.1" id="Layer_1" xmlns="http://www.w3.org/2000/svg" xmlns:xlink="http://www.w3.org/1999/xlink" x="0px" y="0px"
	 width="100%" viewBox="0 0 512 512" enable-background="new 0 0 512 512" xml:space="preserve">
<path fill="#000000" opacity="1.000000" stroke="none" 
	d="
M169.481934,334.504456 
	C163.469833,340.728394 156.073196,344.309906 148.940048,348.141968 
	C143.501144,351.063843 136.666351,349.371155 132.322418,345.366089 
	C127.800941,341.197357 125.109871,336.529541 127.726433,330.355530 
	C129.576431,325.990356 133.296204,322.765106 136.581787,319.752197 
	C151.003937,306.526978 165.254562,293.035889 181.442902,281.893951 
	C194.842026,272.671753 206.276581,261.933044 215.080475,247.799942 
	C222.635178,235.672211 229.998749,223.502869 235.656860,210.481720 
	C242.313278,195.163193 248.647339,179.715851 248.998398,162.375320 
	C249.174179,153.693085 250.230591,145.169312 246.562592,137.037628 
	C243.984543,131.322266 239.642487,129.456329 233.490829,131.108246 
	C219.743958,134.799698 207.898361,142.128967 197.074203,151.073395 
	C189.913513,156.990570 182.828384,163.006470 176.256729,169.653671 
	C155.200607,190.951767 138.102905,215.199219 122.229706,240.437241 
	C112.013580,256.680634 103.664444,273.837860 96.625420,291.629395 
	C90.777924,306.409271 85.179855,321.298157 79.936951,336.301453 
	C78.051834,341.695984 77.409531,347.544922 76.409622,353.223358 
	C75.298691,359.532318 70.113914,363.607666 63.242279,363.294525 
	C58.397636,363.073792 53.083973,357.165436 52.662140,351.781830 
	C51.828327,341.140442 55.456444,331.537994 59.507385,322.058899 
	C65.944061,306.997284 71.300385,291.516327 77.705276,276.417084 
	C83.874809,261.872711 90.430336,247.572693 98.349724,234.041824 
	C106.866997,219.489410 116.025116,205.099365 126.641975,192.053146 
	C135.786713,180.815887 144.951996,169.489838 154.792526,158.730148 
	C164.928085,147.647934 175.207657,136.893936 187.118744,127.825928 
	C198.225296,119.370422 209.942017,111.574348 223.739563,108.374611 
	C232.370804,106.372963 241.281815,105.025253 250.182846,108.470879 
	C262.000946,113.045715 268.219788,121.988197 271.286926,133.736115 
	C274.371857,145.552200 272.998138,157.264984 271.786743,169.250488 
	C270.220367,184.747849 265.702942,199.357758 260.964905,213.902802 
	C258.164520,222.499573 253.294312,230.425293 249.307968,238.629990 
	C248.462799,240.369507 247.018768,241.867416 247.315048,244.299698 
	C256.454132,241.605377 265.471466,238.971802 274.470062,236.275818 
	C276.599396,235.637878 277.504059,234.187119 277.703308,231.831818 
	C279.251526,213.529037 280.439331,195.174713 282.734650,176.961853 
	C285.237030,157.106339 286.754120,137.104538 290.687347,117.441811 
	C291.698242,112.388245 293.220581,107.575172 297.113007,103.716759 
	C302.411438,98.464676 306.046661,98.892082 312.048462,101.514664 
	C316.774628,103.579865 318.448334,108.713089 316.457489,114.906158 
	C313.157257,125.172150 309.904449,135.397003 308.816589,146.200165 
	C307.755341,156.738419 306.361633,167.243958 305.359131,177.787170 
	C303.949158,192.616394 302.756134,207.466339 301.497375,222.309708 
	C301.344971,224.106964 301.018066,225.944153 302.073730,228.215286 
	C307.742889,227.049347 313.471069,225.690521 319.264038,224.716995 
	C331.826660,222.605789 344.403198,220.553848 357.018433,218.796021 
	C360.076416,218.369919 360.537689,217.270142 360.840485,214.435837 
	C362.942383,194.761642 362.854797,174.989273 363.972778,155.284973 
	C364.777679,141.098984 364.969208,126.772652 367.490906,112.690117 
	C367.694427,111.553688 367.629608,110.365051 367.646759,109.200043 
	C367.803436,98.524460 376.203033,92.237694 386.650177,94.984512 
	C391.571075,96.278336 394.109558,99.529854 394.347290,104.691788 
	C394.839050,115.370247 393.043213,125.879822 392.006378,136.441498 
	C391.262604,144.018326 389.654602,151.556076 389.488098,159.134460 
	C389.122772,175.764526 387.841980,192.369385 388.213104,209.026657 
	C388.308228,213.295166 389.299469,215.040726 393.839325,214.717896 
	C408.914642,213.645889 424.032715,212.082779 439.120850,212.887604 
	C452.963043,213.625961 467.060211,213.111374 480.482605,217.690689 
	C487.342621,220.031113 490.597717,224.907333 490.330627,232.049683 
	C490.142731,237.074310 485.880127,240.932861 480.729095,241.365341 
	C469.843170,242.279343 459.278564,239.288101 448.458496,239.022858 
	C438.493408,238.778564 428.568695,239.294083 418.658875,239.629791 
	C410.577759,239.903549 402.525360,241.387146 394.363770,241.380432 
	C386.331726,241.373825 385.855927,242.481583 385.241394,250.228394 
	C384.076263,264.915802 382.107697,279.538666 380.885315,294.222656 
	C379.634766,309.244873 375.988708,324.001282 375.845184,339.105957 
	C375.801788,343.671112 377.421051,348.188507 377.443817,352.904968 
	C377.471405,358.604156 373.409515,361.449432 369.651062,363.608337 
	C366.031281,365.687622 361.394226,364.440613 357.948700,361.799927 
	C352.390289,357.539886 349.464478,352.049896 349.612701,344.635406 
	C350.021118,324.205139 352.111145,303.982605 355.373688,283.824371 
	C356.694550,275.663330 356.937592,267.328705 357.697632,259.075531 
	C357.986023,255.943680 358.395294,252.822647 358.662598,249.689285 
	C358.855164,247.431915 357.886902,246.098923 355.453949,246.491364 
	C337.806763,249.337875 320.086334,251.780930 302.730957,256.231689 
	C300.687683,256.755676 299.492493,257.446564 299.331116,259.736847 
	C298.786896,267.459351 297.240997,275.089539 295.920471,282.663696 
	C293.612640,295.900879 292.567078,309.281891 290.327179,322.505798 
	C287.979614,336.365417 285.760132,350.291534 283.946136,364.179138 
	C282.448944,375.641388 280.696442,387.111237 279.411316,398.618896 
	C279.084137,401.548950 280.071198,404.397186 280.686493,407.308350 
	C282.728363,416.969177 278.589661,428.320312 265.178741,426.318573 
	C260.851227,425.672668 254.617050,417.323822 253.605576,411.865234 
	C251.396790,399.945068 253.798004,388.396027 256.092255,376.885986 
	C259.296173,360.812164 263.891907,344.966736 266.233398,328.783600 
	C268.647247,312.100189 272.454529,295.562042 272.818390,278.580505 
	C272.908600,274.369904 274.505005,270.190887 273.141571,265.584320 
	C264.786041,267.386536 257.419708,271.247040 249.765762,274.204407 
	C236.095001,279.486603 223.389664,286.752411 210.948975,294.453064 
	C207.338470,296.687958 205.268448,300.472656 202.390442,303.441956 
	C191.966782,314.196320 181.420471,324.833435 169.481934,334.504456 
z"/>
</svg>